Lora Devanagari-Bold.ufo
<glyph name="quotedbl" format="1">
  <advance width="326"/>
  <unicode hex="0022"/>
  <outline>
    <contour>
      <point x="186" y="716" type="line"/>
      <point x="194" y="491" type="line"/>
      <point x="274" y="491" type="line"/>
      <point x="283" y="716" type="line"/>
    </contour>
    <contour>
      <point x="43" y="716" type="line"/>
      <point x="51" y="491" type="line"/>
      <point x="131" y="491" type="line"/>
      <point x="140" y="716" type="line"/>
    </contour>
  </outline>
</glyph>
<glyph name="numbersign" format="1">
  <advance width="871"/>
  <unicode hex="0023"/>
  <outline>
    <contour>
      <point x="609" y="716" type="line"/>
      <point x="565" y="529" type="line"/>
      <point x="392" y="529" type="line"/>
      <point x="435" y="716" type="line"/>
      <point x="334" y="716" type="line"/>
      <point x="290" y="529" type="line"/>
      <point x="124" y="529" type="line"/>
      <point x="103" y="440" type="line"/>
      <point x="271" y="440" type="line"/>
      <point x="221" y="243" type="line"/>
      <point x="58" y="243" type="line"/>
      <point x="37" y="154" type="line"/>
      <point x="203" y="154" type="line"/>
      <point x="162" y="-16" type="line"/>
      <point x="268" y="-16" type="line"/>
      <point x="307" y="154" type="line"/>
      <point x="478" y="154" type="line"/>
      <point x="437" y="-16" type="line"/>
      <point x="543" y="-16" type="line"/>
      <point x="583" y="154" type="line"/>
      <point x="747" y="154" type="line"/>
      <point x="768" y="243" type="line"/>
      <point x="601" y="243" type="line"/>
      <point x="648" y="440" type="line"/>
      <point x="814" y="440" type="line"/>
      <point x="834" y="528" type="line"/>
      <point x="834" y="529" type="line"/>
      <point x="667" y="529" type="line"/>
      <point x="709" y="716" type="line"/>
    </contour>
    <contour>
      <point x="496" y="243" type="line"/>
      <point x="325" y="243" type="line"/>
      <point x="373" y="440" type="line"/>
      <point x="546" y="440" type="line"/>
    </contour>
  </outline>
</glyph>
<glyph name="dollar" format="1">
  <advance width="588"/>
  <unicode hex="0024"/>
  <outline>
    <contour>
      <point x="250" y="837" type="line"/>
      <point x="250" y="716" type="line"/>
      <point x="90" y="708"/>
      <point x="50" y="604"/>
      <point x="50" y="525" type="curve" smooth="yes"/>
      <point x="50" y="394"/>
      <point x="151" y="326"/>
      <point x="267" y="278" type="curve" smooth="yes"/>
      <point x="343" y="247"/>
      <point x="413" y="224"/>
      <point x="413" y="156" type="curve" smooth="yes"/>
      <point x="413" y="99"/>
      <point x="373" y="56"/>
      <point x="302" y="56" type="curve" smooth="yes"/>
      <point x="208" y="56"/>
      <point x="145" y="113"/>
      <point x="126" y="225" type="curve"/>
      <point x="61" y="225" type="line"/>
      <point x="61" y="-9" type="line"/>
      <point x="138" y="-9" type="line"/>
      <point x="135" y="33" type="line"/>
      <point x="136" y="33" type="line"/>
      <point x="175" y="9"/>
      <point x="220" y="-6"/>
      <point x="262" y="-13" type="curve"/>
      <point x="263" y="-154" type="line"/>
      <point x="354" y="-154" type="line"/>
      <point x="355" y="-13" type="line"/>
      <point x="478" y="4"/>
      <point x="546" y="81"/>
      <point x="546" y="186" type="curve" smooth="yes"/>
      <point x="546" y="316"/>
      <point x="431" y="374"/>
      <point x="332" y="418" type="curve" smooth="yes"/>
      <point x="217" y="470"/>
      <point x="180" y="496"/>
      <point x="180" y="558" type="curve" smooth="yes"/>
      <point x="180" y="608"/>
      <point x="218" y="644"/>
      <point x="274" y="644" type="curve" smooth="yes"/>
      <point x="368" y="645"/>
      <point x="415" y="587"/>
      <point x="433" y="476" type="curve"/>
      <point x="499" y="476" type="line"/>
      <point x="499" y="709" type="line"/>
      <point x="421" y="709" type="line"/>
      <point x="425" y="668" type="line"/>
      <point x="424" y="668" type="line"/>
      <point x="400" y="686"/>
      <point x="372" y="698"/>
      <point x="343" y="706" type="curve"/>
      <point x="344" y="837" type="line"/>
    </contour>
  </outline>
</glyph>
<glyph name="ampersand" format="1">
  <advance width="670"/>
  <unicode hex="0026"/>
  <outline>
    <contour>
      <point x="173" y="716"/>
      <point x="98" y="652"/>
      <point x="97" y="551" type="curve" smooth="yes"/>
      <point x="96" y="496"/>
      <point x="107" y="443"/>
      <point x="179" y="365" type="curve"/>
      <point x="89" y="332"/>
      <point x="23" y="259"/>
      <point x="23" y="170" type="curve" smooth="yes"/>
      <point x="23" y="40"/>
      <point x="145" y="-16"/>
      <point x="261" y="-16" type="curve" smooth="yes"/>
      <point x="346" y="-16"/>
      <point x="418" y="11"/>
      <point x="470" y="57" type="curve"/>
      <point x="516" y="21"/>
      <point x="557" y="0"/>
      <point x="568" y="0" type="curve" smooth="yes"/>
      <point x="675" y="0" type="line"/>
      <point x="675" y="66" type="line"/>
      <point x="648" y="66"/>
      <point x="604" y="97"/>
      <point x="552" y="141" type="curve" smooth="yes"/>
      <point x="537" y="154" type="line"/>
      <point x="549" y="187"/>
      <point x="556" y="223"/>
      <point x="556" y="262" type="curve" smooth="yes"/>
      <point x="556" y="286"/>
      <point x="552" y="307"/>
      <point x="545" y="323" type="curve"/>
      <point x="545" y="324" type="line"/>
      <point x="566" y="322"/>
      <point x="587" y="320"/>
      <point x="600" y="320" type="curve"/>
      <point x="600" y="395" type="line"/>
      <point x="432" y="395" type="line"/>
      <point x="432" y="331" type="line"/>
      <point x="467" y="329"/>
      <point x="485" y="310"/>
      <point x="485" y="255" type="curve" smooth="yes"/>
      <point x="485" y="238"/>
      <point x="484" y="221"/>
      <point x="480" y="205" type="curve"/>
      <point x="479" y="205" type="line"/>
      <point x="404" y="275"/>
      <point x="325" y="355"/>
      <point x="318" y="364" type="curve"/>
      <point x="392" y="408"/>
      <point x="462" y="476"/>
      <point x="462" y="559" type="curve" smooth="yes"/>
      <point x="462" y="643"/>
      <point x="393" y="716"/>
      <point x="288" y="716" type="curve" smooth="yes"/>
    </contour>
    <contour>
      <point x="249" y="261"/>
      <point x="291" y="217"/>
      <point x="368" y="147" type="curve" smooth="yes"/>
      <point x="418" y="102" type="line"/>
      <point x="386" y="73"/>
      <point x="343" y="55"/>
      <point x="293" y="55" type="curve" smooth="yes"/>
      <point x="210" y="55"/>
      <point x="159" y="104"/>
      <point x="159" y="195" type="curve" smooth="yes"/>
      <point x="159" y="224"/>
      <point x="170" y="277"/>
      <point x="208" y="308" type="curve"/>
    </contour>
    <contour>
      <point x="324" y="646"/>
      <point x="349" y="612"/>
      <point x="349" y="564" type="curve" smooth="yes"/>
      <point x="349" y="522"/>
      <point x="324" y="456"/>
      <point x="273" y="417" type="curve"/>
      <point x="241" y="457"/>
      <point x="216" y="516"/>
      <point x="216" y="556" type="curve" smooth="yes"/>
      <point x="216" y="614"/>
      <point x="245" y="646"/>
      <point x="283" y="646" type="curve" smooth="yes"/>
    </contour>
  </outline>
</glyph>
<glyph name="quotesingle" format="1">
  <advance width="188"/>
  <unicode hex="0027"/>
  <outline>
    <contour>
      <point x="42" y="716" type="line"/>
      <point x="52" y="491" type="line"/>
      <point x="137" y="491" type="line"/>
      <point x="146" y="716" type="line"/>
    </contour>
  </outline>
</glyph>
<glyph name="plus" format="1">
  <advance width="526"/>
  <unicode hex="002B"/>
  <outline>
    <contour>
      <point x="212" y="543" type="line"/>
      <point x="212" y="364" type="line"/>
      <point x="40" y="365" type="line"/>
      <point x="40" y="270" type="line"/>
      <point x="94" y="270"/>
      <point x="156" y="271"/>
      <point x="212" y="271" type="curve"/>
      <point x="212" y="82" type="line"/>
      <point x="311" y="82" type="line"/>
      <point x="311" y="271" type="line"/>
      <point x="486" y="271" type="line"/>
      <point x="486" y="363" type="line"/>
      <point x="435" y="363"/>
      <point x="367" y="364"/>
      <point x="311" y="364" type="curve"/>
      <point x="311" y="543" type="line"/>
    </contour>
  </outline>
</glyph>
<glyph name="comma" format="1">
  <advance width="250"/>
  <unicode hex="002C"/>
  <outline>
    <contour>
      <point x="72" y="137"/>
      <point x="44" y="102"/>
      <point x="44" y="62" type="curve" smooth="yes"/>
      <point x="44" y="16"/>
      <point x="77" y="-4"/>
      <point x="113" y="-4" type="curve" smooth="yes"/>
      <point x="120" y="-4"/>
      <point x="125" y="-4"/>
      <point x="134" y="-1" type="curve"/>
      <point x="136" y="-59"/>
      <point x="98" y="-132"/>
      <point x="77" y="-159" type="curve"/>
      <point x="116" y="-187" type="line"/>
      <point x="178" y="-110"/>
      <point x="208" y="-32"/>
      <point x="208" y="32" type="curve" smooth="yes"/>
      <point x="208" y="92"/>
      <point x="177" y="138"/>
      <point x="116" y="137" type="curve" smooth="yes"/>
    </contour>
  </outline>
</glyph>
<glyph name="hyphen" format="1">
  <advance width="471"/>
  <unicode hex="002D"/>
  <outline>
    <contour>
      <point x="51" y="368" type="line"/>
      <point x="51" y="260" type="line"/>
      <point x="419" y="263" type="line"/>
      <point x="419" y="368" type="line"/>
    </contour>
  </outline>
</glyph>
<glyph name="period" format="1">
  <advance width="233"/>
  <unicode hex="002E"/>
  <outline>
    <contour>
      <point x="78" y="140"/>
      <point x="44" y="105"/>
      <point x="44" y="62" type="curve" smooth="yes"/>
      <point x="44" y="19"/>
      <point x="74" y="-16"/>
      <point x="118" y="-16" type="curve" smooth="yes"/>
      <point x="161" y="-16"/>
      <point x="189" y="19"/>
      <point x="189" y="62" type="curve" smooth="yes"/>
      <point x="189" y="105"/>
      <point x="158" y="140"/>
      <point x="117" y="140" type="curve" smooth="yes"/>
    </contour>
  </outline>
</glyph>
<glyph name="slash" format="1">
  <advance width="699"/>
  <unicode hex="002F"/>
  <outline>
    <contour>
      <point x="25" y="-220" type="line"/>
      <point x="103" y="-271" type="line"/>
      <point x="674" y="697" type="line"/>
      <point x="583" y="755" type="line"/>
    </contour>
  </outline>
</glyph>
<glyph name="zero" format="1">
  <advance width="636"/>
  <unicode hex="0030"/>
  <outline>
    <contour>
      <point x="136" y="716"/>
      <point x="43" y="515"/>
      <point x="43" y="347" type="curve" smooth="yes"/>
      <point x="43" y="180"/>
      <point x="114" y="-16"/>
      <point x="318" y="-16" type="curve" smooth="yes"/>
      <point x="504" y="-16"/>
      <point x="592" y="186"/>
      <point x="592" y="352" type="curve" smooth="yes"/>
      <point x="592" y="519"/>
      <point x="516" y="716"/>
      <point x="322" y="716" type="curve" smooth="yes"/>
    </contour>
    <contour>
      <point x="423" y="646"/>
      <point x="440" y="493"/>
      <point x="440" y="331" type="curve" smooth="yes"/>
      <point x="440" y="184"/>
      <point x="418" y="55"/>
      <point x="324" y="55" type="curve" smooth="yes"/>
      <point x="209" y="55"/>
      <point x="195" y="229"/>
      <point x="195" y="368" type="curve" smooth="yes"/>
      <point x="195" y="517"/>
      <point x="224" y="646"/>
      <point x="320" y="646" type="curve" smooth="yes"/>
    </contour>
  </outline>
</glyph>
<glyph name="one" format="1">
  <advance width="406"/>
  <unicode hex="0031"/>
  <outline>
    <contour>
      <point x="235" y="716" type="line"/>
      <point x="6" y="549" type="line"/>
      <point x="42" y="489" type="line"/>
      <point x="151" y="554" type="line"/>
      <point x="151" y="153" type="line" smooth="yes"/>
      <point x="151" y="72"/>
      <point x="125" y="68"/>
      <point x="80" y="66" type="curve"/>
      <point x="80" y="0" type="line"/>
      <point x="367" y="0" type="line"/>
      <point x="367" y="77" type="line"/>
      <point x="353" y="77"/>
      <point x="313" y="76"/>
      <point x="292" y="74" type="curve"/>
      <point x="294" y="91"/>
      <point x="295" y="128"/>
      <point x="295" y="164" type="curve" smooth="yes"/>
      <point x="295" y="716" type="line"/>
    </contour>
  </outline>
</glyph>
<glyph name="two" format="1">
  <advance width="533"/>
  <unicode hex="0032"/>
  <outline>
    <contour>
      <point x="117" y="716"/>
      <point x="40" y="620"/>
      <point x="40" y="560" type="curve" smooth="yes"/>
      <point x="40" y="521"/>
      <point x="63" y="489"/>
      <point x="104" y="487" type="curve" smooth="yes"/>
      <point x="153" y="486"/>
      <point x="172" y="528"/>
      <point x="172" y="551" type="curve" smooth="yes"/>
      <point x="172" y="565"/>
      <point x="167" y="588"/>
      <point x="152" y="603" type="curve"/>
      <point x="167" y="625"/>
      <point x="197" y="645"/>
      <point x="233" y="645" type="curve" smooth="yes"/>
      <point x="309" y="646"/>
      <point x="329" y="578"/>
      <point x="329" y="515" type="curve" smooth="yes"/>
      <point x="329" y="443"/>
      <point x="292" y="373"/>
      <point x="195" y="283" type="curve" smooth="yes"/>
      <point x="118" y="212"/>
      <point x="39" y="139"/>
      <point x="39" y="0" type="curve"/>
      <point x="477" y="0" type="line"/>
      <point x="485" y="163" type="line"/>
      <point x="421" y="163" type="line"/>
      <point x="421" y="107"/>
      <point x="391" y="96"/>
      <point x="346" y="98" type="curve" smooth="yes"/>
      <point x="150" y="103" type="line"/>
      <point x="156" y="129"/>
      <point x="188" y="182"/>
      <point x="262" y="242" type="curve" smooth="yes"/>
      <point x="443" y="390"/>
      <point x="482" y="459"/>
      <point x="482" y="527" type="curve" smooth="yes"/>
      <point x="482" y="667"/>
      <point x="365" y="716"/>
      <point x="258" y="716" type="curve" smooth="yes"/>
    </contour>
  </outline>
</glyph>
<glyph name="three" format="1">
  <advance width="560"/>
  <unicode hex="0033"/>
  <outline>
    <contour>
      <point x="120" y="716"/>
      <point x="51" y="623"/>
      <point x="51" y="563" type="curve" smooth="yes"/>
      <point x="51" y="524"/>
      <point x="73" y="492"/>
      <point x="114" y="491" type="curve" smooth="yes"/>
      <point x="164" y="489"/>
      <point x="182" y="531"/>
      <point x="182" y="555" type="curve" smooth="yes"/>
      <point x="182" y="567"/>
      <point x="178" y="589"/>
      <point x="166" y="604" type="curve"/>
      <point x="177" y="625"/>
      <point x="209" y="646"/>
      <point x="245" y="646" type="curve" smooth="yes"/>
      <point x="313" y="646"/>
      <point x="339" y="597"/>
      <point x="338" y="528" type="curve" smooth="yes"/>
      <point x="336" y="454"/>
      <point x="286" y="403"/>
      <point x="198" y="403" type="curve" smooth="yes"/>
      <point x="188" y="403"/>
      <point x="180" y="403"/>
      <point x="169" y="404" type="curve"/>
      <point x="169" y="332" type="line"/>
      <point x="181" y="333"/>
      <point x="211" y="335"/>
      <point x="221" y="335" type="curve" smooth="yes"/>
      <point x="336" y="337"/>
      <point x="369" y="257"/>
      <point x="369" y="189" type="curve" smooth="yes"/>
      <point x="369" y="114"/>
      <point x="326" y="57"/>
      <point x="242" y="57" type="curve" smooth="yes"/>
      <point x="205" y="57"/>
      <point x="166" y="72"/>
      <point x="152" y="97" type="curve"/>
      <point x="163" y="111"/>
      <point x="168" y="130"/>
      <point x="168" y="143" type="curve" smooth="yes"/>
      <point x="168" y="169"/>
      <point x="153" y="208"/>
      <point x="103" y="207" type="curve" smooth="yes"/>
      <point x="62" y="206"/>
      <point x="35" y="171"/>
      <point x="35" y="131" type="curve" smooth="yes"/>
      <point x="35" y="62"/>
      <point x="101" y="-16"/>
      <point x="252" y="-16" type="curve" smooth="yes"/>
      <point x="408" y="-16"/>
      <point x="520" y="59"/>
      <point x="520" y="196" type="curve" smooth="yes"/>
      <point x="520" y="281"/>
      <point x="461" y="358"/>
      <point x="333" y="381" type="curve"/>
      <point x="333" y="382" type="line"/>
      <point x="443" y="406"/>
      <point x="483" y="486"/>
      <point x="483" y="539" type="curve" smooth="yes"/>
      <point x="483" y="669"/>
      <point x="385" y="716"/>
      <point x="261" y="716" type="curve" smooth="yes"/>
    </contour>
  </outline>
</glyph>
<glyph name="four" format="1">
  <advance width="547"/>
  <unicode hex="0034"/>
  <outline>
    <contour>
      <point x="355" y="716" type="line"/>
      <point x="12" y="275" type="line"/>
      <point x="12" y="181" type="line"/>
      <point x="273" y="181" type="line"/>
      <point x="273" y="153" type="line" smooth="yes"/>
      <point x="273" y="72"/>
      <point x="247" y="68"/>
      <point x="202" y="66" type="curve"/>
      <point x="202" y="0" type="line"/>
      <point x="487" y="0" type="line"/>
      <point x="487" y="77" type="line"/>
      <point x="473" y="77"/>
      <point x="434" y="76"/>
      <point x="412" y="74" type="curve"/>
      <point x="415" y="91"/>
      <point x="416" y="128"/>
      <point x="416" y="164" type="curve" smooth="yes"/>
      <point x="416" y="181" type="line"/>
      <point x="514" y="181" type="line"/>
      <point x="514" y="271" type="line"/>
      <point x="416" y="271" type="line"/>
      <point x="416" y="716" type="line"/>
    </contour>
    <contour>
      <point x="273" y="273" type="line"/>
      <point x="105" y="274" type="line"/>
      <point x="273" y="494" type="line"/>
      <point x="274" y="494" type="line"/>
    </contour>
  </outline>
</glyph>
<glyph name="six" format="1">
  <advance width="575"/>
  <unicode hex="0036"/>
  <outline>
    <contour>
      <point x="93" y="716"/>
      <point x="46" y="438"/>
      <point x="46" y="322" type="curve" smooth="yes"/>
      <point x="46" y="115"/>
      <point x="108" y="-16"/>
      <point x="287" y="-16" type="curve" smooth="yes"/>
      <point x="429" y="-16"/>
      <point x="532" y="89"/>
      <point x="532" y="215" type="curve" smooth="yes"/>
      <point x="532" y="352"/>
      <point x="467" y="450"/>
      <point x="319" y="446" type="curve" smooth="yes"/>
      <point x="270" y="444"/>
      <point x="212" y="415"/>
      <point x="191" y="390" type="curve"/>
      <point x="194" y="498"/>
      <point x="222" y="640"/>
      <point x="319" y="646" type="curve" smooth="yes"/>
      <point x="352" y="648"/>
      <point x="376" y="634"/>
      <point x="387" y="618" type="curve"/>
      <point x="376" y="605"/>
      <point x="373" y="585"/>
      <point x="373" y="574" type="curve" smooth="yes"/>
      <point x="373" y="547"/>
      <point x="389" y="511"/>
      <point x="439" y="511" type="curve" smooth="yes"/>
      <point x="480" y="511"/>
      <point x="502" y="546"/>
      <point x="502" y="582" type="curve" smooth="yes"/>
      <point x="502" y="643"/>
      <point x="446" y="716"/>
      <point x="320" y="716" type="curve" smooth="yes"/>
    </contour>
    <contour>
      <point x="374" y="366"/>
      <point x="381" y="250"/>
      <point x="381" y="190" type="curve" smooth="yes"/>
      <point x="381" y="121"/>
      <point x="362" y="54"/>
      <point x="292" y="54" type="curve" smooth="yes"/>
      <point x="214" y="54"/>
      <point x="191" y="207"/>
      <point x="191" y="300" type="curve"/>
      <point x="209" y="336"/>
      <point x="249" y="366"/>
      <point x="291" y="366" type="curve" smooth="yes"/>
    </contour>
  </outline>
</glyph>
<glyph name="seven" format="1">
  <advance width="469"/>
  <unicode hex="0037"/>
  <outline>
    <contour>
      <point x="22" y="700" type="line"/>
      <point x="15" y="530" type="line"/>
      <point x="78" y="530" type="line"/>
      <point x="78" y="585"/>
      <point x="108" y="602"/>
      <point x="154" y="601" type="curve" smooth="yes"/>
      <point x="364" y="599" type="line"/>
      <point x="185" y="183"/>
      <point x="150" y="100"/>
      <point x="145" y="55" type="curve" smooth="yes"/>
      <point x="140" y="22"/>
      <point x="153" y="-16"/>
      <point x="200" y="-16" type="curve" smooth="yes"/>
      <point x="239" y="-17"/>
      <point x="262" y="23"/>
      <point x="271" y="60" type="curve" smooth="yes"/>
      <point x="324" y="272"/>
      <point x="358" y="425"/>
      <point x="448" y="609" type="curve"/>
      <point x="448" y="700" type="line"/>
    </contour>
  </outline>
</glyph>
<glyph name="nine" format="1">
  <advance width="576"/>
  <unicode hex="0039"/>
  <outline>
    <contour>
      <point x="141" y="716"/>
      <point x="43" y="621"/>
      <point x="43" y="487" type="curve" smooth="yes"/>
      <point x="43" y="351"/>
      <point x="111" y="250"/>
      <point x="258" y="254" type="curve" smooth="yes"/>
      <point x="308" y="256"/>
      <point x="363" y="286"/>
      <point x="384" y="311" type="curve"/>
      <point x="390" y="184"/>
      <point x="353" y="61"/>
      <point x="256" y="55" type="curve" smooth="yes"/>
      <point x="223" y="53"/>
      <point x="198" y="67"/>
      <point x="188" y="83" type="curve"/>
      <point x="197" y="94"/>
      <point x="202" y="115"/>
      <point x="202" y="126" type="curve" smooth="yes"/>
      <point x="202" y="153"/>
      <point x="188" y="189"/>
      <point x="138" y="189" type="curve" smooth="yes"/>
      <point x="97" y="189"/>
      <point x="72" y="151"/>
      <point x="72" y="115" type="curve" smooth="yes"/>
      <point x="72" y="48"/>
      <point x="123" y="-16"/>
      <point x="255" y="-16" type="curve" smooth="yes"/>
      <point x="489" y="-16"/>
      <point x="529" y="229"/>
      <point x="529" y="378" type="curve" smooth="yes"/>
      <point x="529" y="573"/>
      <point x="462" y="716"/>
      <point x="284" y="716" type="curve" smooth="yes"/>
    </contour>
    <contour>
      <point x="361" y="646"/>
      <point x="384" y="528"/>
      <point x="384" y="400" type="curve"/>
      <point x="366" y="364"/>
      <point x="328" y="334"/>
      <point x="286" y="334" type="curve" smooth="yes"/>
      <point x="203" y="334"/>
      <point x="194" y="450"/>
      <point x="194" y="510" type="curve" smooth="yes"/>
      <point x="194" y="579"/>
      <point x="223" y="646"/>
      <point x="283" y="646" type="curve" smooth="yes"/>
    </contour>
  </outline>
</glyph>
<glyph name="less" format="1">
  <advance width="551"/>
  <unicode hex="003C"/>
  <outline>
    <contour>
      <point x="39" y="358" type="line"/>
      <point x="39" y="267" type="line"/>
      <point x="489" y="71" type="line"/>
      <point x="489" y="178" type="line"/>
      <point x="178" y="314" type="line"/>
      <point x="178" y="315" type="line"/>
      <point x="489" y="452" type="line"/>
      <point x="489" y="558" type="line"/>
    </contour>
  </outline>
</glyph>
<glyph name="equal" format="1">
  <advance width="577"/>
  <unicode hex="003D"/>
  <outline>
    <contour>
      <point x="63" y="170" type="line"/>
      <point x="514" y="172" type="line"/>
      <point x="514" y="265" type="line"/>
      <point x="63" y="267" type="line"/>
    </contour>
    <contour>
      <point x="63" y="356" type="line"/>
      <point x="514" y="358" type="line"/>
      <point x="514" y="451" type="line"/>
      <point x="63" y="452" type="line"/>
    </contour>
  </outline>
</glyph>
<glyph name="question" format="1">
  <advance width="503"/>
  <unicode hex="003F"/>
  <outline>
    <contour>
      <point x="125" y="716"/>
      <point x="37" y="639"/>
      <point x="37" y="568" type="curve" smooth="yes"/>
      <point x="37" y="528"/>
      <point x="57" y="499"/>
      <point x="100" y="497" type="curve" smooth="yes"/>
      <point x="148" y="494"/>
      <point x="168" y="539"/>
      <point x="168" y="564" type="curve" smooth="yes"/>
      <point x="168" y="578"/>
      <point x="164" y="601"/>
      <point x="150" y="614" type="curve"/>
      <point x="163" y="629"/>
      <point x="193" y="646"/>
      <point x="226" y="646" type="curve" smooth="yes"/>
      <point x="293" y="646"/>
      <point x="312" y="599"/>
      <point x="312" y="537" type="curve" smooth="yes"/>
      <point x="312" y="461"/>
      <point x="278" y="419"/>
      <point x="231" y="373" type="curve" smooth="yes"/>
      <point x="164" y="306"/>
      <point x="150" y="283"/>
      <point x="150" y="250" type="curve" smooth="yes"/>
      <point x="150" y="200"/>
      <point x="194" y="181"/>
      <point x="237" y="181" type="curve" smooth="yes"/>
      <point x="262" y="181"/>
      <point x="302" y="186"/>
      <point x="335" y="203" type="curve"/>
      <point x="320" y="254" type="line"/>
      <point x="271" y="242"/>
      <point x="250" y="258"/>
      <point x="250" y="280" type="curve" smooth="yes"/>
      <point x="250" y="344"/>
      <point x="458" y="416"/>
      <point x="458" y="557" type="curve" smooth="yes"/>
      <point x="458" y="637"/>
      <point x="404" y="716"/>
      <point x="245" y="716" type="curve" smooth="yes"/>
    </contour>
    <contour>
      <point x="209" y="140"/>
      <point x="175" y="105"/>
      <point x="175" y="62" type="curve" smooth="yes"/>
      <point x="175" y="19"/>
      <point x="208" y="-16"/>
      <point x="247" y="-16" type="curve" smooth="yes"/>
      <point x="285" y="-16"/>
      <point x="320" y="19"/>
      <point x="320" y="62" type="curve" smooth="yes"/>
      <point x="320" y="105"/>
      <point x="289" y="140"/>
      <point x="248" y="140" type="curve" smooth="yes"/>
    </contour>
  </outline>
</glyph>
<glyph name="A" format="1">
  <advance width="668"/>
  <unicode hex="0041"/>
  <outline>
    <contour>
      <point x="295" y="718" type="line"/>
      <point x="100" y="183" type="line" smooth="yes"/>
      <point x="78" y="123"/>
      <point x="60" y="69"/>
      <point x="4" y="69" type="curve"/>
      <point x="4" y="0" type="line"/>
      <point x="218" y="0" type="line"/>
      <point x="218" y="80" type="line"/>
      <point x="204" y="80"/>
      <point x="168" y="79"/>
      <point x="147" y="77" type="curve"/>
      <point x="158" y="100"/>
      <point x="172" y="140"/>
      <point x="179" y="158" type="curve" smooth="yes"/>
      <point x="195" y="205" type="line"/>
      <point x="412" y="209" type="line"/>
      <point x="432" y="154" type="line" smooth="yes"/>
      <point x="451" y="104"/>
      <point x="450" y="66"/>
      <point x="395" y="66" type="curve"/>
      <point x="395" y="0" type="line"/>
      <point x="664" y="0" type="line"/>
      <point x="664" y="77" type="line"/>
      <point x="650" y="77"/>
      <point x="628" y="76"/>
      <point x="606" y="74" type="curve"/>
      <point x="603" y="104"/>
      <point x="586" y="153"/>
      <point x="578" y="173" type="curve" smooth="yes"/>
      <point x="365" y="718" type="line"/>
    </contour>
    <contour>
      <point x="309" y="505"/>
      <point x="324" y="453"/>
      <point x="341" y="405" type="curve" smooth="yes"/>
      <point x="387" y="280" type="line"/>
      <point x="220" y="280" type="line"/>
      <point x="265" y="410" type="line" smooth="yes"/>
      <point x="287" y="472"/>
      <point x="297" y="519"/>
      <point x="302" y="542" type="curve"/>
      <point x="303" y="542" type="line"/>
    </contour>
    <contour>
      <point x="601" y="0" type="move" name="ogonek"/>
    </contour>
    <contour>
      <point x="334" y="700" type="move" name="top"/>
    </contour>
  </outline>
</glyph>
<glyph name="B" format="1">
  <advance width="661"/>
  <unicode hex="0042"/>
  <outline>
    <contour>
      <point x="50" y="700" type="line"/>
      <point x="50" y="623" type="line"/>
      <point x="64" y="624"/>
      <point x="104" y="625"/>
      <point x="125" y="626" type="curve"/>
      <point x="123" y="609"/>
      <point x="121" y="572"/>
      <point x="121" y="536" type="curve" smooth="yes"/>
      <point x="121" y="153" type="line" smooth="yes"/>
      <point x="121" y="72"/>
      <point x="95" y="68"/>
      <point x="50" y="66" type="curve"/>
      <point x="50" y="0" type="line"/>
      <point x="390" y="0" type="line" smooth="yes"/>
      <point x="530" y="0"/>
      <point x="633" y="69"/>
      <point x="633" y="199" type="curve" smooth="yes"/>
      <point x="633" y="282"/>
      <point x="572" y="357"/>
      <point x="439" y="378" type="curve"/>
      <point x="439" y="379" type="line"/>
      <point x="533" y="404"/>
      <point x="579" y="462"/>
      <point x="583" y="520" type="curve" smooth="yes"/>
      <point x="589" y="642"/>
      <point x="487" y="703"/>
      <point x="327" y="702" type="curve" smooth="yes"/>
    </contour>
    <contour>
      <point x="411" y="323"/>
      <point x="476" y="294"/>
      <point x="476" y="202" type="curve" smooth="yes"/>
      <point x="476" y="128"/>
      <point x="440" y="76"/>
      <point x="359" y="72" type="curve" smooth="yes"/>
      <point x="328" y="71"/>
      <point x="297" y="71"/>
      <point x="262" y="71" type="curve"/>
      <point x="264" y="88"/>
      <point x="266" y="123"/>
      <point x="266" y="159" type="curve" smooth="yes"/>
      <point x="266" y="322" type="line"/>
      <point x="292" y="323"/>
      <point x="313" y="323"/>
      <point x="347" y="323" type="curve" smooth="yes"/>
    </contour>
    <contour>
      <point x="375" y="633"/>
      <point x="430" y="607"/>
      <point x="430" y="528" type="curve" smooth="yes"/>
      <point x="430" y="455"/>
      <point x="402" y="396"/>
      <point x="318" y="394" type="curve" smooth="yes"/>
      <point x="266" y="393" type="line"/>
      <point x="266" y="548" type="line" smooth="yes"/>
      <point x="266" y="625"/>
      <point x="292" y="631"/>
      <point x="324" y="632" type="curve" smooth="yes"/>
    </contour>
  </outline>
</glyph>
<glyph name="C" format="1">
  <advance width="688"/>
  <unicode hex="0043"/>
  <outline>
    <contour>
      <point x="152" y="716"/>
      <point x="35" y="522"/>
      <point x="35" y="340" type="curve" smooth="yes"/>
      <point x="35" y="141"/>
      <point x="172" y="-16"/>
      <point x="378" y="-16" type="curve" smooth="yes"/>
      <point x="460" y="-16"/>
      <point x="581" y="9"/>
      <point x="679" y="144" type="curve"/>
      <point x="631" y="188" type="line"/>
      <point x="575" y="111"/>
      <point x="486" y="65"/>
      <point x="402" y="65" type="curve" smooth="yes"/>
      <point x="268" y="65"/>
      <point x="192" y="188"/>
      <point x="192" y="360" type="curve" smooth="yes"/>
      <point x="192" y="504"/>
      <point x="258" y="644"/>
      <point x="398" y="644" type="curve" smooth="yes"/>
      <point x="491" y="643"/>
      <point x="548" y="587"/>
      <point x="566" y="476" type="curve"/>
      <point x="631" y="476" type="line"/>
      <point x="631" y="709" type="line"/>
      <point x="554" y="709" type="line"/>
      <point x="558" y="667" type="line"/>
      <point x="557" y="667" type="line"/>
      <point x="503" y="699"/>
      <point x="437" y="716"/>
      <point x="385" y="716" type="curve" smooth="yes"/>
    </contour>
    <contour>
      <point x="403" y="700" type="move" name="top"/>
    </contour>
    <contour>
      <point x="412" y="0" type="move" name="bottom"/>
    </contour>
  </outline>
</glyph>
<glyph name="D" format="1">
  <advance width="759"/>
  <unicode hex="0044"/>
  <outline>
    <contour>
      <point x="50" y="700" type="line"/>
      <point x="50" y="623" type="line"/>
      <point x="64" y="624"/>
      <point x="104" y="625"/>
      <point x="125" y="626" type="curve"/>
      <point x="123" y="609"/>
      <point x="121" y="572"/>
      <point x="121" y="536" type="curve" smooth="yes"/>
      <point x="121" y="153" type="line" smooth="yes"/>
      <point x="121" y="72"/>
      <point x="95" y="68"/>
      <point x="50" y="66" type="curve"/>
      <point x="50" y="0" type="line"/>
      <point x="336" y="0" type="line" smooth="yes"/>
      <point x="616" y="0"/>
      <point x="724" y="194"/>
      <point x="724" y="357" type="curve" smooth="yes"/>
      <point x="724" y="523"/>
      <point x="605" y="702"/>
      <point x="341" y="701" type="curve" smooth="yes"/>
    </contour>
    <contour>
      <point x="478" y="630"/>
      <point x="566" y="540"/>
      <point x="566" y="336" type="curve" smooth="yes"/>
      <point x="566" y="203"/>
      <point x="503" y="73"/>
      <point x="357" y="73" type="curve" smooth="yes"/>
      <point x="333" y="73"/>
      <point x="281" y="76"/>
      <point x="262" y="74" type="curve"/>
      <point x="264" y="91"/>
      <point x="266" y="128"/>
      <point x="266" y="164" type="curve" smooth="yes"/>
      <point x="266" y="549" type="line" smooth="yes"/>
      <point x="266" y="626"/>
      <point x="290" y="636"/>
      <point x="339" y="634" type="curve" smooth="yes"/>
    </contour>
    <contour>
      <point x="380" y="350" type="move" name="center"/>
    </contour>
    <contour>
      <point x="360" y="700" type="move" name="top"/>
    </contour>
  </outline>
</glyph>
<glyph name="F" format="1">
  <advance width="571"/>
  <unicode hex="0046"/>
  <outline>
    <contour>
      <point x="50" y="700" type="line"/>
      <point x="50" y="623" type="line"/>
      <point x="64" y="624"/>
      <point x="104" y="625"/>
      <point x="125" y="626" type="curve"/>
      <point x="123" y="609"/>
      <point x="121" y="572"/>
      <point x="121" y="536" type="curve" smooth="yes"/>
      <point x="121" y="153" type="line" smooth="yes"/>
      <point x="121" y="72"/>
      <point x="95" y="68"/>
      <point x="50" y="66" type="curve"/>
      <point x="50" y="0" type="line"/>
      <point x="351" y="0" type="line"/>
      <point x="351" y="77" type="line"/>
      <point x="336" y="77"/>
      <point x="283" y="76"/>
      <point x="262" y="74" type="curve"/>
      <point x="264" y="91"/>
      <point x="266" y="128"/>
      <point x="266" y="164" type="curve" smooth="yes"/>
      <point x="266" y="304" type="line"/>
      <point x="278" y="304" type="line" smooth="yes"/>
      <point x="332" y="306"/>
      <point x="376" y="300"/>
      <point x="376" y="216" type="curve"/>
      <point x="442" y="216" type="line"/>
      <point x="442" y="459" type="line"/>
      <point x="365" y="459" type="line"/>
      <point x="366" y="435"/>
      <point x="367" y="400"/>
      <point x="369" y="373" type="curve"/>
      <point x="266" y="373" type="line"/>
      <point x="266" y="547" type="line" smooth="yes"/>
      <point x="266" y="625"/>
      <point x="291" y="633"/>
      <point x="333" y="634" type="curve" smooth="yes"/>
      <point x="369" y="635" type="line" smooth="yes"/>
      <point x="423" y="637"/>
      <point x="490" y="615"/>
      <point x="490" y="506" type="curve"/>
      <point x="556" y="506" type="line"/>
      <point x="550" y="700" type="line"/>
    </contour>
  </outline>
</glyph>
<glyph name="G" format="1">
  <advance width="754"/>
  <unicode hex="0047"/>
  <outline>
    <contour>
      <point x="150" y="716"/>
      <point x="36" y="522"/>
      <point x="36" y="340" type="curve" smooth="yes"/>
      <point x="36" y="141"/>
      <point x="159" y="-16"/>
      <point x="376" y="-16" type="curve" smooth="yes"/>
      <point x="499" y="-16"/>
      <point x="569" y="34"/>
      <point x="646" y="34" type="curve" smooth="yes"/>
      <point x="670" y="34" type="line"/>
      <point x="670" y="194" type="line" smooth="yes"/>
      <point x="670" y="270"/>
      <point x="692" y="279"/>
      <point x="737" y="281" type="curve"/>
      <point x="737" y="347" type="line"/>
      <point x="471" y="347" type="line"/>
      <point x="471" y="270" type="line"/>
      <point x="485" y="271"/>
      <point x="525" y="271"/>
      <point x="546" y="273" type="curve"/>
      <point x="544" y="256"/>
      <point x="542" y="219"/>
      <point x="542" y="183" type="curve" smooth="yes"/>
      <point x="542" y="90" type="line"/>
      <point x="505" y="72"/>
      <point x="439" y="63"/>
      <point x="401" y="63" type="curve" smooth="yes"/>
      <point x="265" y="63"/>
      <point x="192" y="188"/>
      <point x="192" y="360" type="curve" smooth="yes"/>
      <point x="192" y="504"/>
      <point x="257" y="644"/>
      <point x="396" y="644" type="curve" smooth="yes"/>
      <point x="490" y="643"/>
      <point x="564" y="587"/>
      <point x="582" y="476" type="curve"/>
      <point x="647" y="476" type="line"/>
      <point x="647" y="709" type="line"/>
      <point x="570" y="709" type="line"/>
      <point x="574" y="667" type="line"/>
      <point x="573" y="667" type="line"/>
      <point x="520" y="699"/>
      <point x="436" y="716"/>
      <point x="383" y="716" type="curve" smooth="yes"/>
    </contour>
    <contour>
      <point x="387" y="700" type="move" name="top"/>
    </contour>
    <contour>
      <point x="433" y="0" type="move" name="bottom"/>
    </contour>
  </outline>
</glyph>
<glyph name="H" format="1">
  <advance width="807"/>
  <unicode hex="0048"/>
  <outline>
    <contour>
      <point x="470" y="700" type="line"/>
      <point x="470" y="623" type="line"/>
      <point x="484" y="624"/>
      <point x="523" y="625"/>
      <point x="545" y="626" type="curve"/>
      <point x="542" y="609"/>
      <point x="541" y="572"/>
      <point x="541" y="536" type="curve" smooth="yes"/>
      <point x="541" y="391" type="line"/>
      <point x="266" y="391" type="line"/>
      <point x="266" y="547" type="line" smooth="yes"/>
      <point x="266" y="628"/>
      <point x="292" y="632"/>
      <point x="337" y="634" type="curve"/>
      <point x="337" y="700" type="line"/>
      <point x="50" y="700" type="line"/>
      <point x="50" y="623" type="line"/>
      <point x="64" y="624"/>
      <point x="104" y="625"/>
      <point x="125" y="626" type="curve"/>
      <point x="123" y="609"/>
      <point x="121" y="572"/>
      <point x="121" y="536" type="curve" smooth="yes"/>
      <point x="121" y="153" type="line" smooth="yes"/>
      <point x="121" y="72"/>
      <point x="95" y="68"/>
      <point x="50" y="66" type="curve"/>
      <point x="50" y="0" type="line"/>
      <point x="337" y="0" type="line"/>
      <point x="337" y="77" type="line"/>
      <point x="323" y="77"/>
      <point x="283" y="76"/>
      <point x="262" y="74" type="curve"/>
      <point x="264" y="91"/>
      <point x="266" y="128"/>
      <point x="266" y="164" type="curve" smooth="yes"/>
      <point x="266" y="312" type="line"/>
      <point x="541" y="315" type="line"/>
      <point x="541" y="153" type="line" smooth="yes"/>
      <point x="541" y="72"/>
      <point x="515" y="68"/>
      <point x="470" y="66" type="curve"/>
      <point x="470" y="0" type="line"/>
      <point x="757" y="0" type="line"/>
      <point x="757" y="77" type="line"/>
      <point x="743" y="77"/>
      <point x="703" y="76"/>
      <point x="682" y="74" type="curve"/>
      <point x="684" y="91"/>
      <point x="686" y="128"/>
      <point x="686" y="164" type="curve" smooth="yes"/>
      <point x="686" y="547" type="line" smooth="yes"/>
      <point x="686" y="628"/>
      <point x="712" y="632"/>
      <point x="757" y="634" type="curve"/>
      <point x="757" y="700" type="line"/>
    </contour>
    <contour>
      <point x="403" y="350" type="move" name="center"/>
    </contour>
    <contour>
      <point x="403" y="700" type="move" name="top"/>
    </contour>
  </outline>
</glyph>
<glyph name="J" format="1">
  <advance width="451"/>
  <unicode hex="004A"/>
  <outline>
    <contour>
      <point x="137" y="700" type="line"/>
      <point x="137" y="623" type="line"/>
      <point x="151" y="624"/>
      <point x="190" y="625"/>
      <point x="212" y="626" type="curve"/>
      <point x="209" y="609"/>
      <point x="208" y="572"/>
      <point x="208" y="536" type="curve" smooth="yes"/>
      <point x="208" y="135" type="line" smooth="yes"/>
      <point x="208" y="79"/>
      <point x="192" y="56"/>
      <point x="164" y="56" type="curve" smooth="yes"/>
      <point x="157" y="56"/>
      <point x="139" y="59"/>
      <point x="133" y="72" type="curve"/>
      <point x="139" y="84"/>
      <point x="143" y="98"/>
      <point x="142" y="109" type="curve" smooth="yes"/>
      <point x="141" y="143"/>
      <point x="120" y="177"/>
      <point x="70" y="174" type="curve" smooth="yes"/>
      <point x="25" y="172"/>
      <point x="1" y="133"/>
      <point x="1" y="91" type="curve" smooth="yes"/>
      <point x="1" y="29"/>
      <point x="65" y="-16"/>
      <point x="144" y="-16" type="curve" smooth="yes"/>
      <point x="279" y="-16"/>
      <point x="353" y="62"/>
      <point x="353" y="254" type="curve" smooth="yes"/>
      <point x="353" y="547" type="line" smooth="yes"/>
      <point x="353" y="628"/>
      <point x="379" y="632"/>
      <point x="424" y="634" type="curve"/>
      <point x="424" y="700" type="line"/>
    </contour>
    <contour>
      <point x="256" y="700" type="move" name="top"/>
    </contour>
  </outline>
</glyph>
<glyph name="K" format="1">
  <advance width="712"/>
  <unicode hex="004B"/>
  <outline>
    <contour>
      <point x="420" y="700" type="line"/>
      <point x="420" y="623" type="line"/>
      <point x="434" y="624"/>
      <point x="462" y="625"/>
      <point x="483" y="627" type="curve"/>
      <point x="483" y="626" type="line"/>
      <point x="466" y="612"/>
      <point x="438" y="566"/>
      <point x="415" y="526" type="curve" smooth="yes"/>
      <point x="338" y="395" type="line"/>
      <point x="266" y="395" type="line"/>
      <point x="266" y="547" type="line" smooth="yes"/>
      <point x="266" y="628"/>
      <point x="292" y="632"/>
      <point x="337" y="634" type="curve"/>
      <point x="337" y="700" type="line"/>
      <point x="50" y="700" type="line"/>
      <point x="50" y="623" type="line"/>
      <point x="64" y="624"/>
      <point x="104" y="625"/>
      <point x="125" y="626" type="curve"/>
      <point x="123" y="609"/>
      <point x="121" y="572"/>
      <point x="121" y="536" type="curve" smooth="yes"/>
      <point x="121" y="153" type="line" smooth="yes"/>
      <point x="121" y="72"/>
      <point x="95" y="68"/>
      <point x="50" y="66" type="curve"/>
      <point x="50" y="0" type="line"/>
      <point x="337" y="0" type="line"/>
      <point x="337" y="77" type="line"/>
      <point x="323" y="77"/>
      <point x="283" y="76"/>
      <point x="262" y="74" type="curve"/>
      <point x="264" y="91"/>
      <point x="266" y="128"/>
      <point x="266" y="164" type="curve" smooth="yes"/>
      <point x="266" y="315" type="line"/>
      <point x="278" y="315"/>
      <point x="300" y="315"/>
      <point x="302" y="315" type="curve"/>
      <point x="320" y="302"/>
      <point x="342" y="271"/>
      <point x="360" y="246" type="curve"/>
      <point x="459" y="102" type="line" smooth="yes"/>
      <point x="486" y="63"/>
      <point x="541" y="1"/>
      <point x="557" y="0" type="curve"/>
      <point x="711" y="0" type="line"/>
      <point x="711" y="66" type="line"/>
      <point x="666" y="68"/>
      <point x="620" y="117"/>
      <point x="580" y="174" type="curve" smooth="yes"/>
      <point x="477" y="319" type="line" smooth="yes"/>
      <point x="461" y="341"/>
      <point x="440" y="361"/>
      <point x="414" y="377" type="curve"/>
      <point x="414" y="378" type="line"/>
      <point x="510" y="532" type="line" smooth="yes"/>
      <point x="565" y="621"/>
      <point x="620" y="632"/>
      <point x="665" y="634" type="curve"/>
      <point x="665" y="700" type="line"/>
    </contour>
    <contour>
      <point x="371" y="700" type="move" name="top"/>
    </contour>
    <contour>
      <point x="409" y="0" type="move" name="bottom"/>
    </contour>
  </outline>
</glyph>
<glyph name="L" format="1">
  <advance width="604"/>
  <unicode hex="004C"/>
  <outline>
    <contour>
      <point x="50" y="700" type="line"/>
      <point x="50" y="623" type="line"/>
      <point x="64" y="624"/>
      <point x="104" y="625"/>
      <point x="125" y="626" type="curve"/>
      <point x="123" y="609"/>
      <point x="121" y="572"/>
      <point x="121" y="536" type="curve" smooth="yes"/>
      <point x="121" y="153" type="line" smooth="yes"/>
      <point x="121" y="72"/>
      <point x="95" y="68"/>
      <point x="50" y="66" type="curve"/>
      <point x="50" y="0" type="line"/>
      <point x="583" y="0" type="line"/>
      <point x="589" y="240" type="line"/>
      <point x="522" y="240" type="line"/>
      <point x="522" y="131"/>
      <point x="475" y="77"/>
      <point x="396" y="76" type="curve" smooth="yes"/>
      <point x="262" y="76" type="line"/>
      <point x="264" y="93"/>
      <point x="266" y="128"/>
      <point x="266" y="164" type="curve" smooth="yes"/>
      <point x="266" y="547" type="line" smooth="yes"/>
      <point x="266" y="628"/>
      <point x="292" y="632"/>
      <point x="337" y="634" type="curve"/>
      <point x="337" y="700" type="line"/>
    </contour>
    <contour>
      <point x="205" y="700" type="move" name="top"/>
    </contour>
    <contour>
      <point x="348" y="0" type="move" name="bottom"/>
    </contour>
  </outline>
</glyph>
<glyph name="N" format="1">
  <advance width="773"/>
  <unicode hex="004E"/>
  <outline>
    <contour>
      <point x="510" y="700" type="line"/>
      <point x="510" y="623" type="line"/>
      <point x="524" y="624"/>
      <point x="564" y="625"/>
      <point x="585" y="626" type="curve"/>
      <point x="583" y="609"/>
      <point x="582" y="572"/>
      <point x="582" y="536" type="curve" smooth="yes"/>
      <point x="582" y="219" type="line"/>
      <point x="581" y="219" type="line"/>
      <point x="565" y="242"/>
      <point x="544" y="271"/>
      <point x="511" y="314" type="curve" smooth="yes"/>
      <point x="205" y="700" type="line"/>
      <point x="48" y="700" type="line"/>
      <point x="48" y="623" type="line"/>
      <point x="63" y="624"/>
      <point x="102" y="625"/>
      <point x="124" y="626" type="curve"/>
      <point x="121" y="609"/>
      <point x="120" y="572"/>
      <point x="120" y="536" type="curve" smooth="yes"/>
      <point x="122" y="153" type="line" smooth="yes"/>
      <point x="122" y="72"/>
      <point x="96" y="68"/>
      <point x="51" y="66" type="curve"/>
      <point x="51" y="0" type="line"/>
      <point x="279" y="0" type="line"/>
      <point x="279" y="77" type="line"/>
      <point x="265" y="77"/>
      <point x="225" y="76"/>
      <point x="204" y="74" type="curve"/>
      <point x="206" y="91"/>
      <point x="208" y="128"/>
      <point x="208" y="164" type="curve" smooth="yes"/>
      <point x="206" y="474" type="line"/>
      <point x="207" y="474" type="line"/>
      <point x="226" y="447"/>
      <point x="245" y="421"/>
      <point x="262" y="399" type="curve" smooth="yes"/>
      <point x="582" y="-10" type="line"/>
      <point x="667" y="-10" type="line"/>
      <point x="667" y="547" type="line" smooth="yes"/>
      <point x="667" y="628"/>
      <point x="693" y="632"/>
      <point x="738" y="634" type="curve"/>
      <point x="738" y="700" type="line"/>
    </contour>
    <contour>
      <point x="387" y="700" type="move" name="top"/>
    </contour>
    <contour>
      <point x="406" y="0" type="move" name="bottom"/>
    </contour>
  </outline>
</glyph>
<glyph name="P" format="1">
  <advance width="639"/>
  <unicode hex="0050"/>
  <outline>
    <contour>
      <point x="50" y="700" type="line"/>
      <point x="50" y="623" type="line"/>
      <point x="64" y="624"/>
      <point x="104" y="625"/>
      <point x="125" y="626" type="curve"/>
      <point x="123" y="609"/>
      <point x="121" y="572"/>
      <point x="121" y="536" type="curve" smooth="yes"/>
      <point x="121" y="153" type="line" smooth="yes"/>
      <point x="121" y="72"/>
      <point x="95" y="68"/>
      <point x="50" y="66" type="curve"/>
      <point x="50" y="0" type="line"/>
      <point x="347" y="0" type="line"/>
      <point x="347" y="77" type="line"/>
      <point x="333" y="77"/>
      <point x="283" y="76"/>
      <point x="262" y="74" type="curve"/>
      <point x="264" y="91"/>
      <point x="266" y="128"/>
      <point x="266" y="165" type="curve" smooth="yes"/>
      <point x="266" y="253" type="line"/>
      <point x="289" y="252"/>
      <point x="308" y="252"/>
      <point x="338" y="253" type="curve" smooth="yes"/>
      <point x="527" y="259"/>
      <point x="619" y="368"/>
      <point x="622" y="475" type="curve" smooth="yes"/>
      <point x="626" y="634"/>
      <point x="510" y="703"/>
      <point x="334" y="702" type="curve" smooth="yes"/>
    </contour>
    <contour>
      <point x="383" y="632"/>
      <point x="467" y="618"/>
      <point x="467" y="484" type="curve" smooth="yes"/>
      <point x="467" y="382"/>
      <point x="421" y="325"/>
      <point x="311" y="325" type="curve" smooth="yes"/>
      <point x="295" y="325"/>
      <point x="280" y="326"/>
      <point x="266" y="328" type="curve"/>
      <point x="266" y="553" type="line" smooth="yes"/>
      <point x="266" y="623"/>
      <point x="291" y="632"/>
      <point x="333" y="632" type="curve" smooth="yes"/>
    </contour>
  </outline>
</glyph>
<glyph name="S" format="1">
  <advance width="598"/>
  <unicode hex="0053"/>
  <outline>
    <contour>
      <point x="100" y="716"/>
      <point x="43" y="608"/>
      <point x="43" y="525" type="curve" smooth="yes"/>
      <point x="43" y="394"/>
      <point x="141" y="330"/>
      <point x="270" y="278" type="curve" smooth="yes"/>
      <point x="345" y="248"/>
      <point x="430" y="220"/>
      <point x="430" y="150" type="curve" smooth="yes"/>
      <point x="430" y="99"/>
      <point x="381" y="56"/>
      <point x="310" y="56" type="curve" smooth="yes"/>
      <point x="216" y="56"/>
      <point x="143" y="113"/>
      <point x="125" y="225" type="curve"/>
      <point x="59" y="225" type="line"/>
      <point x="59" y="-9" type="line"/>
      <point x="136" y="-9" type="line"/>
      <point x="133" y="33" type="line"/>
      <point x="134" y="33" type="line"/>
      <point x="187" y="1"/>
      <point x="254" y="-16"/>
      <point x="307" y="-16" type="curve" smooth="yes"/>
      <point x="461" y="-16"/>
      <point x="563" y="67"/>
      <point x="563" y="186" type="curve" smooth="yes"/>
      <point x="563" y="316"/>
      <point x="436" y="378"/>
      <point x="335" y="418" type="curve" smooth="yes"/>
      <point x="225" y="463"/>
      <point x="173" y="496"/>
      <point x="173" y="558" type="curve" smooth="yes"/>
      <point x="173" y="608"/>
      <point x="224" y="644"/>
      <point x="281" y="644" type="curve" smooth="yes"/>
      <point x="374" y="645"/>
      <point x="436" y="587"/>
      <point x="454" y="476" type="curve"/>
      <point x="520" y="476" type="line"/>
      <point x="520" y="709" type="line"/>
      <point x="442" y="709" type="line"/>
      <point x="446" y="668" type="line"/>
      <point x="445" y="668" type="line"/>
      <point x="401" y="700"/>
      <point x="330" y="716"/>
      <point x="277" y="716" type="curve" smooth="yes"/>
    </contour>
    <contour>
      <point x="299" y="700" type="move" name="top"/>
    </contour>
    <contour>
      <point x="313" y="0" type="move" name="bottom"/>
    </contour>
  </outline>
</glyph>
<glyph name="T" format="1">
  <advance width="650"/>
  <unicode hex="0054"/>
  <outline>
    <contour>
      <point x="21" y="700" type="line"/>
      <point x="16" y="474" type="line"/>
      <point x="82" y="474" type="line"/>
      <point x="82" y="582"/>
      <point x="129" y="631"/>
      <point x="205" y="632" type="curve" smooth="yes"/>
      <point x="251" y="632" type="line"/>
      <point x="251" y="153" type="line" smooth="yes"/>
      <point x="251" y="72"/>
      <point x="225" y="68"/>
      <point x="180" y="66" type="curve"/>
      <point x="180" y="0" type="line"/>
      <point x="472" y="0" type="line"/>
      <point x="472" y="77" type="line"/>
      <point x="458" y="77"/>
      <point x="414" y="76"/>
      <point x="392" y="74" type="curve"/>
      <point x="395" y="91"/>
      <point x="396" y="128"/>
      <point x="396" y="164" type="curve" smooth="yes"/>
      <point x="396" y="633" type="line"/>
      <point x="444" y="633" type="line" smooth="yes"/>
      <point x="520" y="634"/>
      <point x="567" y="582"/>
      <point x="567" y="474" type="curve"/>
      <point x="633" y="474" type="line"/>
      <point x="627" y="700" type="line"/>
    </contour>
    <contour>
      <point x="325" y="350" type="move" name="center"/>
    </contour>
    <contour>
      <point x="321" y="0" type="move" name="bottom"/>
    </contour>
    <contour>
      <point x="325" y="700" type="move" name="top"/>
    </contour>
  </outline>
</glyph>
<glyph name="U" format="1">
  <advance width="760"/>
  <unicode hex="0055"/>
  <outline>
    <contour>
      <point x="504" y="700" type="line"/>
      <point x="504" y="623" type="line"/>
      <point x="519" y="624"/>
      <point x="558" y="625"/>
      <point x="580" y="626" type="curve"/>
      <point x="577" y="609"/>
      <point x="576" y="572"/>
      <point x="576" y="536" type="curve" smooth="yes"/>
      <point x="576" y="274" type="line" smooth="yes"/>
      <point x="576" y="126"/>
      <point x="511" y="56"/>
      <point x="401" y="60" type="curve" smooth="yes"/>
      <point x="320" y="63"/>
      <point x="242" y="105"/>
      <point x="242" y="272" type="curve" smooth="yes"/>
      <point x="242" y="547" type="line" smooth="yes"/>
      <point x="242" y="628"/>
      <point x="269" y="632"/>
      <point x="313" y="634" type="curve"/>
      <point x="313" y="700" type="line"/>
      <point x="26" y="700" type="line"/>
      <point x="26" y="623" type="line"/>
      <point x="40" y="624"/>
      <point x="80" y="625"/>
      <point x="101" y="626" type="curve"/>
      <point x="99" y="609"/>
      <point x="97" y="572"/>
      <point x="97" y="536" type="curve" smooth="yes"/>
      <point x="97" y="294" type="line" smooth="yes"/>
      <point x="97" y="123"/>
      <point x="160" y="-16"/>
      <point x="385" y="-16" type="curve" smooth="yes"/>
      <point x="545" y="-16"/>
      <point x="665" y="67"/>
      <point x="665" y="297" type="curve" smooth="yes"/>
      <point x="665" y="547" type="line" smooth="yes"/>
      <point x="665" y="628"/>
      <point x="691" y="632"/>
      <point x="736" y="634" type="curve"/>
      <point x="736" y="700" type="line"/>
    </contour>
    <contour>
      <point x="509" y="5" type="move" name="ogonek"/>
    </contour>
    <contour>
      <point x="385" y="700" type="move" name="top"/>
    </contour>
  </outline>
</glyph>
<glyph name="W" format="1">
  <advance width="1016"/>
  <unicode hex="0057"/>
  <outline>
    <contour>
      <point x="792" y="700" type="line"/>
      <point x="792" y="623" type="line"/>
      <point x="806" y="624"/>
      <point x="847" y="625"/>
      <point x="869" y="627" type="curve"/>
      <point x="869" y="626" type="line"/>
      <point x="849" y="604"/>
      <point x="836" y="567"/>
      <point x="828" y="535" type="curve" smooth="yes"/>
      <point x="772" y="326" type="line" smooth="yes"/>
      <point x="759" y="277"/>
      <point x="746" y="231"/>
      <point x="734" y="188" type="curve"/>
      <point x="733" y="188" type="line"/>
      <point x="722" y="237"/>
      <point x="711" y="286"/>
      <point x="697" y="332" type="curve" smooth="yes"/>
      <point x="583" y="700" type="line"/>
      <point x="493" y="700" type="line"/>
      <point x="400" y="394" type="line" smooth="yes"/>
      <point x="392" y="365"/>
      <point x="353" y="226"/>
      <point x="343" y="189" type="curve"/>
      <point x="342" y="189" type="line"/>
      <point x="330" y="253"/>
      <point x="321" y="285"/>
      <point x="309" y="331" type="curve" smooth="yes"/>
      <point x="249" y="559" type="line" smooth="yes"/>
      <point x="231" y="620"/>
      <point x="258" y="635"/>
      <point x="308" y="634" type="curve"/>
      <point x="308" y="700" type="line"/>
      <point x="13" y="700" type="line"/>
      <point x="13" y="623" type="line"/>
      <point x="27" y="624"/>
      <point x="45" y="625"/>
      <point x="66" y="626" type="curve"/>
      <point x="66" y="604"/>
      <point x="81" y="566"/>
      <point x="95" y="533" type="curve"/>
      <point x="273" y="-6" type="line"/>
      <point x="360" y="-6" type="line"/>
      <point x="474" y="369" type="line" smooth="yes"/>
      <point x="487" y="414"/>
      <point x="496" y="454"/>
      <point x="503" y="500" type="curve"/>
      <point x="504" y="500" type="line"/>
      <point x="514" y="454"/>
      <point x="523" y="404"/>
      <point x="541" y="352" type="curve" smooth="yes"/>
      <point x="659" y="-6" type="line"/>
      <point x="748" y="-6" type="line"/>
      <point x="911" y="527" type="line" smooth="yes"/>
      <point x="937" y="605"/>
      <point x="972" y="632"/>
      <point x="1017" y="634" type="curve"/>
      <point x="1017" y="700" type="line"/>
    </contour>
    <contour>
      <point x="529" y="700" type="move" name="top"/>
    </contour>
  </outline>
</glyph>
<glyph name="X" format="1">
  <advance width="699"/>
  <unicode hex="0058"/>
  <outline>
    <contour>
      <point x="424" y="700" type="line"/>
      <point x="424" y="623" type="line"/>
      <point x="438" y="624"/>
      <point x="477" y="625"/>
      <point x="499" y="627" type="curve"/>
      <point x="499" y="626" type="line"/>
      <point x="481" y="610"/>
      <point x="468" y="596"/>
      <point x="440" y="558" type="curve" smooth="yes"/>
      <point x="364" y="453" type="line"/>
      <point x="363" y="453" type="line"/>
      <point x="275" y="566" type="line" smooth="yes"/>
      <point x="245" y="604"/>
      <point x="245" y="634"/>
      <point x="318" y="634" type="curve"/>
      <point x="318" y="700" type="line"/>
      <point x="14" y="700" type="line"/>
      <point x="14" y="623" type="line"/>
      <point x="28" y="624"/>
      <point x="42" y="625"/>
      <point x="64" y="626" type="curve"/>
      <point x="74" y="597"/>
      <point x="92" y="560"/>
      <point x="114" y="532" type="curve" smooth="yes"/>
      <point x="275" y="328" type="line"/>
      <point x="159" y="173" type="line" smooth="yes"/>
      <point x="110" y="107"/>
      <point x="73" y="75"/>
      <point x="35" y="66" type="curve"/>
      <point x="35" y="0" type="line"/>
      <point x="255" y="0" type="line"/>
      <point x="255" y="77" type="line"/>
      <point x="241" y="77"/>
      <point x="206" y="75"/>
      <point x="184" y="73" type="curve"/>
      <point x="184" y="74" type="line"/>
      <point x="200" y="90"/>
      <point x="211" y="104"/>
      <point x="239" y="142" type="curve" smooth="yes"/>
      <point x="327" y="263" type="line"/>
      <point x="328" y="263" type="line"/>
      <point x="429" y="134" type="line" smooth="yes"/>
      <point x="459" y="96"/>
      <point x="469" y="66"/>
      <point x="396" y="66" type="curve"/>
      <point x="396" y="0" type="line"/>
      <point x="695" y="0" type="line"/>
      <point x="695" y="77" type="line"/>
      <point x="681" y="77"/>
      <point x="676" y="76"/>
      <point x="654" y="74" type="curve"/>
      <point x="644" y="96"/>
      <point x="625" y="122"/>
      <point x="602" y="150" type="curve" smooth="yes"/>
      <point x="414" y="390" type="line"/>
      <point x="510" y="521" type="line" smooth="yes"/>
      <point x="563" y="594"/>
      <point x="605" y="628"/>
      <point x="651" y="634" type="curve"/>
      <point x="651" y="700" type="line"/>
    </contour>
  </outline>
</glyph>
<glyph name="Y" format="1">
  <advance width="667"/>
  <unicode hex="0059"/>
  <outline>
    <contour>
      <point x="442" y="700" type="line"/>
      <point x="442" y="623" type="line"/>
      <point x="456" y="624"/>
      <point x="497" y="625"/>
      <point x="519" y="627" type="curve"/>
      <point x="519" y="626" type="line"/>
      <point x="501" y="605"/>
      <point x="476" y="556"/>
      <point x="466" y="535" type="curve" smooth="yes"/>
      <point x="414" y="433" type="line" smooth="yes"/>
      <point x="390" y="382"/>
      <point x="374" y="351"/>
      <point x="367" y="335" type="curve"/>
      <point x="366" y="335" type="line"/>
      <point x="355" y="364"/>
      <point x="324" y="416"/>
      <point x="315" y="432" type="curve" smooth="yes"/>
      <point x="239" y="557" type="line" smooth="yes"/>
      <point x="207" y="612"/>
      <point x="240" y="638"/>
      <point x="298" y="634" type="curve"/>
      <point x="298" y="700" type="line"/>
      <point x="3" y="700" type="line"/>
      <point x="3" y="623" type="line"/>
      <point x="18" y="624"/>
      <point x="30" y="625"/>
      <point x="52" y="626" type="curve"/>
      <point x="52" y="604"/>
      <point x="71" y="562"/>
      <point x="90" y="531" type="curve" smooth="yes"/>
      <point x="274" y="240" type="line"/>
      <point x="274" y="153" type="line" smooth="yes"/>
      <point x="274" y="72"/>
      <point x="248" y="68"/>
      <point x="203" y="66" type="curve"/>
      <point x="203" y="0" type="line"/>
      <point x="495" y="0" type="line"/>
      <point x="495" y="77" type="line"/>
      <point x="481" y="77"/>
      <point x="437" y="76"/>
      <point x="415" y="74" type="curve"/>
      <point x="417" y="91"/>
      <point x="419" y="128"/>
      <point x="419" y="164" type="curve" smooth="yes"/>
      <point x="419" y="277" type="line"/>
      <point x="549" y="527" type="line" smooth="yes"/>
      <point x="588" y="600"/>
      <point x="616" y="627"/>
      <point x="663" y="634" type="curve"/>
      <point x="663" y="700" type="line"/>
    </contour>
    <contour>
      <point x="345" y="700" type="move" name="top"/>
    </contour>
  </outline>
</glyph>
<glyph name="bracketleft" format="1">
  <advance width="386"/>
  <unicode hex="005B"/>
  <outline>
    <contour>
      <point x="63" y="755" type="line"/>
      <point x="62" y="-255" type="line"/>
      <point x="385" y="-255" type="line"/>
      <point x="385" y="-184" type="line"/>
      <point x="188" y="-181" type="line"/>
      <point x="192" y="681" type="line"/>
      <point x="383" y="684" type="line"/>
      <point x="383" y="755" type="line"/>
    </contour>
  </outline>
</glyph>
<glyph name="asciicircum" format="1">
  <advance width="823"/>
  <unicode hex="005E"/>
  <outline>
    <contour>
      <point x="368" y="716" type="line"/>
      <point x="60" y="441" type="line"/>
      <point x="191" y="441" type="line"/>
      <point x="408" y="643" type="line"/>
      <point x="409" y="643" type="line"/>
      <point x="626" y="437" type="line"/>
      <point x="763" y="437" type="line"/>
      <point x="457" y="716" type="line"/>
    </contour>
  </outline>
</glyph>
<glyph name="grave" format="1">
  <advance width="282"/>
  <unicode hex="0060"/>
  <outline>
    <contour>
      <point x="31" y="741"/>
      <point x="44" y="696"/>
      <point x="71" y="671" type="curve" smooth="yes"/>
      <point x="192" y="565" type="line"/>
      <point x="238" y="606" type="line"/>
      <point x="156" y="746" type="line" smooth="yes"/>
      <point x="135" y="779"/>
      <point x="94" y="795"/>
      <point x="63" y="770" type="curve" smooth="yes"/>
    </contour>
    <contour>
      <point x="141" y="500" type="move" name="_top"/>
    </contour>
  </outline>
</glyph>
<glyph name="b" format="1">
  <advance width="553"/>
  <unicode hex="0062"/>
  <outline>
    <contour>
      <point x="144" y="686" type="line"/>
      <point x="131" y="675"/>
      <point x="85" y="659"/>
      <point x="-4" y="659" type="curve"/>
      <point x="-4" y="590" type="line"/>
      <point x="9" y="591"/>
      <point x="43" y="592"/>
      <point x="63" y="593" type="curve"/>
      <point x="60" y="566"/>
      <point x="60" y="535"/>
      <point x="60" y="514" type="curve" smooth="yes"/>
      <point x="60" y="0" type="line"/>
      <point x="118" y="0" type="line"/>
      <point x="146" y="40" type="line"/>
      <point x="147" y="40" type="line"/>
      <point x="192" y="-5"/>
      <point x="252" y="-15"/>
      <point x="287" y="-15" type="curve" smooth="yes"/>
      <point x="432" y="-15"/>
      <point x="521" y="93"/>
      <point x="521" y="239" type="curve" smooth="yes"/>
      <point x="521" y="379"/>
      <point x="442" y="469"/>
      <point x="326" y="469" type="curve" smooth="yes"/>
      <point x="286" y="469"/>
      <point x="239" y="456"/>
      <point x="196" y="420" type="curve"/>
      <point x="196" y="686" type="line"/>
    </contour>
    <contour>
      <point x="348" y="389"/>
      <point x="379" y="308"/>
      <point x="379" y="225" type="curve" smooth="yes"/>
      <point x="379" y="135"/>
      <point x="353" y="49"/>
      <point x="266" y="52" type="curve" smooth="yes"/>
      <point x="233" y="53"/>
      <point x="196" y="75"/>
      <point x="196" y="136" type="curve" smooth="yes"/>
      <point x="196" y="348" type="line"/>
      <point x="213" y="371"/>
      <point x="242" y="386"/>
      <point x="274" y="387" type="curve" smooth="yes"/>
    </contour>
  </outline>
</glyph>
<glyph name="c" format="1">
  <advance width="518"/>
  <unicode hex="0063"/>
  <outline>
    <contour>
      <point x="137" y="516"/>
      <point x="31" y="390"/>
      <point x="31" y="239" type="curve" smooth="yes"/>
      <point x="31" y="77"/>
      <point x="142" y="-16"/>
      <point x="277" y="-16" type="curve" smooth="yes"/>
      <point x="350" y="-16"/>
      <point x="432" y="5"/>
      <point x="505" y="105" type="curve"/>
      <point x="459" y="150" type="line"/>
      <point x="422" y="102"/>
      <point x="365" y="71"/>
      <point x="309" y="73" type="curve" smooth="yes"/>
      <point x="211" y="77"/>
      <point x="177" y="168"/>
      <point x="177" y="268" type="curve" smooth="yes"/>
      <point x="177" y="381"/>
      <point x="223" y="442"/>
      <point x="287" y="446" type="curve" smooth="yes"/>
      <point x="305" y="447"/>
      <point x="345" y="442"/>
      <point x="360" y="413" type="curve" smooth="yes"/>
      <point x="352" y="399"/>
      <point x="348" y="381"/>
      <point x="348" y="369" type="curve" smooth="yes"/>
      <point x="348" y="341"/>
      <point x="365" y="303"/>
      <point x="416" y="304" type="curve" smooth="yes"/>
      <point x="459" y="305"/>
      <point x="483" y="340"/>
      <point x="483" y="379" type="curve" smooth="yes"/>
      <point x="483" y="449"/>
      <point x="418" y="516"/>
      <point x="291" y="516" type="curve" smooth="yes"/>
    </contour>
    <contour>
      <point x="300" y="500" type="move" name="top"/>
    </contour>
    <contour>
      <point x="313" y="0" type="move" name="bottom"/>
    </contour>
  </outline>
</glyph>
<glyph name="e" format="1">
  <advance width="538"/>
  <unicode hex="0065"/>
  <outline>
    <contour>
      <point x="130" y="516"/>
      <point x="31" y="389"/>
      <point x="31" y="249" type="curve" smooth="yes"/>
      <point x="31" y="87"/>
      <point x="131" y="-16"/>
      <point x="278" y="-16" type="curve" smooth="yes"/>
      <point x="346" y="-16"/>
      <point x="439" y="3"/>
      <point x="511" y="106" type="curve"/>
      <point x="466" y="148" type="line"/>
      <point x="420" y="92"/>
      <point x="359" y="73"/>
      <point x="319" y="73" type="curve" smooth="yes"/>
      <point x="215" y="73"/>
      <point x="178" y="154"/>
      <point x="178" y="263" type="curve"/>
      <point x="506" y="269" type="line"/>
      <point x="508" y="462"/>
      <point x="392" y="516"/>
      <point x="281" y="516" type="curve" smooth="yes"/>
    </contour>
    <contour>
      <point x="333" y="446"/>
      <point x="366" y="416"/>
      <point x="368" y="333" type="curve"/>
      <point x="184" y="333" type="line"/>
      <point x="194" y="400"/>
      <point x="227" y="446"/>
      <point x="286" y="446" type="curve" smooth="yes"/>
    </contour>
    <contour>
      <point x="394" y="5" type="move" name="ogonek"/>
    </contour>
    <contour>
      <point x="337" y="0" type="move" name="bottom"/>
    </contour>
    <contour>
      <point x="284" y="500" type="move" name="top"/>
    </contour>
  </outline>
</glyph>
<glyph name="f" format="1">
  <advance width="354"/>
  <unicode hex="0066"/>
  <outline>
    <contour>
      <point x="173" y="686"/>
      <point x="100" y="627"/>
      <point x="100" y="481" type="curve" smooth="yes"/>
      <point x="100" y="455" type="line"/>
      <point x="30" y="455" type="line"/>
      <point x="30" y="379" type="line"/>
      <point x="100" y="380" type="line"/>
      <point x="100" y="140" type="line" smooth="yes"/>
      <point x="100" y="92"/>
      <point x="96" y="59"/>
      <point x="42" y="59" type="curve"/>
      <point x="42" y="0" type="line"/>
      <point x="299" y="0" type="line"/>
      <point x="299" y="69" type="line"/>
      <point x="286" y="69"/>
      <point x="253" y="68"/>
      <point x="232" y="66" type="curve"/>
      <point x="235" y="94"/>
      <point x="236" y="131"/>
      <point x="236" y="148" type="curve" smooth="yes"/>
      <point x="235" y="382" type="line"/>
      <point x="342" y="385" type="line"/>
      <point x="342" y="455" type="line"/>
      <point x="234" y="455" type="line"/>
      <point x="234" y="566" type="line" smooth="yes"/>
      <point x="234" y="593"/>
      <point x="241" y="622"/>
      <point x="272" y="623" type="curve" smooth="yes"/>
      <point x="278" y="623"/>
      <point x="288" y="622"/>
      <point x="294" y="615" type="curve"/>
      <point x="285" y="575"/>
      <point x="307" y="545"/>
      <point x="351" y="545" type="curve" smooth="yes"/>
      <point x="390" y="546"/>
      <point x="411" y="575"/>
      <point x="411" y="606" type="curve" smooth="yes"/>
      <point x="411" y="644"/>
      <point x="379" y="686"/>
      <point x="289" y="686" type="curve" smooth="yes"/>
    </contour>
  </outline>
</glyph>
<glyph name="h" format="1">
  <advance width="599"/>
  <unicode hex="0068"/>
  <outline>
    <contour>
      <point x="166" y="686" type="line"/>
      <point x="153" y="675"/>
      <point x="107" y="659"/>
      <point x="18" y="659" type="curve"/>
      <point x="18" y="590" type="line"/>
      <point x="31" y="591"/>
      <point x="65" y="592"/>
      <point x="85" y="593" type="curve"/>
      <point x="82" y="566"/>
      <point x="81" y="535"/>
      <point x="81" y="514" type="curve" smooth="yes"/>
      <point x="81" y="140" type="line" smooth="yes"/>
      <point x="81" y="92"/>
      <point x="79" y="59"/>
      <point x="25" y="59" type="curve"/>
      <point x="25" y="0" type="line"/>
      <point x="277" y="0" type="line"/>
      <point x="277" y="69" type="line"/>
      <point x="263" y="69"/>
      <point x="235" y="68"/>
      <point x="214" y="66" type="curve"/>
      <point x="217" y="94"/>
      <point x="218" y="129"/>
      <point x="218" y="146" type="curve" smooth="yes"/>
      <point x="218" y="352" type="line"/>
      <point x="239" y="370"/>
      <point x="274" y="385"/>
      <point x="306" y="385" type="curve" smooth="yes"/>
      <point x="360" y="385"/>
      <point x="384" y="348"/>
      <point x="384" y="269" type="curve" smooth="yes"/>
      <point x="385" y="140" type="line" smooth="yes"/>
      <point x="385" y="92"/>
      <point x="381" y="59"/>
      <point x="327" y="59" type="curve"/>
      <point x="327" y="0" type="line"/>
      <point x="580" y="0" type="line"/>
      <point x="580" y="69" type="line"/>
      <point x="566" y="69"/>
      <point x="538" y="68"/>
      <point x="518" y="66" type="curve"/>
      <point x="520" y="94"/>
      <point x="521" y="129"/>
      <point x="521" y="146" type="curve" smooth="yes"/>
      <point x="521" y="268" type="line" smooth="yes"/>
      <point x="520" y="408"/>
      <point x="476" y="469"/>
      <point x="359" y="469" type="curve" smooth="yes"/>
      <point x="319" y="469"/>
      <point x="256" y="446"/>
      <point x="218" y="418" type="curve"/>
      <point x="218" y="686" type="line"/>
    </contour>
    <contour>
      <point x="300" y="228" type="move" name="center"/>
    </contour>
    <contour>
      <point x="164" y="640" type="move" name="top"/>
    </contour>
  </outline>
</glyph>
<glyph name="i" format="1">
  <advance width="327"/>
  <unicode hex="0069"/>
  <outline>
    <contour>
      <point x="188" y="510" type="line"/>
      <point x="174" y="497"/>
      <point x="126" y="480"/>
      <point x="34" y="480" type="curve"/>
      <point x="34" y="404" type="line"/>
      <point x="48" y="405"/>
      <point x="83" y="406"/>
      <point x="104" y="407" type="curve"/>
      <point x="101" y="377"/>
      <point x="100" y="344"/>
      <point x="100" y="320" type="curve" smooth="yes"/>
      <point x="100" y="154" type="line" smooth="yes"/>
      <point x="100" y="101"/>
      <point x="96" y="65"/>
      <point x="41" y="65" type="curve"/>
      <point x="41" y="0" type="line"/>
      <point x="303" y="0" type="line"/>
      <point x="303" y="76" type="line"/>
      <point x="289" y="76"/>
      <point x="259" y="75"/>
      <point x="238" y="73" type="curve"/>
      <point x="241" y="103"/>
      <point x="242" y="142"/>
      <point x="242" y="161" type="curve" smooth="yes"/>
      <point x="242" y="510" type="line"/>
    </contour>
    <contour>
      <point x="140" y="763"/>
      <point x="104" y="726"/>
      <point x="104" y="680" type="curve" smooth="yes"/>
      <point x="104" y="635"/>
      <point x="136" y="599"/>
      <point x="182" y="599" type="curve" smooth="yes"/>
      <point x="227" y="599"/>
      <point x="256" y="635"/>
      <point x="256" y="680" type="curve" smooth="yes"/>
      <point x="256" y="726"/>
      <point x="224" y="763"/>
      <point x="181" y="763" type="curve" smooth="yes"/>
    </contour>
  </outline>
</glyph>
<glyph name="k" format="1">
  <advance width="594"/>
  <unicode hex="006B"/>
  <outline>
    <contour>
      <point x="172" y="755" type="line"/>
      <point x="159" y="742"/>
      <point x="111" y="725"/>
      <point x="19" y="725" type="curve"/>
      <point x="19" y="649" type="line"/>
      <point x="33" y="650"/>
      <point x="67" y="651"/>
      <point x="89" y="652" type="curve"/>
      <point x="86" y="623"/>
      <point x="85" y="589"/>
      <point x="85" y="565" type="curve" smooth="yes"/>
      <point x="85" y="154" type="line" smooth="yes"/>
      <point x="85" y="101"/>
      <point x="81" y="65"/>
      <point x="25" y="65" type="curve"/>
      <point x="25" y="0" type="line"/>
      <point x="288" y="0" type="line"/>
      <point x="288" y="76" type="line"/>
      <point x="273" y="76"/>
      <point x="244" y="75"/>
      <point x="223" y="73" type="curve"/>
      <point x="226" y="103"/>
      <point x="227" y="142"/>
      <point x="227" y="161" type="curve" smooth="yes"/>
      <point x="227" y="228" type="line"/>
      <point x="250" y="229" type="line"/>
      <point x="270" y="201"/>
      <point x="314" y="135"/>
      <point x="350" y="87" type="curve" smooth="yes"/>
      <point x="391" y="31"/>
      <point x="418" y="0"/>
      <point x="461" y="0" type="curve" smooth="yes"/>
      <point x="576" y="0" type="line"/>
      <point x="576" y="65" type="line"/>
      <point x="535" y="65"/>
      <point x="500" y="115"/>
      <point x="484" y="135" type="curve" smooth="yes"/>
      <point x="417" y="223" type="line" smooth="yes"/>
      <point x="389" y="260"/>
      <point x="372" y="275"/>
      <point x="352" y="285" type="curve"/>
      <point x="352" y="286" type="line"/>
      <point x="416" y="357" type="line" smooth="yes"/>
      <point x="444" y="389"/>
      <point x="487" y="428"/>
      <point x="558" y="436" type="curve"/>
      <point x="558" y="500" type="line"/>
      <point x="333" y="500" type="line"/>
      <point x="333" y="424" type="line"/>
      <point x="386" y="425" type="line"/>
      <point x="386" y="424" type="line"/>
      <point x="374" y="413"/>
      <point x="364" y="401"/>
      <point x="347" y="382" type="curve" smooth="yes"/>
      <point x="275" y="299" type="line"/>
      <point x="227" y="299" type="line"/>
      <point x="227" y="755" type="line"/>
    </contour>
    <contour>
      <point x="338" y="0" type="move" name="bottom"/>
    </contour>
  </outline>
</glyph>
<glyph name="l" format="1">
  <advance width="302"/>
  <unicode hex="006C"/>
  <outline>
    <contour>
      <point x="166" y="686" type="line"/>
      <point x="153" y="675"/>
      <point x="108" y="659"/>
      <point x="18" y="659" type="curve"/>
      <point x="18" y="590" type="line"/>
      <point x="32" y="591"/>
      <point x="65" y="592"/>
      <point x="86" y="593" type="curve"/>
      <point x="83" y="566"/>
      <point x="82" y="535"/>
      <point x="82" y="514" type="curve" smooth="yes"/>
      <point x="82" y="140" type="line" smooth="yes"/>
      <point x="82" y="92"/>
      <point x="79" y="59"/>
      <point x="25" y="59" type="curve"/>
      <point x="25" y="0" type="line"/>
      <point x="277" y="0" type="line"/>
      <point x="277" y="69" type="line"/>
      <point x="264" y="69"/>
      <point x="236" y="68"/>
      <point x="215" y="66" type="curve"/>
      <point x="217" y="94"/>
      <point x="218" y="129"/>
      <point x="218" y="146" type="curve" smooth="yes"/>
      <point x="218" y="686" type="line"/>
    </contour>
    <contour>
      <point x="151" y="636" type="move" name="top"/>
    </contour>
    <contour>
      <point x="188" y="0" type="move" name="bottom"/>
    </contour>
    <contour>
      <point x="292" y="455" type="move" name="topright"/>
    </contour>
  </outline>
</glyph>
<glyph name="m" format="1">
  <advance width="920"/>
  <unicode hex="006D"/>
  <outline>
    <contour>
      <point x="623" y="516"/>
      <point x="561" y="490"/>
      <point x="513" y="450" type="curve"/>
      <point x="489" y="494"/>
      <point x="450" y="516"/>
      <point x="389" y="516" type="curve" smooth="yes"/>
      <point x="337" y="516"/>
      <point x="282" y="491"/>
      <point x="243" y="460" type="curve"/>
      <point x="241" y="460" type="line"/>
      <point x="240" y="473"/>
      <point x="239" y="496"/>
      <point x="237" y="510" type="curve"/>
      <point x="188" y="510" type="line"/>
      <point x="174" y="497"/>
      <point x="126" y="480"/>
      <point x="34" y="480" type="curve"/>
      <point x="34" y="404" type="line"/>
      <point x="48" y="405"/>
      <point x="83" y="406"/>
      <point x="104" y="407" type="curve"/>
      <point x="101" y="377"/>
      <point x="100" y="346"/>
      <point x="100" y="322" type="curve" smooth="yes"/>
      <point x="100" y="154" type="line" smooth="yes"/>
      <point x="100" y="101"/>
      <point x="96" y="65"/>
      <point x="41" y="65" type="curve"/>
      <point x="41" y="0" type="line"/>
      <point x="298" y="0" type="line"/>
      <point x="298" y="76" type="line"/>
      <point x="284" y="76"/>
      <point x="259" y="75"/>
      <point x="238" y="73" type="curve"/>
      <point x="241" y="103"/>
      <point x="242" y="142"/>
      <point x="242" y="161" type="curve" smooth="yes"/>
      <point x="242" y="387" type="line"/>
      <point x="264" y="407"/>
      <point x="294" y="424"/>
      <point x="327" y="424" type="curve" smooth="yes"/>
      <point x="372" y="423"/>
      <point x="399" y="397"/>
      <point x="399" y="310" type="curve" smooth="yes"/>
      <point x="400" y="154" type="line" smooth="yes"/>
      <point x="400" y="101"/>
      <point x="396" y="65"/>
      <point x="345" y="65" type="curve"/>
      <point x="345" y="0" type="line"/>
      <point x="603" y="0" type="line"/>
      <point x="603" y="76" type="line"/>
      <point x="588" y="76"/>
      <point x="559" y="75"/>
      <point x="538" y="73" type="curve"/>
      <point x="541" y="103"/>
      <point x="542" y="142"/>
      <point x="542" y="161" type="curve" smooth="yes"/>
      <point x="542" y="295" type="line" smooth="yes"/>
      <point x="542" y="331"/>
      <point x="539" y="363"/>
      <point x="533" y="390" type="curve"/>
      <point x="557" y="409"/>
      <point x="587" y="424"/>
      <point x="622" y="423" type="curve" smooth="yes"/>
      <point x="667" y="421"/>
      <point x="697" y="394"/>
      <point x="698" y="307" type="curve" smooth="yes"/>
      <point x="698" y="154" type="line" smooth="yes"/>
      <point x="698" y="101"/>
      <point x="694" y="65"/>
      <point x="648" y="65" type="curve"/>
      <point x="648" y="0" type="line"/>
      <point x="901" y="0" type="line"/>
      <point x="901" y="76" type="line"/>
      <point x="887" y="76"/>
      <point x="857" y="75"/>
      <point x="836" y="73" type="curve"/>
      <point x="839" y="103"/>
      <point x="840" y="142"/>
      <point x="840" y="161" type="curve" smooth="yes"/>
      <point x="840" y="308" type="line" smooth="yes"/>
      <point x="840" y="461"/>
      <point x="784" y="516"/>
      <point x="676" y="516" type="curve" smooth="yes"/>
    </contour>
  </outline>
</glyph>
<glyph name="n" format="1">
  <advance width="636"/>
  <unicode hex="006E"/>
  <outline>
    <contour>
      <point x="347" y="516"/>
      <point x="282" y="491"/>
      <point x="243" y="460" type="curve"/>
      <point x="241" y="460" type="line"/>
      <point x="240" y="473"/>
      <point x="239" y="496"/>
      <point x="237" y="510" type="curve"/>
      <point x="188" y="510" type="line"/>
      <point x="174" y="497"/>
      <point x="126" y="480"/>
      <point x="34" y="480" type="curve"/>
      <point x="34" y="404" type="line"/>
      <point x="48" y="405"/>
      <point x="83" y="406"/>
      <point x="104" y="407" type="curve"/>
      <point x="101" y="377"/>
      <point x="100" y="346"/>
      <point x="100" y="322" type="curve" smooth="yes"/>
      <point x="100" y="154" type="line" smooth="yes"/>
      <point x="100" y="101"/>
      <point x="96" y="65"/>
      <point x="41" y="65" type="curve"/>
      <point x="41" y="0" type="line"/>
      <point x="303" y="0" type="line"/>
      <point x="303" y="76" type="line"/>
      <point x="289" y="76"/>
      <point x="259" y="75"/>
      <point x="238" y="73" type="curve"/>
      <point x="241" y="103"/>
      <point x="242" y="142"/>
      <point x="242" y="161" type="curve" smooth="yes"/>
      <point x="242" y="387" type="line"/>
      <point x="264" y="407"/>
      <point x="300" y="424"/>
      <point x="333" y="424" type="curve" smooth="yes"/>
      <point x="392" y="424"/>
      <point x="414" y="383"/>
      <point x="414" y="296" type="curve" smooth="yes"/>
      <point x="415" y="154" type="line" smooth="yes"/>
      <point x="415" y="101"/>
      <point x="411" y="65"/>
      <point x="355" y="65" type="curve"/>
      <point x="355" y="0" type="line"/>
      <point x="617" y="0" type="line"/>
      <point x="617" y="76" type="line"/>
      <point x="603" y="76"/>
      <point x="574" y="75"/>
      <point x="552" y="73" type="curve"/>
      <point x="555" y="103"/>
      <point x="556" y="142"/>
      <point x="556" y="161" type="curve" smooth="yes"/>
      <point x="556" y="295" type="line" smooth="yes"/>
      <point x="556" y="449"/>
      <point x="509" y="516"/>
      <point x="387" y="516" type="curve" smooth="yes"/>
    </contour>
    <contour>
      <point x="344" y="500" type="move" name="top"/>
    </contour>
    <contour>
      <point x="357" y="0" type="move" name="bottom"/>
    </contour>
  </outline>
</glyph>
<glyph name="p" format="1">
  <advance width="601"/>
  <unicode hex="0070"/>
  <outline>
    <contour>
      <point x="326" y="516"/>
      <point x="279" y="502"/>
      <point x="233" y="462" type="curve"/>
      <point x="232" y="462" type="line"/>
      <point x="231" y="474"/>
      <point x="229" y="496"/>
      <point x="227" y="510" type="curve"/>
      <point x="178" y="510" type="line"/>
      <point x="164" y="497"/>
      <point x="117" y="480"/>
      <point x="24" y="480" type="curve"/>
      <point x="24" y="404" type="line"/>
      <point x="39" y="405"/>
      <point x="73" y="406"/>
      <point x="95" y="407" type="curve"/>
      <point x="92" y="377"/>
      <point x="91" y="346"/>
      <point x="91" y="322" type="curve" smooth="yes"/>
      <point x="91" y="-101" type="line" smooth="yes"/>
      <point x="91" y="-154"/>
      <point x="87" y="-190"/>
      <point x="31" y="-190" type="curve"/>
      <point x="31" y="-255" type="line"/>
      <point x="293" y="-255" type="line"/>
      <point x="293" y="-179" type="line"/>
      <point x="279" y="-179"/>
      <point x="250" y="-180"/>
      <point x="229" y="-182" type="curve"/>
      <point x="231" y="-152"/>
      <point x="232" y="-113"/>
      <point x="232" y="-94" type="curve" smooth="yes"/>
      <point x="232" y="2" type="line"/>
      <point x="257" y="-7"/>
      <point x="285" y="-16"/>
      <point x="321" y="-16" type="curve" smooth="yes"/>
      <point x="470" y="-16"/>
      <point x="569" y="102"/>
      <point x="569" y="263" type="curve" smooth="yes"/>
      <point x="569" y="417"/>
      <point x="487" y="516"/>
      <point x="367" y="516" type="curve" smooth="yes"/>
    </contour>
    <contour>
      <point x="390" y="428"/>
      <point x="422" y="339"/>
      <point x="422" y="248" type="curve" smooth="yes"/>
      <point x="422" y="149"/>
      <point x="397" y="61"/>
      <point x="305" y="59" type="curve" smooth="yes"/>
      <point x="276" y="58"/>
      <point x="246" y="67"/>
      <point x="232" y="77" type="curve"/>
      <point x="232" y="382" type="line"/>
      <point x="250" y="408"/>
      <point x="280" y="425"/>
      <point x="313" y="426" type="curve" smooth="yes"/>
    </contour>
  </outline>
</glyph>
<glyph name="q" format="1">
  <advance width="573"/>
  <unicode hex="0071"/>
  <outline>
    <contour>
      <point x="131" y="516"/>
      <point x="32" y="398"/>
      <point x="32" y="237" type="curve" smooth="yes"/>
      <point x="32" y="83"/>
      <point x="114" y="-16"/>
      <point x="234" y="-16" type="curve" smooth="yes"/>
      <point x="281" y="-16"/>
      <point x="327" y="-1"/>
      <point x="369" y="40" type="curve"/>
      <point x="370" y="40" type="line"/>
      <point x="369" y="-101" type="line" smooth="yes"/>
      <point x="369" y="-154"/>
      <point x="365" y="-190"/>
      <point x="310" y="-190" type="curve"/>
      <point x="310" y="-255" type="line"/>
      <point x="572" y="-255" type="line"/>
      <point x="572" y="-179" type="line"/>
      <point x="558" y="-179"/>
      <point x="528" y="-180"/>
      <point x="507" y="-182" type="curve"/>
      <point x="510" y="-152"/>
      <point x="511" y="-113"/>
      <point x="511" y="-94" type="curve" smooth="yes"/>
      <point x="511" y="510" type="line"/>
      <point x="457" y="510" type="line"/>
      <point x="449" y="500"/>
      <point x="432" y="494"/>
      <point x="422" y="494" type="curve" smooth="yes"/>
      <point x="396" y="494"/>
      <point x="356" y="516"/>
      <point x="282" y="516" type="curve" smooth="yes"/>
    </contour>
    <contour>
      <point x="325" y="443"/>
      <point x="369" y="430"/>
      <point x="369" y="355" type="curve" smooth="yes"/>
      <point x="369" y="121" type="line"/>
      <point x="352" y="93"/>
      <point x="319" y="74"/>
      <point x="286" y="74" type="curve" smooth="yes"/>
      <point x="209" y="74"/>
      <point x="180" y="167"/>
      <point x="179" y="252" type="curve" smooth="yes"/>
      <point x="177" y="346"/>
      <point x="204" y="442"/>
      <point x="292" y="443" type="curve" smooth="yes"/>
    </contour>
  </outline>
</glyph>
<glyph name="r" format="1">
  <advance width="463"/>
  <unicode hex="0072"/>
  <outline>
    <contour>
      <point x="307" y="469"/>
      <point x="260" y="417"/>
      <point x="235" y="385" type="curve"/>
      <point x="233" y="385" type="line"/>
      <point x="233" y="411"/>
      <point x="231" y="451"/>
      <point x="229" y="464" type="curve"/>
      <point x="182" y="464" type="line"/>
      <point x="168" y="452"/>
      <point x="122" y="436"/>
      <point x="34" y="436" type="curve"/>
      <point x="34" y="367" type="line"/>
      <point x="47" y="368"/>
      <point x="81" y="369"/>
      <point x="101" y="370" type="curve"/>
      <point x="98" y="343"/>
      <point x="97" y="315"/>
      <point x="97" y="293" type="curve" smooth="yes"/>
      <point x="97" y="140" type="line" smooth="yes"/>
      <point x="97" y="92"/>
      <point x="93" y="59"/>
      <point x="40" y="59" type="curve"/>
      <point x="40" y="0" type="line"/>
      <point x="293" y="0" type="line"/>
      <point x="293" y="69" type="line"/>
      <point x="279" y="69"/>
      <point x="250" y="68"/>
      <point x="230" y="66" type="curve"/>
      <point x="233" y="94"/>
      <point x="234" y="129"/>
      <point x="234" y="146" type="curve" smooth="yes"/>
      <point x="234" y="295" type="line"/>
      <point x="245" y="328"/>
      <point x="289" y="383"/>
      <point x="327" y="383" type="curve"/>
      <point x="331" y="341"/>
      <point x="364" y="330"/>
      <point x="390" y="330" type="curve" smooth="yes"/>
      <point x="439" y="329"/>
      <point x="457" y="366"/>
      <point x="457" y="394" type="curve" smooth="yes"/>
      <point x="457" y="446"/>
      <point x="419" y="469"/>
      <point x="374" y="469" type="curve" smooth="yes"/>
    </contour>
    <contour>
      <point x="278" y="455" type="move" name="top"/>
    </contour>
    <contour>
      <point x="232" y="0" type="move" name="bottom"/>
    </contour>
  </outline>
</glyph>
<glyph name="t" format="1">
  <advance width="413"/>
  <unicode hex="0074"/>
  <outline>
    <contour>
      <point x="154" y="625" type="line"/>
      <point x="139" y="574"/>
      <point x="85" y="501"/>
      <point x="17" y="500" type="curve"/>
      <point x="17" y="417" type="line"/>
      <point x="32" y="417"/>
      <point x="62" y="417"/>
      <point x="85" y="417" type="curve"/>
      <point x="83" y="176" type="line" smooth="yes"/>
      <point x="83" y="9"/>
      <point x="173" y="-16"/>
      <point x="239" y="-16" type="curve" smooth="yes"/>
      <point x="274" y="-16"/>
      <point x="353" y="-14"/>
      <point x="425" y="92" type="curve"/>
      <point x="377" y="137" type="line"/>
      <point x="339" y="84"/>
      <point x="304" y="77"/>
      <point x="286" y="77" type="curve" smooth="yes"/>
      <point x="235" y="77"/>
      <point x="226" y="128"/>
      <point x="226" y="174" type="curve" smooth="yes"/>
      <point x="226" y="179"/>
      <point x="226" y="231"/>
      <point x="227" y="420" type="curve"/>
      <point x="354" y="423" type="line"/>
      <point x="354" y="500" type="line"/>
      <point x="227" y="500" type="line"/>
      <point x="228" y="625" type="line"/>
    </contour>
    <contour>
      <point x="207" y="250" type="move" name="center"/>
    </contour>
    <contour>
      <point x="247" y="0" type="move" name="bottom"/>
    </contour>
  </outline>
</glyph>
<glyph name="u" format="1">
  <advance width="618"/>
  <unicode hex="0075"/>
  <outline>
    <contour>
      <point x="478" y="510" type="line"/>
      <point x="464" y="497"/>
      <point x="417" y="480"/>
      <point x="325" y="480" type="curve"/>
      <point x="325" y="404" type="line"/>
      <point x="339" y="405"/>
      <point x="374" y="406"/>
      <point x="395" y="407" type="curve"/>
      <point x="392" y="377"/>
      <point x="391" y="344"/>
      <point x="391" y="320" type="curve" smooth="yes"/>
      <point x="391" y="124" type="line"/>
      <point x="368" y="98"/>
      <point x="329" y="76"/>
      <point x="295" y="76" type="curve" smooth="yes"/>
      <point x="245" y="76"/>
      <point x="224" y="117"/>
      <point x="224" y="204" type="curve" smooth="yes"/>
      <point x="224" y="510" type="line"/>
      <point x="169" y="510" type="line"/>
      <point x="155" y="497"/>
      <point x="108" y="480"/>
      <point x="15" y="480" type="curve"/>
      <point x="15" y="404" type="line"/>
      <point x="29" y="405"/>
      <point x="64" y="406"/>
      <point x="85" y="407" type="curve"/>
      <point x="83" y="377"/>
      <point x="82" y="344"/>
      <point x="82" y="320" type="curve" smooth="yes"/>
      <point x="82" y="205" type="line" smooth="yes"/>
      <point x="82" y="51"/>
      <point x="128" y="-16"/>
      <point x="248" y="-16" type="curve" smooth="yes"/>
      <point x="312" y="-16"/>
      <point x="357" y="17"/>
      <point x="397" y="52" type="curve"/>
      <point x="398" y="52" type="line"/>
      <point x="404" y="0" type="line"/>
      <point x="594" y="0" type="line"/>
      <point x="594" y="76" type="line"/>
      <point x="580" y="76"/>
      <point x="550" y="75"/>
      <point x="529" y="73" type="curve"/>
      <point x="532" y="103"/>
      <point x="533" y="142"/>
      <point x="533" y="161" type="curve" smooth="yes"/>
      <point x="533" y="510" type="line"/>
    </contour>
    <contour>
      <point x="594" y="0" type="move" name="ogonek"/>
    </contour>
    <contour>
      <point x="306" y="500" type="move" name="top"/>
    </contour>
  </outline>
</glyph>
<glyph name="w" format="1">
  <advance width="781"/>
  <unicode hex="0077"/>
  <outline>
    <contour>
      <point x="595" y="455" type="line"/>
      <point x="595" y="385" type="line"/>
      <point x="650" y="389" type="line"/>
      <point x="650" y="388" type="line"/>
      <point x="638" y="367"/>
      <point x="633" y="349"/>
      <point x="622" y="316" type="curve" smooth="yes"/>
      <point x="585" y="201" type="line" smooth="yes"/>
      <point x="577" y="178"/>
      <point x="566" y="145"/>
      <point x="562" y="122" type="curve"/>
      <point x="561" y="122" type="line"/>
      <point x="555" y="146"/>
      <point x="546" y="178"/>
      <point x="538" y="204" type="curve" smooth="yes"/>
      <point x="461" y="455" type="line"/>
      <point x="356" y="455" type="line"/>
      <point x="286" y="226" type="line" smooth="yes"/>
      <point x="272" y="181"/>
      <point x="267" y="154"/>
      <point x="261" y="128" type="curve"/>
      <point x="260" y="128" type="line"/>
      <point x="255" y="157"/>
      <point x="248" y="188"/>
      <point x="240" y="215" type="curve" smooth="yes"/>
      <point x="207" y="325" type="line" smooth="yes"/>
      <point x="197" y="363"/>
      <point x="198" y="395"/>
      <point x="239" y="396" type="curve"/>
      <point x="239" y="455" type="line"/>
      <point x="8" y="455" type="line"/>
      <point x="8" y="385" type="line"/>
      <point x="45" y="387" type="line"/>
      <point x="50" y="365"/>
      <point x="52" y="359"/>
      <point x="69" y="313" type="curve" smooth="yes"/>
      <point x="186" y="-3" type="line"/>
      <point x="281" y="-3" type="line"/>
      <point x="334" y="147" type="line" smooth="yes"/>
      <point x="341" y="167"/>
      <point x="369" y="252"/>
      <point x="378" y="303" type="curve"/>
      <point x="379" y="303" type="line"/>
      <point x="390" y="265"/>
      <point x="406" y="211"/>
      <point x="413" y="191" type="curve" smooth="yes"/>
      <point x="480" y="-3" type="line"/>
      <point x="582" y="-3" type="line"/>
      <point x="691" y="298" type="line" smooth="yes"/>
      <point x="700" y="322"/>
      <point x="727" y="396"/>
      <point x="778" y="396" type="curve"/>
      <point x="778" y="455" type="line"/>
    </contour>
    <contour>
      <point x="403" y="455" type="move" name="top"/>
    </contour>
  </outline>
</glyph>
<glyph name="x" format="1">
  <advance width="529"/>
  <unicode hex="0078"/>
  <outline>
    <contour>
      <point x="313" y="455" type="line"/>
      <point x="313" y="385" type="line"/>
      <point x="360" y="389" type="line"/>
      <point x="360" y="388" type="line"/>
      <point x="343" y="374"/>
      <point x="329" y="356"/>
      <point x="313" y="339" type="curve" smooth="yes"/>
      <point x="277" y="297" type="line"/>
      <point x="276" y="297" type="line"/>
      <point x="231" y="346" type="line" smooth="yes"/>
      <point x="208" y="372"/>
      <point x="199" y="395"/>
      <point x="234" y="396" type="curve"/>
      <point x="234" y="455" type="line"/>
      <point x="21" y="455" type="line"/>
      <point x="21" y="385" type="line"/>
      <point x="47" y="387" type="line"/>
      <point x="56" y="365"/>
      <point x="87" y="331"/>
      <point x="102" y="313" type="curve" smooth="yes"/>
      <point x="197" y="208" type="line"/>
      <point x="113" y="117" type="line" smooth="yes"/>
      <point x="87" y="89"/>
      <point x="66" y="68"/>
      <point x="40" y="58" type="curve"/>
      <point x="40" y="0" type="line"/>
      <point x="199" y="0" type="line"/>
      <point x="199" y="69" type="line"/>
      <point x="155" y="65" type="line"/>
      <point x="155" y="66" type="line"/>
      <point x="167" y="74"/>
      <point x="192" y="101"/>
      <point x="199" y="109" type="curve" smooth="yes"/>
      <point x="243" y="160" type="line"/>
      <point x="244" y="160" type="line"/>
      <point x="302" y="103" type="line" smooth="yes"/>
      <point x="325" y="78"/>
      <point x="326" y="60"/>
      <point x="285" y="58" type="curve"/>
      <point x="285" y="0" type="line"/>
      <point x="512" y="0" type="line"/>
      <point x="512" y="69" type="line"/>
      <point x="480" y="67" type="line"/>
      <point x="467" y="89"/>
      <point x="451" y="107"/>
      <point x="433" y="126" type="curve" smooth="yes"/>
      <point x="322" y="249" type="line"/>
      <point x="386" y="324" type="line" smooth="yes"/>
      <point x="414" y="357"/>
      <point x="444" y="381"/>
      <point x="483" y="396" type="curve"/>
      <point x="483" y="455" type="line"/>
    </contour>
  </outline>
</glyph>
<glyph name="y" format="1">
  <advance width="551"/>
  <unicode hex="0079"/>
  <outline>
    <contour>
      <point x="369" y="500" type="line"/>
      <point x="369" y="424" type="line"/>
      <point x="426" y="428" type="line"/>
      <point x="426" y="427" type="line"/>
      <point x="408" y="405"/>
      <point x="392" y="358"/>
      <point x="384" y="333" type="curve" smooth="yes"/>
      <point x="355" y="247"/>
      <point x="333" y="168"/>
      <point x="321" y="134" type="curve"/>
      <point x="320" y="134" type="line"/>
      <point x="222" y="358" type="line" smooth="yes"/>
      <point x="206" y="392"/>
      <point x="203" y="430"/>
      <point x="254" y="436" type="curve"/>
      <point x="254" y="500" type="line"/>
      <point x="5" y="500" type="line"/>
      <point x="5" y="424" type="line"/>
      <point x="51" y="426" type="line"/>
      <point x="55" y="396"/>
      <point x="61" y="365"/>
      <point x="99" y="291" type="curve" smooth="yes"/>
      <point x="257" y="-26" type="line"/>
      <point x="234" y="-110"/>
      <point x="199" y="-190"/>
      <point x="172" y="-190" type="curve"/>
      <point x="172" y="-189" type="line"/>
      <point x="179" y="-147"/>
      <point x="152" y="-119"/>
      <point x="120" y="-120" type="curve" smooth="yes"/>
      <point x="83" y="-121"/>
      <point x="57" y="-153"/>
      <point x="57" y="-189" type="curve" smooth="yes"/>
      <point x="57" y="-238"/>
      <point x="97" y="-271"/>
      <point x="148" y="-271" type="curve" smooth="yes"/>
      <point x="239" y="-271"/>
      <point x="278" y="-198"/>
      <point x="334" y="-35" type="curve" smooth="yes"/>
      <point x="459" y="322" type="line" smooth="yes"/>
      <point x="480" y="382"/>
      <point x="506" y="426"/>
      <point x="547" y="436" type="curve"/>
      <point x="547" y="500" type="line"/>
    </contour>
    <contour>
      <point x="295" y="500" type="move" name="top"/>
    </contour>
  </outline>
</glyph>
<glyph name="z" format="1">
  <advance width="498"/>
  <unicode hex="007A"/>
  <outline>
    <contour>
      <point x="57" y="455" type="line"/>
      <point x="44" y="279" type="line"/>
      <point x="104" y="279" type="line"/>
      <point x="113" y="342"/>
      <point x="132" y="393"/>
      <point x="176" y="394" type="curve" smooth="yes"/>
      <point x="306" y="395" type="line"/>
      <point x="306" y="395" type="line"/>
      <point x="301" y="390"/>
      <point x="278" y="367"/>
      <point x="257" y="341" type="curve" smooth="yes"/>
      <point x="35" y="65" type="line"/>
      <point x="35" y="0" type="line"/>
      <point x="450" y="0" type="line"/>
      <point x="465" y="178" type="line"/>
      <point x="405" y="178" type="line"/>
      <point x="395" y="114"/>
      <point x="375" y="61"/>
      <point x="314" y="63" type="curve" smooth="yes"/>
      <point x="179" y="65" type="line"/>
      <point x="179" y="66" type="line"/>
      <point x="196" y="81"/>
      <point x="214" y="98"/>
      <point x="233" y="122" type="curve" smooth="yes"/>
      <point x="447" y="397" type="line"/>
      <point x="447" y="455" type="line"/>
    </contour>
    <contour>
      <point x="259" y="455" type="move" name="top"/>
    </contour>
  </outline>
</glyph>
<glyph name="asciitilde" format="1">
  <advance width="540"/>
  <unicode hex="007E"/>
  <outline>
    <contour>
      <point x="123" y="399"/>
      <point x="90" y="380"/>
      <point x="48" y="346" type="curve"/>
      <point x="48" y="228" type="line"/>
      <point x="84" y="254"/>
      <point x="117" y="276"/>
      <point x="171" y="276" type="curve" smooth="yes"/>
      <point x="251" y="276"/>
      <point x="273" y="201"/>
      <point x="374" y="201" type="curve" smooth="yes"/>
      <point x="426" y="201"/>
      <point x="465" y="223"/>
      <point x="493" y="253" type="curve"/>
      <point x="493" y="371" type="line"/>
      <point x="458" y="340"/>
      <point x="414" y="320"/>
      <point x="366" y="324" type="curve" smooth="yes"/>
      <point x="294" y="330"/>
      <point x="278" y="399"/>
      <point x="175" y="399" type="curve" smooth="yes"/>
    </contour>
  </outline>
</glyph>
<glyph name="cent" format="1">
  <advance width="565"/>
  <unicode hex="00A2"/>
  <outline>
    <contour>
      <point x="257" y="-5" type="line"/>
      <point x="257" y="-137" type="line"/>
      <point x="340" y="-137" type="line"/>
      <point x="341" y="-6" type="line"/>
    </contour>
    <contour>
      <point x="347" y="506" type="line"/>
      <point x="348" y="626" type="line"/>
      <point x="259" y="626" type="line"/>
      <point x="260" y="503" type="line"/>
    </contour>
    <contour>
      <point x="334" y="-14" type="line"/>
      <point x="397" y="-6"/>
      <point x="464" y="21"/>
      <point x="525" y="105" type="curve"/>
      <point x="479" y="150" type="line"/>
      <point x="442" y="102"/>
      <point x="385" y="71"/>
      <point x="329" y="73" type="curve" smooth="yes"/>
      <point x="231" y="77"/>
      <point x="197" y="168"/>
      <point x="197" y="268" type="curve" smooth="yes"/>
      <point x="197" y="381"/>
      <point x="243" y="442"/>
      <point x="307" y="446" type="curve" smooth="yes"/>
      <point x="325" y="447"/>
      <point x="365" y="442"/>
      <point x="380" y="413" type="curve"/>
      <point x="372" y="399"/>
      <point x="368" y="381"/>
      <point x="368" y="369" type="curve" smooth="yes"/>
      <point x="368" y="341"/>
      <point x="385" y="303"/>
      <point x="436" y="304" type="curve" smooth="yes"/>
      <point x="479" y="305"/>
      <point x="503" y="340"/>
      <point x="503" y="379" type="curve" smooth="yes"/>
      <point x="503" y="444"/>
      <point x="447" y="507"/>
      <point x="336" y="515" type="curve"/>
      <point x="268" y="513" type="line"/>
      <point x="137" y="491"/>
      <point x="51" y="375"/>
      <point x="51" y="239" type="curve" smooth="yes"/>
      <point x="51" y="90"/>
      <point x="145" y="0"/>
      <point x="265" y="-14" type="curve"/>
    </contour>
  </outline>
</glyph>
<glyph name="sterling" format="1">
  <advance width="573"/>
  <unicode hex="00A3"/>
  <outline>
    <contour>
      <point x="208" y="716"/>
      <point x="109" y="629"/>
      <point x="109" y="475" type="curve" smooth="yes"/>
      <point x="109" y="436"/>
      <point x="114" y="404"/>
      <point x="121" y="375" type="curve"/>
      <point x="64" y="375" type="line"/>
      <point x="64" y="292" type="line"/>
      <point x="143" y="293" type="line"/>
      <point x="150" y="266"/>
      <point x="155" y="237"/>
      <point x="155" y="204" type="curve" smooth="yes"/>
      <point x="155" y="183"/>
      <point x="147" y="150"/>
      <point x="138" y="133" type="curve"/>
      <point x="88" y="115"/>
      <point x="51" y="79"/>
      <point x="51" y="40" type="curve" smooth="yes"/>
      <point x="51" y="11"/>
      <point x="66" y="-16"/>
      <point x="107" y="-16" type="curve" smooth="yes"/>
      <point x="143" y="-16"/>
      <point x="178" y="23"/>
      <point x="190" y="72" type="curve"/>
      <point x="224" y="71"/>
      <point x="266" y="51"/>
      <point x="297" y="32" type="curve" smooth="yes"/>
      <point x="334" y="8"/>
      <point x="372" y="-16"/>
      <point x="415" y="-16" type="curve" smooth="yes"/>
      <point x="489" y="-16"/>
      <point x="527" y="58"/>
      <point x="531" y="156" type="curve"/>
      <point x="466" y="156" type="line"/>
      <point x="463" y="117"/>
      <point x="446" y="99"/>
      <point x="431" y="99" type="curve" smooth="yes"/>
      <point x="393" y="99"/>
      <point x="355" y="149"/>
      <point x="281" y="149" type="curve" smooth="yes"/>
      <point x="258" y="149"/>
      <point x="233" y="146"/>
      <point x="201" y="133" type="curve"/>
      <point x="201" y="134" type="line"/>
      <point x="258" y="173"/>
      <point x="277" y="236"/>
      <point x="266" y="295" type="curve"/>
      <point x="408" y="298" type="line"/>
      <point x="408" y="375" type="line"/>
      <point x="250" y="375" type="line"/>
      <point x="243" y="415"/>
      <point x="236" y="460"/>
      <point x="236" y="512" type="curve" smooth="yes"/>
      <point x="236" y="573"/>
      <point x="258" y="646"/>
      <point x="330" y="646" type="curve" smooth="yes"/>
      <point x="353" y="646"/>
      <point x="367" y="639"/>
      <point x="373" y="631" type="curve"/>
      <point x="360" y="615"/>
      <point x="356" y="596"/>
      <point x="356" y="579" type="curve" smooth="yes"/>
      <point x="356" y="555"/>
      <point x="375" y="516"/>
      <point x="424" y="518" type="curve" smooth="yes"/>
      <point x="465" y="519"/>
      <point x="488" y="553"/>
      <point x="488" y="592" type="curve" smooth="yes"/>
      <point x="488" y="643"/>
      <point x="443" y="716"/>
      <point x="319" y="716" type="curve" smooth="yes"/>
    </contour>
  </outline>
</glyph>
<glyph name="yen" format="1">
  <advance width="722"/>
  <unicode hex="00A5"/>
  <outline>
    <contour>
      <point x="470" y="700" type="line"/>
      <point x="470" y="623" type="line"/>
      <point x="484" y="624"/>
      <point x="525" y="625"/>
      <point x="547" y="627" type="curve"/>
      <point x="547" y="626" type="line"/>
      <point x="530" y="605"/>
      <point x="504" y="556"/>
      <point x="494" y="535" type="curve" smooth="yes"/>
      <point x="442" y="433" type="line" smooth="yes"/>
      <point x="417" y="383"/>
      <point x="402" y="352"/>
      <point x="396" y="336" type="curve"/>
      <point x="394" y="336" type="line"/>
      <point x="383" y="365"/>
      <point x="353" y="417"/>
      <point x="344" y="432" type="curve" smooth="yes"/>
      <point x="267" y="557" type="line" smooth="yes"/>
      <point x="234" y="611"/>
      <point x="268" y="638"/>
      <point x="326" y="634" type="curve"/>
      <point x="326" y="700" type="line"/>
      <point x="32" y="700" type="line"/>
      <point x="32" y="623" type="line"/>
      <point x="46" y="624"/>
      <point x="59" y="625"/>
      <point x="80" y="626" type="curve"/>
      <point x="80" y="604"/>
      <point x="98" y="561"/>
      <point x="118" y="531" type="curve" smooth="yes"/>
      <point x="242" y="342" type="line"/>
      <point x="193" y="342" type="line"/>
      <point x="193" y="265" type="line"/>
      <point x="303" y="265" type="line"/>
      <point x="303" y="215" type="line"/>
      <point x="193" y="215" type="line"/>
      <point x="193" y="138" type="line"/>
      <point x="302" y="138" type="line"/>
      <point x="299" y="72"/>
      <point x="273" y="68"/>
      <point x="231" y="66" type="curve"/>
      <point x="231" y="0" type="line"/>
      <point x="523" y="0" type="line"/>
      <point x="523" y="77" type="line"/>
      <point x="509" y="77"/>
      <point x="465" y="76"/>
      <point x="443" y="74" type="curve"/>
      <point x="445" y="87"/>
      <point x="446" y="112"/>
      <point x="447" y="139" type="curve"/>
      <point x="547" y="140" type="line"/>
      <point x="547" y="213" type="line"/>
      <point x="447" y="214" type="line"/>
      <point x="447" y="266" type="line"/>
      <point x="547" y="267" type="line"/>
      <point x="547" y="340" type="line"/>
      <point x="479" y="340" type="line"/>
      <point x="578" y="527" type="line" smooth="yes"/>
      <point x="616" y="600"/>
      <point x="645" y="627"/>
      <point x="691" y="634" type="curve"/>
      <point x="691" y="700" type="line"/>
    </contour>
  </outline>
</glyph>
<glyph name="section" format="1">
  <advance width="549"/>
  <unicode hex="00A7"/>
  <outline>
    <contour>
      <point x="134" y="760"/>
      <point x="80" y="646"/>
      <point x="82" y="569" type="curve" smooth="yes"/>
      <point x="83" y="531"/>
      <point x="91" y="490"/>
      <point x="122" y="451" type="curve"/>
      <point x="74" y="406"/>
      <point x="44" y="350"/>
      <point x="44" y="297" type="curve" smooth="yes"/>
      <point x="44" y="199"/>
      <point x="115" y="140"/>
      <point x="188" y="93" type="curve" smooth="yes"/>
      <point x="248" y="54"/>
      <point x="356" y="6"/>
      <point x="356" y="-76" type="curve" smooth="yes"/>
      <point x="356" y="-116"/>
      <point x="327" y="-157"/>
      <point x="266" y="-157" type="curve" smooth="yes"/>
      <point x="236" y="-157"/>
      <point x="206" y="-143"/>
      <point x="196" y="-122" type="curve"/>
      <point x="204" y="-109"/>
      <point x="207" y="-94"/>
      <point x="207" y="-80" type="curve" smooth="yes"/>
      <point x="207" y="-58"/>
      <point x="189" y="-21"/>
      <point x="142" y="-22" type="curve" smooth="yes"/>
      <point x="104" y="-24"/>
      <point x="82" y="-56"/>
      <point x="82" y="-93" type="curve" smooth="yes"/>
      <point x="82" y="-158"/>
      <point x="157" y="-228"/>
      <point x="267" y="-228" type="curve" smooth="yes"/>
      <point x="413" y="-228"/>
      <point x="468" y="-114"/>
      <point x="468" y="-38" type="curve" smooth="yes"/>
      <point x="468" y="11"/>
      <point x="445" y="44"/>
      <point x="428" y="71" type="curve"/>
      <point x="473" y="116"/>
      <point x="505" y="174"/>
      <point x="505" y="226" type="curve" smooth="yes"/>
      <point x="505" y="322"/>
      <point x="438" y="382"/>
      <point x="365" y="429" type="curve" smooth="yes"/>
      <point x="297" y="473"/>
      <point x="196" y="516"/>
      <point x="194" y="606" type="curve"/>
      <point x="195" y="645"/>
      <point x="223" y="688"/>
      <point x="284" y="688" type="curve" smooth="yes"/>
      <point x="314" y="688"/>
      <point x="341" y="674"/>
      <point x="351" y="653" type="curve"/>
      <point x="343" y="641"/>
      <point x="340" y="626"/>
      <point x="340" y="612" type="curve" smooth="yes"/>
      <point x="340" y="590"/>
      <point x="357" y="553"/>
      <point x="405" y="554" type="curve" smooth="yes"/>
      <point x="443" y="556"/>
      <point x="465" y="587"/>
      <point x="465" y="625" type="curve" smooth="yes"/>
      <point x="465" y="690"/>
      <point x="390" y="760"/>
      <point x="280" y="760" type="curve" smooth="yes"/>
    </contour>
    <contour>
      <point x="245" y="340"/>
      <point x="392" y="284"/>
      <point x="392" y="192" type="curve" smooth="yes"/>
      <point x="392" y="171"/>
      <point x="387" y="146"/>
      <point x="377" y="127" type="curve"/>
      <point x="306" y="183"/>
      <point x="159" y="239"/>
      <point x="159" y="331" type="curve" smooth="yes"/>
      <point x="159" y="353"/>
      <point x="164" y="375"/>
      <point x="173" y="395" type="curve"/>
    </contour>
  </outline>
</glyph>
<glyph name="copyright" format="1">
  <advance width="915"/>
  <unicode hex="00A9"/>
  <outline>
    <contour>
      <point x="223" y="755"/>
      <point x="46" y="568"/>
      <point x="46" y="340" type="curve" smooth="yes"/>
      <point x="46" y="103"/>
      <point x="214" y="-71"/>
      <point x="459" y="-71" type="curve" smooth="yes"/>
      <point x="688" y="-71"/>
      <point x="869" y="112"/>
      <point x="869" y="339" type="curve" smooth="yes"/>
      <point x="869" y="567"/>
      <point x="702" y="755"/>
      <point x="461" y="755" type="curve" smooth="yes"/>
    </contour>
    <contour>
      <point x="305" y="596"/>
      <point x="227" y="456"/>
      <point x="227" y="338" type="curve" smooth="yes"/>
      <point x="227" y="201"/>
      <point x="328" y="94"/>
      <point x="466" y="94" type="curve" smooth="yes"/>
      <point x="523" y="94"/>
      <point x="612" y="118"/>
      <point x="679" y="209" type="curve"/>
      <point x="631" y="254" type="line"/>
      <point x="592" y="205"/>
      <point x="542" y="180"/>
      <point x="494" y="181" type="curve" smooth="yes"/>
      <point x="401" y="183"/>
      <point x="346" y="259"/>
      <point x="346" y="349" type="curve" smooth="yes"/>
      <point x="346" y="449"/>
      <point x="402" y="521"/>
      <point x="473" y="521" type="curve" smooth="yes"/>
      <point x="526" y="521"/>
      <point x="575" y="491"/>
      <point x="585" y="411" type="curve"/>
      <point x="652" y="411" type="line"/>
      <point x="652" y="586" type="line"/>
      <point x="576" y="586" type="line"/>
      <point x="576" y="583"/>
      <point x="576" y="563"/>
      <point x="577" y="555" type="curve"/>
      <point x="542" y="580"/>
      <point x="507" y="588"/>
      <point x="467" y="590" type="curve" smooth="yes"/>
    </contour>
    <contour>
      <point x="666" y="697"/>
      <point x="799" y="533"/>
      <point x="799" y="340" type="curve" smooth="yes"/>
      <point x="799" y="147"/>
      <point x="669" y="-14"/>
      <point x="462" y="-14" type="curve" smooth="yes"/>
      <point x="250" y="-14"/>
      <point x="117" y="147"/>
      <point x="117" y="340" type="curve" smooth="yes"/>
      <point x="117" y="533"/>
      <point x="255" y="697"/>
      <point x="459" y="697" type="curve" smooth="yes"/>
    </contour>
  </outline>
</glyph>
<glyph name="ordfeminine" format="1">
  <advance width="386"/>
  <unicode hex="00AA"/>
  <outline>
    <contour>
      <point x="108" y="716"/>
      <point x="50" y="669"/>
      <point x="50" y="618" type="curve" smooth="yes"/>
      <point x="50" y="590"/>
      <point x="67" y="569"/>
      <point x="98" y="569" type="curve" smooth="yes"/>
      <point x="134" y="568"/>
      <point x="148" y="600"/>
      <point x="148" y="619" type="curve" smooth="yes"/>
      <point x="148" y="627"/>
      <point x="146" y="640"/>
      <point x="141" y="647" type="curve"/>
      <point x="150" y="657"/>
      <point x="167" y="661"/>
      <point x="179" y="661" type="curve" smooth="yes"/>
      <point x="212" y="659"/>
      <point x="215" y="631"/>
      <point x="215" y="605" type="curve" smooth="yes"/>
      <point x="215" y="562" type="line"/>
      <point x="131" y="556"/>
      <point x="35" y="523"/>
      <point x="35" y="447" type="curve" smooth="yes"/>
      <point x="35" y="396"/>
      <point x="71" y="367"/>
      <point x="133" y="367" type="curve" smooth="yes"/>
      <point x="162" y="367"/>
      <point x="204" y="387"/>
      <point x="223" y="424" type="curve"/>
      <point x="224" y="424" type="line"/>
      <point x="228" y="385"/>
      <point x="257" y="367"/>
      <point x="285" y="367" type="curve" smooth="yes"/>
      <point x="313" y="367"/>
      <point x="346" y="386"/>
      <point x="366" y="414" type="curve"/>
      <point x="346" y="443" type="line"/>
      <point x="339" y="438"/>
      <point x="334" y="438"/>
      <point x="329" y="438" type="curve" smooth="yes"/>
      <point x="313" y="438"/>
      <point x="312" y="459"/>
      <point x="312" y="472" type="curve" smooth="yes"/>
      <point x="312" y="506"/>
      <point x="313" y="552"/>
      <point x="313" y="586" type="curve" smooth="yes"/>
      <point x="313" y="676"/>
      <point x="269" y="716"/>
      <point x="189" y="716" type="curve" smooth="yes"/>
    </contour>
    <contour>
      <point x="215" y="466" type="line"/>
      <point x="198" y="449"/>
      <point x="182" y="441"/>
      <point x="166" y="441" type="curve" smooth="yes"/>
      <point x="147" y="441"/>
      <point x="139" y="452"/>
      <point x="138" y="464" type="curve" smooth="yes"/>
      <point x="135" y="493"/>
      <point x="175" y="511"/>
      <point x="215" y="514" type="curve"/>
    </contour>
  </outline>
</glyph>
<glyph name="degree" format="1">
  <advance width="382"/>
  <unicode hex="00B0"/>
  <outline>
    <contour>
      <point x="104" y="716"/>
      <point x="28" y="647"/>
      <point x="28" y="556" type="curve" smooth="yes"/>
      <point x="28" y="465"/>
      <point x="91" y="395"/>
      <point x="190" y="395" type="curve" smooth="yes"/>
      <point x="279" y="395"/>
      <point x="354" y="465"/>
      <point x="354" y="556" type="curve" smooth="yes"/>
      <point x="354" y="647"/>
      <point x="292" y="716"/>
      <point x="192" y="716" type="curve" smooth="yes"/>
    </contour>
    <contour>
      <point x="238" y="646"/>
      <point x="270" y="604"/>
      <point x="270" y="556" type="curve" smooth="yes"/>
      <point x="270" y="508"/>
      <point x="238" y="466"/>
      <point x="191" y="466" type="curve" smooth="yes"/>
      <point x="145" y="466"/>
      <point x="113" y="508"/>
      <point x="113" y="556" type="curve" smooth="yes"/>
      <point x="113" y="604"/>
      <point x="145" y="646"/>
      <point x="191" y="646" type="curve" smooth="yes"/>
    </contour>
  </outline>
</glyph>
<glyph name="twosuperior" format="1">
  <advance width="375"/>
  <unicode hex="00B2"/>
  <outline>
    <contour>
      <point x="90" y="716"/>
      <point x="43" y="658"/>
      <point x="43" y="617" type="curve" smooth="yes"/>
      <point x="43" y="588"/>
      <point x="60" y="564"/>
      <point x="90" y="563" type="curve" smooth="yes"/>
      <point x="126" y="563"/>
      <point x="141" y="593"/>
      <point x="141" y="611" type="curve" smooth="yes"/>
      <point x="141" y="618"/>
      <point x="138" y="633"/>
      <point x="127" y="642" type="curve"/>
      <point x="132" y="650"/>
      <point x="148" y="658"/>
      <point x="161" y="658" type="curve" smooth="yes"/>
      <point x="189" y="658"/>
      <point x="208" y="642"/>
      <point x="208" y="602" type="curve" smooth="yes"/>
      <point x="208" y="576"/>
      <point x="198" y="533"/>
      <point x="146" y="487" type="curve" smooth="yes"/>
      <point x="94" y="440"/>
      <point x="47" y="394"/>
      <point x="46" y="302" type="curve"/>
      <point x="325" y="302" type="line"/>
      <point x="331" y="421" type="line"/>
      <point x="283" y="421" type="line"/>
      <point x="283" y="389"/>
      <point x="271" y="383"/>
      <point x="254" y="384" type="curve" smooth="yes"/>
      <point x="131" y="386" type="line"/>
      <point x="140" y="404"/>
      <point x="146" y="416"/>
      <point x="165" y="432" type="curve" smooth="yes"/>
      <point x="239" y="498"/>
      <point x="317" y="540"/>
      <point x="317" y="609" type="curve" smooth="yes"/>
      <point x="317" y="687"/>
      <point x="248" y="716"/>
      <point x="179" y="716" type="curve" smooth="yes"/>
    </contour>
  </outline>
</glyph>
<glyph name="threesuperior" format="1">
  <advance width="365"/>
  <unicode hex="00B3"/>
  <outline>
    <contour>
      <point x="84" y="716"/>
      <point x="42" y="661"/>
      <point x="42" y="623" type="curve" smooth="yes"/>
      <point x="42" y="593"/>
      <point x="61" y="573"/>
      <point x="91" y="572" type="curve" smooth="yes"/>
      <point x="128" y="571"/>
      <point x="140" y="602"/>
      <point x="140" y="619" type="curve" smooth="yes"/>
      <point x="140" y="626"/>
      <point x="137" y="642"/>
      <point x="126" y="650" type="curve"/>
      <point x="131" y="655"/>
      <point x="144" y="662"/>
      <point x="162" y="662" type="curve" smooth="yes"/>
      <point x="195" y="662"/>
      <point x="213" y="641"/>
      <point x="213" y="605" type="curve" smooth="yes"/>
      <point x="214" y="575"/>
      <point x="198" y="537"/>
      <point x="148" y="537" type="curve" smooth="yes"/>
      <point x="137" y="537"/>
      <point x="125" y="538"/>
      <point x="113" y="538" type="curve"/>
      <point x="113" y="484" type="line"/>
      <point x="121" y="484"/>
      <point x="137" y="485"/>
      <point x="147" y="485" type="curve" smooth="yes"/>
      <point x="200" y="485"/>
      <point x="227" y="455"/>
      <point x="227" y="413" type="curve" smooth="yes"/>
      <point x="227" y="374"/>
      <point x="202" y="346"/>
      <point x="164" y="346" type="curve" smooth="yes"/>
      <point x="153" y="346"/>
      <point x="130" y="348"/>
      <point x="120" y="361" type="curve"/>
      <point x="131" y="370"/>
      <point x="134" y="389"/>
      <point x="134" y="396" type="curve" smooth="yes"/>
      <point x="134" y="420"/>
      <point x="123" y="447"/>
      <point x="86" y="446" type="curve" smooth="yes"/>
      <point x="56" y="445"/>
      <point x="36" y="418"/>
      <point x="36" y="389" type="curve" smooth="yes"/>
      <point x="36" y="340"/>
      <point x="86" y="292"/>
      <point x="168" y="292" type="curve" smooth="yes"/>
      <point x="279" y="292"/>
      <point x="335" y="350"/>
      <point x="332" y="423" type="curve" smooth="yes"/>
      <point x="329" y="473"/>
      <point x="300" y="510"/>
      <point x="237" y="522" type="curve"/>
      <point x="237" y="523" type="line"/>
      <point x="279" y="534"/>
      <point x="313" y="573"/>
      <point x="313" y="611" type="curve" smooth="yes"/>
      <point x="313" y="682"/>
      <point x="254" y="716"/>
      <point x="178" y="716" type="curve" smooth="yes"/>
    </contour>
  </outline>
</glyph>
<glyph name="acute" format="1">
  <advance width="282"/>
  <unicode hex="00B4"/>
  <outline>
    <contour>
      <point x="188" y="795"/>
      <point x="147" y="779"/>
      <point x="126" y="746" type="curve" smooth="yes"/>
      <point x="44" y="606" type="line"/>
      <point x="90" y="565" type="line"/>
      <point x="211" y="671" type="line" smooth="yes"/>
      <point x="238" y="696"/>
      <point x="251" y="741"/>
      <point x="220" y="770" type="curve" smooth="yes"/>
    </contour>
    <contour>
      <point x="141" y="500" type="move" name="_top"/>
    </contour>
  </outline>
</glyph>
<glyph name="uni00B5" format="1">
  <advance width="612"/>
  <unicode hex="00B5"/>
  <outline>
    <contour>
      <point x="366" y="500" type="line"/>
      <point x="366" y="116" type="line"/>
      <point x="341" y="88"/>
      <point x="315" y="79"/>
      <point x="291" y="79" type="curve" smooth="yes"/>
      <point x="243" y="79"/>
      <point x="209" y="122"/>
      <point x="209" y="184" type="curve" smooth="yes"/>
      <point x="209" y="500" type="line"/>
      <point x="84" y="500" type="line"/>
      <point x="84" y="-167" type="line" smooth="yes"/>
      <point x="84" y="-229"/>
      <point x="103" y="-271"/>
      <point x="154" y="-271" type="curve" smooth="yes"/>
      <point x="203" y="-271"/>
      <point x="218" y="-233"/>
      <point x="218" y="-195" type="curve" smooth="yes"/>
      <point x="218" y="-139"/>
      <point x="206" y="-90"/>
      <point x="152" y="77" type="curve"/>
      <point x="158" y="82" type="line"/>
      <point x="188" y="17"/>
      <point x="229" y="-7"/>
      <point x="272" y="-7" type="curve" smooth="yes"/>
      <point x="313" y="-7"/>
      <point x="341" y="3"/>
      <point x="379" y="44" type="curve"/>
      <point x="380" y="44" type="line"/>
      <point x="391" y="9"/>
      <point x="424" y="-5"/>
      <point x="463" y="-5" type="curve" smooth="yes"/>
      <point x="514" y="-5"/>
      <point x="562" y="35"/>
      <point x="584" y="67" type="curve"/>
      <point x="551" y="109" type="line"/>
      <point x="535" y="95"/>
      <point x="523" y="91"/>
      <point x="514" y="91" type="curve" smooth="yes"/>
      <point x="489" y="91"/>
      <point x="490" y="126"/>
      <point x="490" y="142" type="curve" smooth="yes"/>
      <point x="491" y="500" type="line"/>
    </contour>
  </outline>
</glyph>
<glyph name="paragraph" format="1">
  <advance width="573"/>
  <unicode hex="00B6"/>
  <outline>
    <contour>
      <point x="193" y="700" type="line" smooth="yes"/>
      <point x="116" y="700"/>
      <point x="41" y="652"/>
      <point x="41" y="549" type="curve" smooth="yes"/>
      <point x="41" y="450"/>
      <point x="104" y="413"/>
      <point x="168" y="401" type="curve"/>
      <point x="166" y="-255" type="line"/>
      <point x="278" y="-255" type="line"/>
      <point x="278" y="12"/>
      <point x="279" y="362"/>
      <point x="280" y="630" type="curve"/>
      <point x="374" y="631" type="line"/>
      <point x="372" y="-255" type="line"/>
      <point x="483" y="-255" type="line"/>
      <point x="485" y="700" type="line"/>
    </contour>
  </outline>
</glyph>
<glyph name="cedilla" format="1">
  <advance width="325"/>
  <unicode hex="00B8"/>
  <outline>
    <contour>
      <point x="91" y="10" type="line"/>
      <point x="60" y="-117" type="line"/>
      <point x="97" y="-133" type="line"/>
      <point x="117" y="-117"/>
      <point x="165" y="-109"/>
      <point x="165" y="-144" type="curve" smooth="yes"/>
      <point x="165" y="-185"/>
      <point x="77" y="-201"/>
      <point x="45" y="-207" type="curve"/>
      <point x="53" y="-259" type="line"/>
      <point x="130" y="-248"/>
      <point x="280" y="-216"/>
      <point x="280" y="-123" type="curve" smooth="yes"/>
      <point x="280" y="-75"/>
      <point x="249" y="-54"/>
      <point x="207" y="-53" type="curve" smooth="yes"/>
      <point x="189" y="-53"/>
      <point x="155" y="-60"/>
      <point x="139" y="-69" type="curve"/>
      <point x="138" y="-69" type="line"/>
      <point x="167" y="10" type="line"/>
    </contour>
    <contour>
      <point x="119" y="0" type="move" name="_bottom"/>
    </contour>
  </outline>
</glyph>
<glyph name="ordmasculine" format="1">
  <advance width="378"/>
  <unicode hex="00BA"/>
  <outline>
    <contour>
      <point x="92" y="716"/>
      <point x="30" y="637"/>
      <point x="30" y="533" type="curve" smooth="yes"/>
      <point x="30" y="435"/>
      <point x="92" y="364"/>
      <point x="188" y="364" type="curve" smooth="yes"/>
      <point x="288" y="364"/>
      <point x="349" y="439"/>
      <point x="348" y="545" type="curve" smooth="yes"/>
      <point x="347" y="646"/>
      <point x="288" y="716"/>
      <point x="191" y="716" type="curve" smooth="yes"/>
    </contour>
    <contour>
      <point x="229" y="664"/>
      <point x="244" y="610"/>
      <point x="244" y="531" type="curve" smooth="yes"/>
      <point x="244" y="459"/>
      <point x="225" y="421"/>
      <point x="193" y="420" type="curve" smooth="yes"/>
      <point x="154" y="419"/>
      <point x="137" y="469"/>
      <point x="137" y="550" type="curve" smooth="yes"/>
      <point x="137" y="623"/>
      <point x="157" y="660"/>
      <point x="189" y="662" type="curve" smooth="yes"/>
    </contour>
  </outline>
</glyph>
<glyph name="guillemotright" format="1">
  <advance width="493"/>
  <unicode hex="00BB"/>
  <outline>
    <contour>
      <point x="162" y="508" type="line"/>
      <point x="348" y="275" type="line"/>
      <point x="348" y="274" type="line"/>
      <point x="159" y="32" type="line"/>
      <point x="206" y="-17" type="line"/>
      <point x="473" y="261" type="line"/>
      <point x="473" y="285" type="line"/>
      <point x="209" y="554" type="line"/>
    </contour>
    <contour>
      <point x="38" y="437" type="line"/>
      <point x="136" y="268" type="line"/>
      <point x="136" y="267" type="line"/>
      <point x="36" y="98" type="line"/>
      <point x="83" y="60" type="line"/>
      <point x="253" y="259" type="line"/>
      <point x="253" y="282" type="line"/>
      <point x="84" y="476" type="line"/>
    </contour>
  </outline>
</glyph>
<glyph name="AE" format="1">
  <advance width="935"/>
  <unicode hex="00C6"/>
  <outline>
    <contour>
      <point x="361" y="700" type="line"/>
      <point x="361" y="623" type="line"/>
      <point x="375" y="624"/>
      <point x="415" y="625"/>
      <point x="436" y="626" type="curve"/>
      <point x="436" y="625"/>
      <point x="436" y="625"/>
      <point x="436" y="625" type="curve"/>
      <point x="113" y="171" type="line" smooth="yes"/>
      <point x="80" y="124"/>
      <point x="41" y="66"/>
      <point x="-6" y="66" type="curve"/>
      <point x="-6" y="0" type="line"/>
      <point x="218" y="0" type="line"/>
      <point x="218" y="77" type="line"/>
      <point x="138" y="74" type="line"/>
      <point x="138" y="75" type="line"/>
      <point x="159" y="91"/>
      <point x="180" y="120"/>
      <point x="201" y="151" type="curve" smooth="yes"/>
      <point x="236" y="202" type="line"/>
      <point x="300" y="203"/>
      <point x="370" y="206"/>
      <point x="432" y="207" type="curve"/>
      <point x="432" y="153" type="line" smooth="yes"/>
      <point x="432" y="72"/>
      <point x="406" y="68"/>
      <point x="361" y="66" type="curve"/>
      <point x="361" y="0" type="line"/>
      <point x="889" y="0" type="line"/>
      <point x="895" y="220" type="line"/>
      <point x="829" y="220" type="line"/>
      <point x="829" y="112"/>
      <point x="766" y="76"/>
      <point x="707" y="76" type="curve" smooth="yes"/>
      <point x="573" y="76" type="line"/>
      <point x="575" y="93"/>
      <point x="577" y="128"/>
      <point x="577" y="164" type="curve" smooth="yes"/>
      <point x="577" y="328" type="line"/>
      <point x="603" y="329" type="line" smooth="yes"/>
      <point x="657" y="330"/>
      <point x="701" y="325"/>
      <point x="701" y="241" type="curve"/>
      <point x="767" y="241" type="line"/>
      <point x="767" y="484" type="line"/>
      <point x="690" y="484" type="line"/>
      <point x="691" y="459"/>
      <point x="692" y="425"/>
      <point x="694" y="397" type="curve"/>
      <point x="577" y="397" type="line"/>
      <point x="577" y="547" type="line" smooth="yes"/>
      <point x="577" y="625"/>
      <point x="602" y="633"/>
      <point x="644" y="634" type="curve" smooth="yes"/>
      <point x="680" y="635" type="line" smooth="yes"/>
      <point x="734" y="637"/>
      <point x="801" y="615"/>
      <point x="801" y="506" type="curve"/>
      <point x="867" y="506" type="line"/>
      <point x="861" y="700" type="line"/>
    </contour>
    <contour>
      <point x="434" y="452"/>
      <point x="432" y="404"/>
      <point x="432" y="362" type="curve" smooth="yes"/>
      <point x="432" y="276" type="line"/>
      <point x="285" y="276" type="line"/>
      <point x="366" y="392" type="line" smooth="yes"/>
      <point x="389" y="426"/>
      <point x="414" y="463"/>
      <point x="438" y="500" type="curve"/>
    </contour>
  </outline>
</glyph>
<glyph name="Icircumflex" format="1">
  <advance width="387"/>
  <unicode hex="00CE"/>
  <outline>
    <contour>
      <point x="50" y="700" type="line"/>
      <point x="50" y="623" type="line"/>
      <point x="64" y="624"/>
      <point x="104" y="625"/>
      <point x="125" y="626" type="curve"/>
      <point x="123" y="609"/>
      <point x="121" y="572"/>
      <point x="121" y="536" type="curve" smooth="yes"/>
      <point x="121" y="153" type="line" smooth="yes"/>
      <point x="121" y="72"/>
      <point x="95" y="68"/>
      <point x="50" y="66" type="curve"/>
      <point x="50" y="0" type="line"/>
      <point x="337" y="0" type="line"/>
      <point x="337" y="77" type="line"/>
      <point x="323" y="77"/>
      <point x="283" y="76"/>
      <point x="262" y="74" type="curve"/>
      <point x="264" y="91"/>
      <point x="266" y="128"/>
      <point x="266" y="164" type="curve" smooth="yes"/>
      <point x="266" y="547" type="line" smooth="yes"/>
      <point x="266" y="628"/>
      <point x="292" y="632"/>
      <point x="337" y="634" type="curve"/>
      <point x="337" y="700" type="line"/>
    </contour>
    <contour>
      <point x="190" y="971" type="line"/>
      <point x="25" y="821" type="line"/>
      <point x="52" y="776" type="line"/>
      <point x="195" y="861" type="line"/>
      <point x="334" y="774" type="line"/>
      <point x="366" y="821" type="line"/>
      <point x="209" y="971" type="line"/>
    </contour>
  </outline>
</glyph>
<glyph name="multiply" format="1">
  <advance width="560"/>
  <unicode hex="00D7"/>
  <outline>
    <contour>
      <point x="397" y="493"/>
      <point x="334" y="428"/>
      <point x="282" y="377" type="curve"/>
      <point x="125" y="536" type="line"/>
      <point x="46" y="461" type="line"/>
      <point x="205" y="304" type="line"/>
      <point x="45" y="147" type="line"/>
      <point x="116" y="74" type="line"/>
      <point x="276" y="232" type="line"/>
      <point x="439" y="65" type="line"/>
      <point x="516" y="140" type="line"/>
      <point x="353" y="307" type="line"/>
      <point x="513" y="468" type="line"/>
      <point x="446" y="541" type="line"/>
    </contour>
  </outline>
</glyph>
<glyph name="Oslash" format="1">
  <advance width="768"/>
  <unicode hex="00D8"/>
  <outline>
    <contour>
      <point x="537" y="686" type="line"/>
      <point x="494" y="705"/>
      <point x="444" y="716"/>
      <point x="386" y="716" type="curve" smooth="yes"/>
      <point x="149" y="716"/>
      <point x="35" y="518"/>
      <point x="35" y="350" type="curve" smooth="yes"/>
      <point x="35" y="239"/>
      <point x="74" y="121"/>
      <point x="167" y="50" type="curve"/>
      <point x="109" y="-49" type="line"/>
      <point x="184" y="-99" type="line"/>
      <point x="246" y="7" type="line"/>
      <point x="285" y="-8"/>
      <point x="331" y="-16"/>
      <point x="383" y="-16" type="curve" smooth="yes"/>
      <point x="620" y="-16"/>
      <point x="734" y="185"/>
      <point x="734" y="350" type="curve" smooth="yes"/>
      <point x="734" y="450"/>
      <point x="697" y="561"/>
      <point x="614" y="635" type="curve"/>
      <point x="675" y="737" type="line"/>
      <point x="596" y="787" type="line"/>
    </contour>
    <contour>
      <point x="566" y="468"/>
      <point x="576" y="404"/>
      <point x="576" y="333" type="curve" smooth="yes"/>
      <point x="576" y="210"/>
      <point x="532" y="58"/>
      <point x="394" y="57" type="curve" smooth="yes"/>
      <point x="354" y="57"/>
      <point x="321" y="69"/>
      <point x="294" y="89" type="curve"/>
      <point x="546" y="519" type="line"/>
    </contour>
    <contour>
      <point x="420" y="644"/>
      <point x="458" y="630"/>
      <point x="489" y="604" type="curve"/>
      <point x="234" y="166" type="line"/>
      <point x="204" y="226"/>
      <point x="192" y="300"/>
      <point x="192" y="362" type="curve" smooth="yes"/>
      <point x="192" y="485"/>
      <point x="236" y="640"/>
      <point x="373" y="643" type="curve" smooth="yes"/>
    </contour>
  </outline>
</glyph>
<glyph name="germandbls" format="1">
  <advance width="771"/>
  <unicode hex="00DF"/>
  <outline>
    <contour>
      <point x="235" y="755"/>
      <point x="119" y="699"/>
      <point x="104" y="500" type="curve"/>
      <point x="30" y="500" type="line"/>
      <point x="30" y="417" type="line"/>
      <point x="102" y="419" type="line"/>
      <point x="102" y="154" type="line" smooth="yes"/>
      <point x="102" y="101"/>
      <point x="98" y="65"/>
      <point x="42" y="65" type="curve"/>
      <point x="42" y="0" type="line"/>
      <point x="310" y="0" type="line"/>
      <point x="310" y="76" type="line"/>
      <point x="295" y="76"/>
      <point x="261" y="75"/>
      <point x="240" y="73" type="curve"/>
      <point x="243" y="103"/>
      <point x="244" y="144"/>
      <point x="244" y="163" type="curve"/>
      <point x="244" y="487" type="line" smooth="yes"/>
      <point x="244" y="640"/>
      <point x="308" y="678"/>
      <point x="368" y="680" type="curve" smooth="yes"/>
      <point x="418" y="681"/>
      <point x="493" y="665"/>
      <point x="494" y="512" type="curve"/>
      <point x="403" y="494"/>
      <point x="367" y="427"/>
      <point x="367" y="360" type="curve" smooth="yes"/>
      <point x="367" y="252"/>
      <point x="444" y="221"/>
      <point x="527" y="189" type="curve" smooth="yes"/>
      <point x="603" y="160"/>
      <point x="638" y="144"/>
      <point x="638" y="106" type="curve" smooth="yes"/>
      <point x="639" y="74"/>
      <point x="603" y="56"/>
      <point x="574" y="56" type="curve" smooth="yes"/>
      <point x="489" y="56"/>
      <point x="444" y="104"/>
      <point x="438" y="165" type="curve"/>
      <point x="374" y="165" type="line"/>
      <point x="378" y="-7" type="line"/>
      <point x="454" y="-7" type="line"/>
      <point x="451" y="23" type="line"/>
      <point x="452" y="23" type="line"/>
      <point x="483" y="0"/>
      <point x="522" y="-16"/>
      <point x="580" y="-16" type="curve" smooth="yes"/>
      <point x="673" y="-16"/>
      <point x="757" y="34"/>
      <point x="757" y="138" type="curve" smooth="yes"/>
      <point x="757" y="232"/>
      <point x="687" y="282"/>
      <point x="586" y="316" type="curve" smooth="yes"/>
      <point x="517" y="340"/>
      <point x="483" y="352"/>
      <point x="483" y="393" type="curve" smooth="yes"/>
      <point x="484" y="445"/>
      <point x="557" y="449"/>
      <point x="624" y="444" type="curve"/>
      <point x="653" y="735"/>
      <point x="450" y="755"/>
      <point x="375" y="755" type="curve" smooth="yes"/>
    </contour>
  </outline>
</glyph>
<glyph name="eth" format="1">
  <advance width="542"/>
  <unicode hex="00F0"/>
  <outline>
    <contour>
      <point x="224" y="723" type="line"/>
      <point x="193" y="738"/>
      <point x="148" y="754"/>
      <point x="89" y="760" type="curve"/>
      <point x="75" y="687" type="line"/>
      <point x="110" y="680"/>
      <point x="142" y="669"/>
      <point x="167" y="655" type="curve"/>
      <point x="118" y="598" type="line"/>
      <point x="178" y="544" type="line"/>
      <point x="236" y="615" type="line"/>
      <point x="278" y="587"/>
      <point x="336" y="520"/>
      <point x="350" y="467" type="curve"/>
      <point x="349" y="467" type="line"/>
      <point x="321" y="491"/>
      <point x="284" y="496"/>
      <point x="261" y="496" type="curve" smooth="yes"/>
      <point x="105" y="496"/>
      <point x="30" y="355"/>
      <point x="33" y="225" type="curve" smooth="yes"/>
      <point x="36" y="70"/>
      <point x="132" y="-16"/>
      <point x="262" y="-16" type="curve" smooth="yes"/>
      <point x="419" y="-16"/>
      <point x="496" y="114"/>
      <point x="496" y="270" type="curve" smooth="yes"/>
      <point x="496" y="454"/>
      <point x="413" y="605"/>
      <point x="291" y="688" type="curve"/>
      <point x="333" y="738" type="line"/>
      <point x="275" y="790" type="line"/>
    </contour>
    <contour>
      <point x="342" y="418"/>
      <point x="367" y="317"/>
      <point x="367" y="239" type="curve" smooth="yes"/>
      <point x="367" y="127"/>
      <point x="323" y="69"/>
      <point x="269" y="69" type="curve" smooth="yes"/>
      <point x="215" y="69"/>
      <point x="171" y="134"/>
      <point x="171" y="247" type="curve" smooth="yes"/>
      <point x="171" y="336"/>
      <point x="207" y="417"/>
      <point x="269" y="417" type="curve" smooth="yes"/>
    </contour>
  </outline>
</glyph>
<glyph name="oslash" format="1">
  <advance width="566"/>
  <unicode hex="00F8"/>
  <outline>
    <contour>
      <point x="394" y="494" type="line"/>
      <point x="360" y="508"/>
      <point x="323" y="516"/>
      <point x="283" y="516" type="curve" smooth="yes"/>
      <point x="146" y="516"/>
      <point x="31" y="405"/>
      <point x="31" y="239" type="curve" smooth="yes"/>
      <point x="31" y="157"/>
      <point x="60" y="92"/>
      <point x="108" y="48" type="curve"/>
      <point x="55" y="-36" type="line"/>
      <point x="116" y="-83" type="line"/>
      <point x="174" y="6" type="line"/>
      <point x="207" y="-8"/>
      <point x="245" y="-16"/>
      <point x="286" y="-16" type="curve" smooth="yes"/>
      <point x="432" y="-16"/>
      <point x="535" y="91"/>
      <point x="535" y="259" type="curve" smooth="yes"/>
      <point x="535" y="340"/>
      <point x="506" y="406"/>
      <point x="460" y="450" type="curve"/>
      <point x="512" y="531" type="line"/>
      <point x="445" y="574" type="line"/>
    </contour>
    <contour>
      <point x="385" y="296"/>
      <point x="387" y="264"/>
      <point x="387" y="234" type="curve" smooth="yes"/>
      <point x="387" y="149"/>
      <point x="369" y="56"/>
      <point x="290" y="55" type="curve" smooth="yes"/>
      <point x="263" y="54"/>
      <point x="242" y="66"/>
      <point x="225" y="85" type="curve"/>
      <point x="379" y="326" type="line"/>
      <point x="380" y="326" type="line"/>
    </contour>
    <contour>
      <point x="307" y="446"/>
      <point x="328" y="435"/>
      <point x="343" y="415" type="curve"/>
      <point x="188" y="171" type="line"/>
      <point x="187" y="171" type="line"/>
      <point x="180" y="201"/>
      <point x="178" y="234"/>
      <point x="178" y="266" type="curve" smooth="yes"/>
      <point x="178" y="353"/>
      <point x="203" y="444"/>
      <point x="281" y="446" type="curve" smooth="yes"/>
    </contour>
  </outline>
</glyph>
<glyph name="thorn" format="1">
  <advance width="573"/>
  <unicode hex="00FE"/>
  <outline>
    <contour>
      <point x="150" y="755" type="line"/>
      <point x="136" y="742"/>
      <point x="89" y="725"/>
      <point x="-4" y="725" type="curve"/>
      <point x="-4" y="649" type="line"/>
      <point x="10" y="650"/>
      <point x="45" y="651"/>
      <point x="66" y="652" type="curve"/>
      <point x="63" y="623"/>
      <point x="63" y="589"/>
      <point x="63" y="565" type="curve" smooth="yes"/>
      <point x="63" y="-101" type="line" smooth="yes"/>
      <point x="63" y="-154"/>
      <point x="59" y="-190"/>
      <point x="3" y="-190" type="curve"/>
      <point x="3" y="-255" type="line"/>
      <point x="265" y="-255" type="line"/>
      <point x="265" y="-179" type="line"/>
      <point x="251" y="-179"/>
      <point x="222" y="-180"/>
      <point x="200" y="-182" type="curve"/>
      <point x="203" y="-152"/>
      <point x="204" y="-113"/>
      <point x="204" y="-94" type="curve" smooth="yes"/>
      <point x="204" y="2" type="line"/>
      <point x="229" y="-7"/>
      <point x="257" y="-16"/>
      <point x="293" y="-16" type="curve" smooth="yes"/>
      <point x="441" y="-16"/>
      <point x="541" y="102"/>
      <point x="541" y="263" type="curve" smooth="yes"/>
      <point x="541" y="417"/>
      <point x="459" y="516"/>
      <point x="339" y="516" type="curve" smooth="yes"/>
      <point x="297" y="516"/>
      <point x="251" y="502"/>
      <point x="206" y="462" type="curve"/>
      <point x="204" y="462" type="line"/>
      <point x="204" y="755" type="line"/>
    </contour>
    <contour>
      <point x="362" y="428"/>
      <point x="394" y="339"/>
      <point x="394" y="248" type="curve" smooth="yes"/>
      <point x="394" y="149"/>
      <point x="369" y="61"/>
      <point x="276" y="59" type="curve" smooth="yes"/>
      <point x="248" y="58"/>
      <point x="218" y="67"/>
      <point x="204" y="77" type="curve"/>
      <point x="204" y="382" type="line"/>
      <point x="222" y="408"/>
      <point x="252" y="425"/>
      <point x="285" y="426" type="curve" smooth="yes"/>
    </contour>
  </outline>
</glyph>
<glyph name="dcroat" format="1">
  <advance width="596"/>
  <unicode hex="0111"/>
  <outline>
    <contour>
      <point x="456" y="755" type="line"/>
      <point x="442" y="742"/>
      <point x="395" y="725"/>
      <point x="302" y="725" type="curve"/>
      <point x="302" y="649" type="line"/>
      <point x="316" y="649"/>
      <point x="351" y="650"/>
      <point x="373" y="652" type="curve"/>
      <point x="370" y="622"/>
      <point x="369" y="583"/>
      <point x="369" y="564" type="curve" smooth="yes"/>
      <point x="369" y="449" type="line"/>
      <point x="344" y="458"/>
      <point x="316" y="467"/>
      <point x="280" y="467" type="curve" smooth="yes"/>
      <point x="131" y="467"/>
      <point x="32" y="357"/>
      <point x="32" y="208" type="curve" smooth="yes"/>
      <point x="32" y="83"/>
      <point x="114" y="-16"/>
      <point x="234" y="-16" type="curve" smooth="yes"/>
      <point x="284" y="-16"/>
      <point x="331" y="0"/>
      <point x="375" y="46" type="curve"/>
      <point x="376" y="46" type="line"/>
      <point x="381" y="0" type="line"/>
      <point x="571" y="0" type="line"/>
      <point x="571" y="76" type="line"/>
      <point x="557" y="76"/>
      <point x="528" y="75"/>
      <point x="506" y="73" type="curve"/>
      <point x="509" y="103"/>
      <point x="510" y="142"/>
      <point x="510" y="161" type="curve" smooth="yes"/>
      <point x="510" y="755" type="line"/>
    </contour>
    <contour>
      <point x="326" y="393"/>
      <point x="355" y="384"/>
      <point x="369" y="375" type="curve"/>
      <point x="369" y="123" type="line"/>
      <point x="351" y="95"/>
      <point x="320" y="75"/>
      <point x="286" y="75" type="curve" smooth="yes"/>
      <point x="209" y="75"/>
      <point x="179" y="137"/>
      <point x="179" y="223" type="curve" smooth="yes"/>
      <point x="179" y="313"/>
      <point x="216" y="393"/>
      <point x="298" y="393" type="curve" smooth="yes"/>
    </contour>
    <contour>
      <point x="205" y="601" type="line"/>
      <point x="205" y="523" type="line"/>
      <point x="586" y="527" type="line"/>
      <point x="586" y="601" type="line"/>
    </contour>
  </outline>
</glyph>
<glyph name="dotlessi" format="1">
  <advance width="327"/>
  <unicode hex="0131"/>
  <outline>
    <contour>
      <point x="188" y="510" type="line"/>
      <point x="174" y="497"/>
      <point x="126" y="480"/>
      <point x="34" y="480" type="curve"/>
      <point x="34" y="404" type="line"/>
      <point x="48" y="405"/>
      <point x="83" y="406"/>
      <point x="104" y="407" type="curve"/>
      <point x="101" y="377"/>
      <point x="100" y="344"/>
      <point x="100" y="320" type="curve" smooth="yes"/>
      <point x="100" y="154" type="line" smooth="yes"/>
      <point x="100" y="101"/>
      <point x="96" y="65"/>
      <point x="41" y="65" type="curve"/>
      <point x="41" y="0" type="line"/>
      <point x="303" y="0" type="line"/>
      <point x="303" y="76" type="line"/>
      <point x="289" y="76"/>
      <point x="259" y="75"/>
      <point x="238" y="73" type="curve"/>
      <point x="241" y="103"/>
      <point x="242" y="142"/>
      <point x="242" y="161" type="curve" smooth="yes"/>
      <point x="242" y="510" type="line"/>
    </contour>
  </outline>
</glyph>
<glyph name="Lslash" format="1">
  <advance width="605"/>
  <unicode hex="0141"/>
  <outline>
    <contour>
      <point x="50" y="700" type="line"/>
      <point x="50" y="623" type="line"/>
      <point x="64" y="623"/>
      <point x="104" y="624"/>
      <point x="125" y="625" type="curve"/>
      <point x="123" y="608"/>
      <point x="122" y="572"/>
      <point x="122" y="536" type="curve" smooth="yes"/>
      <point x="122" y="349" type="line"/>
      <point x="45" y="292" type="line"/>
      <point x="45" y="177" type="line"/>
      <point x="122" y="234" type="line"/>
      <point x="122" y="152" type="line" smooth="yes"/>
      <point x="122" y="72"/>
      <point x="95" y="68"/>
      <point x="50" y="65" type="curve"/>
      <point x="50" y="0" type="line"/>
      <point x="583" y="0" type="line"/>
      <point x="589" y="239" type="line"/>
      <point x="523" y="239" type="line"/>
      <point x="523" y="131"/>
      <point x="475" y="76"/>
      <point x="396" y="76" type="curve" smooth="yes"/>
      <point x="262" y="75" type="line"/>
      <point x="265" y="92"/>
      <point x="266" y="127"/>
      <point x="266" y="164" type="curve" smooth="yes"/>
      <point x="266" y="343" type="line"/>
      <point x="436" y="469" type="line"/>
      <point x="436" y="582" type="line"/>
      <point x="266" y="456" type="line"/>
      <point x="266" y="547" type="line" smooth="yes"/>
      <point x="266" y="627"/>
      <point x="292" y="631"/>
      <point x="337" y="634" type="curve"/>
      <point x="337" y="700" type="line"/>
    </contour>
  </outline>
</glyph>
<glyph name="lslash" format="1">
  <advance width="321"/>
  <unicode hex="0142"/>
  <outline>
    <contour>
      <point x="178" y="755" type="line"/>
      <point x="165" y="742"/>
      <point x="117" y="725"/>
      <point x="24" y="725" type="curve"/>
      <point x="24" y="649" type="line"/>
      <point x="39" y="650"/>
      <point x="73" y="651"/>
      <point x="95" y="652" type="curve"/>
      <point x="92" y="623"/>
      <point x="91" y="589"/>
      <point x="91" y="565" type="curve" smooth="yes"/>
      <point x="91" y="346" type="line"/>
      <point x="17" y="294" type="line"/>
      <point x="17" y="181" type="line"/>
      <point x="91" y="234" type="line"/>
      <point x="91" y="154" type="line" smooth="yes"/>
      <point x="91" y="101"/>
      <point x="87" y="65"/>
      <point x="31" y="65" type="curve"/>
      <point x="31" y="0" type="line"/>
      <point x="293" y="0" type="line"/>
      <point x="293" y="76" type="line"/>
      <point x="279" y="76"/>
      <point x="250" y="75"/>
      <point x="229" y="73" type="curve"/>
      <point x="231" y="103"/>
      <point x="232" y="142"/>
      <point x="232" y="161" type="curve" smooth="yes"/>
      <point x="232" y="335" type="line"/>
      <point x="296" y="381" type="line"/>
      <point x="296" y="491" type="line"/>
      <point x="232" y="446" type="line"/>
      <point x="232" y="755" type="line"/>
    </contour>
  </outline>
</glyph>
<glyph name="OE" format="1">
  <advance width="1028"/>
  <unicode hex="0152"/>
  <outline>
    <contour>
      <point x="141" y="716"/>
      <point x="36" y="520"/>
      <point x="36" y="337" type="curve" smooth="yes"/>
      <point x="36" y="139"/>
      <point x="172" y="-12"/>
      <point x="378" y="-16" type="curve" smooth="yes"/>
      <point x="422" y="-17"/>
      <point x="477" y="-14"/>
      <point x="525" y="0" type="curve"/>
      <point x="981" y="0" type="line"/>
      <point x="987" y="220" type="line"/>
      <point x="921" y="220" type="line"/>
      <point x="921" y="112"/>
      <point x="859" y="76"/>
      <point x="800" y="76" type="curve" smooth="yes"/>
      <point x="666" y="76" type="line"/>
      <point x="668" y="93"/>
      <point x="669" y="128"/>
      <point x="669" y="164" type="curve" smooth="yes"/>
      <point x="669" y="328" type="line"/>
      <point x="696" y="329" type="line" smooth="yes"/>
      <point x="750" y="330"/>
      <point x="794" y="325"/>
      <point x="794" y="241" type="curve"/>
      <point x="860" y="241" type="line"/>
      <point x="860" y="484" type="line"/>
      <point x="783" y="484" type="line"/>
      <point x="784" y="459"/>
      <point x="785" y="425"/>
      <point x="787" y="397" type="curve"/>
      <point x="669" y="397" type="line"/>
      <point x="669" y="547" type="line" smooth="yes"/>
      <point x="669" y="625"/>
      <point x="694" y="633"/>
      <point x="736" y="634" type="curve" smooth="yes"/>
      <point x="772" y="635" type="line" smooth="yes"/>
      <point x="827" y="637"/>
      <point x="894" y="615"/>
      <point x="894" y="506" type="curve"/>
      <point x="960" y="506" type="line"/>
      <point x="954" y="700" type="line"/>
      <point x="525" y="700" type="line"/>
      <point x="483" y="711"/>
      <point x="433" y="716"/>
      <point x="396" y="716" type="curve" smooth="yes"/>
    </contour>
    <contour>
      <point x="444" y="644"/>
      <point x="490" y="634"/>
      <point x="525" y="611" type="curve"/>
      <point x="525" y="82" type="line"/>
      <point x="489" y="67"/>
      <point x="449" y="62"/>
      <point x="403" y="65" type="curve" smooth="yes"/>
      <point x="268" y="75"/>
      <point x="193" y="188"/>
      <point x="193" y="360" type="curve" smooth="yes"/>
      <point x="193" y="504"/>
      <point x="255" y="644"/>
      <point x="395" y="644" type="curve" smooth="yes"/>
    </contour>
  </outline>
</glyph>
<glyph name="oe" format="1">
  <advance width="888"/>
  <unicode hex="0153"/>
  <outline>
    <contour>
      <point x="549" y="516"/>
      <point x="504" y="483"/>
      <point x="461" y="435" type="curve"/>
      <point x="459" y="435" type="line"/>
      <point x="418" y="486"/>
      <point x="374" y="516"/>
      <point x="283" y="516" type="curve" smooth="yes"/>
      <point x="146" y="516"/>
      <point x="31" y="405"/>
      <point x="31" y="239" type="curve" smooth="yes"/>
      <point x="31" y="82"/>
      <point x="141" y="-16"/>
      <point x="286" y="-16" type="curve" smooth="yes"/>
      <point x="353" y="-16"/>
      <point x="413" y="12"/>
      <point x="454" y="62" type="curve"/>
      <point x="455" y="62" type="line"/>
      <point x="493" y="12"/>
      <point x="559" y="-16"/>
      <point x="628" y="-16" type="curve" smooth="yes"/>
      <point x="696" y="-16"/>
      <point x="789" y="3"/>
      <point x="861" y="106" type="curve"/>
      <point x="816" y="148" type="line"/>
      <point x="770" y="92"/>
      <point x="709" y="73"/>
      <point x="669" y="73" type="curve" smooth="yes"/>
      <point x="560" y="73"/>
      <point x="523" y="167"/>
      <point x="523" y="263" type="curve"/>
      <point x="853" y="269" type="line"/>
      <point x="854" y="458"/>
      <point x="742" y="516"/>
      <point x="633" y="516" type="curve" smooth="yes"/>
    </contour>
    <contour>
      <point x="362" y="448"/>
      <point x="385" y="333"/>
      <point x="387" y="249" type="curve" smooth="yes"/>
      <point x="389" y="172"/>
      <point x="379" y="56"/>
      <point x="290" y="55" type="curve" smooth="yes"/>
      <point x="208" y="53"/>
      <point x="178" y="164"/>
      <point x="178" y="266" type="curve" smooth="yes"/>
      <point x="178" y="353"/>
      <point x="203" y="444"/>
      <point x="281" y="446" type="curve" smooth="yes"/>
    </contour>
    <contour>
      <point x="679" y="446"/>
      <point x="712" y="416"/>
      <point x="715" y="333" type="curve"/>
      <point x="531" y="333" type="line"/>
      <point x="541" y="400"/>
      <point x="573" y="446"/>
      <point x="632" y="446" type="curve" smooth="yes"/>
    </contour>
  </outline>
</glyph>
<glyph name="circumflex" format="1">
  <advance width="429"/>
  <unicode hex="02C6"/>
  <outline>
    <contour>
      <point x="215" y="783" type="line"/>
      <point x="44" y="617" type="line"/>
      <point x="86" y="569" type="line"/>
      <point x="214" y="667" type="line"/>
      <point x="215" y="667" type="line"/>
      <point x="342" y="562" type="line"/>
      <point x="385" y="613" type="line"/>
      <point x="225" y="783" type="line"/>
    </contour>
    <contour>
      <point x="215" y="500" type="move" name="_top"/>
    </contour>
  </outline>
</glyph>
<glyph name="dotaccent" format="1">
  <advance width="240"/>
  <unicode hex="02D9"/>
  <outline>
    <component base="period" xOffset="-2" yOffset="606" xScale="1.050" yScale="1.050"/>
    <contour>
      <point x="120" y="500" type="move" name="_top"/>
    </contour>
  </outline>
</glyph>
<glyph name="ogonek" format="1">
  <advance width="328"/>
  <unicode hex="02DB"/>
  <outline>
    <contour>
      <point x="155" y="12"/>
      <point x="44" y="-69"/>
      <point x="44" y="-162" type="curve" smooth="yes"/>
      <point x="44" y="-230"/>
      <point x="88" y="-265"/>
      <point x="152" y="-265" type="curve" smooth="yes"/>
      <point x="200" y="-265"/>
      <point x="249" y="-234"/>
      <point x="284" y="-188" type="curve"/>
      <point x="249" y="-145" type="line"/>
      <point x="228" y="-164"/>
      <point x="206" y="-174"/>
      <point x="187" y="-174" type="curve" smooth="yes"/>
      <point x="160" y="-174"/>
      <point x="144" y="-158"/>
      <point x="143" y="-134" type="curve" smooth="yes"/>
      <point x="141" y="-78"/>
      <point x="207" y="-26"/>
      <point x="270" y="0" type="curve"/>
      <point x="270" y="46" type="line"/>
    </contour>
    <contour>
      <point x="271" y="1" type="move" name="_ogonek"/>
    </contour>
  </outline>
</glyph>
<glyph name="tilde" format="1">
  <advance width="426"/>
  <unicode hex="02DC"/>
  <outline>
    <contour>
      <point x="318" y="722"/>
      <point x="296" y="703"/>
      <point x="273" y="703" type="curve" smooth="yes"/>
      <point x="225" y="703"/>
      <point x="213" y="741"/>
      <point x="151" y="741" type="curve" smooth="yes"/>
      <point x="106" y="741"/>
      <point x="56" y="699"/>
      <point x="34" y="638" type="curve"/>
      <point x="90" y="605" type="line"/>
      <point x="110" y="637"/>
      <point x="136" y="646"/>
      <point x="152" y="646" type="curve" smooth="yes"/>
      <point x="192" y="646"/>
      <point x="219" y="607"/>
      <point x="273" y="607" type="curve" smooth="yes"/>
      <point x="313" y="607"/>
      <point x="364" y="641"/>
      <point x="392" y="724" type="curve"/>
      <point x="335" y="753" type="line"/>
    </contour>
    <contour>
      <point x="213" y="500" type="move" name="_top"/>
    </contour>
  </outline>
</glyph>
<glyph name="hungarumlaut" format="1">
  <advance width="428"/>
  <unicode hex="02DD"/>
  <outline>
    <contour>
      <point x="366" y="796"/>
      <point x="321" y="781"/>
      <point x="288" y="743" type="curve" smooth="yes"/>
      <point x="189" y="628" type="line"/>
      <point x="228" y="581" type="line"/>
      <point x="357" y="676" type="line" smooth="yes"/>
      <point x="388" y="697"/>
      <point x="417" y="737"/>
      <point x="390" y="769" type="curve" smooth="yes"/>
    </contour>
    <contour>
      <point x="166" y="812"/>
      <point x="129" y="783"/>
      <point x="110" y="743" type="curve" smooth="yes"/>
      <point x="45" y="606" type="line"/>
      <point x="96" y="572" type="line"/>
      <point x="196" y="697" type="line" smooth="yes"/>
      <point x="218" y="726"/>
      <point x="231" y="772"/>
      <point x="197" y="793" type="curve" smooth="yes"/>
    </contour>
    <contour>
      <point x="197" y="500" type="move" name="_top"/>
    </contour>
  </outline>
</glyph>
<glyph name="commaaccent" format="1">
  <advance width="293"/>
  <unicode hex="0326"/>
  <outline>
    <contour>
      <point x="110" y="-54" type="line"/>
      <point x="128" y="-119"/>
      <point x="122" y="-172"/>
      <point x="77" y="-249" type="curve"/>
      <point x="122" y="-284" type="line"/>
      <point x="180" y="-230"/>
      <point x="221" y="-167"/>
      <point x="221" y="-108" type="curve"/>
      <point x="221" y="-84"/>
      <point x="214" y="-59"/>
      <point x="200" y="-36" type="curve"/>
    </contour>
    <contour>
      <point x="155" y="0" type="move" name="_bottom"/>
    </contour>
  </outline>
</glyph>
<glyph name="Delta" format="1">
  <advance width="697"/>
  <unicode hex="0394"/>
  <outline>
    <contour>
      <point x="302" y="716" type="line"/>
      <point x="29" y="0" type="line"/>
      <point x="670" y="0" type="line"/>
      <point x="380" y="716" type="line"/>
    </contour>
    <contour>
      <point x="383" y="389"/>
      <point x="446" y="235"/>
      <point x="511" y="70" type="curve"/>
      <point x="385" y="71"/>
      <point x="254" y="71"/>
      <point x="133" y="71" type="curve"/>
      <point x="316" y="561" type="line"/>
    </contour>
  </outline>
</glyph>
<glyph name="Dje-cy" format="1">
  <advance width="823"/>
  <unicode hex="0402"/>
  <outline>
    <contour>
      <point x="21" y="700" type="line"/>
      <point x="16" y="474" type="line"/>
      <point x="82" y="474" type="line"/>
      <point x="82" y="582"/>
      <point x="129" y="631"/>
      <point x="205" y="632" type="curve" smooth="yes"/>
      <point x="251" y="632" type="line"/>
      <point x="251" y="153" type="line" smooth="yes"/>
      <point x="251" y="72"/>
      <point x="225" y="68"/>
      <point x="180" y="66" type="curve"/>
      <point x="180" y="0" type="line"/>
      <point x="392" y="0" type="line"/>
      <point x="392" y="74" type="line"/>
      <point x="395" y="91"/>
      <point x="396" y="128"/>
      <point x="396" y="164" type="curve" smooth="yes"/>
      <point x="396" y="633" type="line"/>
      <point x="444" y="633" type="line" smooth="yes"/>
      <point x="520" y="634"/>
      <point x="567" y="590"/>
      <point x="567" y="500" type="curve"/>
      <point x="633" y="500" type="line"/>
      <point x="627" y="700" type="line"/>
    </contour>
    <contour>
      <point x="396" y="293" type="line"/>
      <point x="421" y="313"/>
      <point x="477" y="330"/>
      <point x="517" y="330" type="curve" smooth="yes"/>
      <point x="591" y="330"/>
      <point x="628" y="277"/>
      <point x="628" y="176" type="curve" smooth="yes"/>
      <point x="628" y="92"/>
      <point x="618" y="48"/>
      <point x="599" y="48" type="curve" smooth="yes"/>
      <point x="591" y="48"/>
      <point x="585" y="52"/>
      <point x="583" y="57" type="curve"/>
      <point x="592" y="101"/>
      <point x="565" y="134"/>
      <point x="524" y="133" type="curve" smooth="yes"/>
      <point x="483" y="132"/>
      <point x="461" y="100"/>
      <point x="461" y="66" type="curve" smooth="yes"/>
      <point x="461" y="23"/>
      <point x="495" y="-17"/>
      <point x="566" y="-17" type="curve" smooth="yes"/>
      <point x="693" y="-17"/>
      <point x="752" y="114"/>
      <point x="752" y="219" type="curve" smooth="yes"/>
      <point x="752" y="324"/>
      <point x="692" y="422"/>
      <point x="573" y="422" type="curve" smooth="yes"/>
      <point x="513" y="422"/>
      <point x="444" y="396"/>
      <point x="396" y="366" type="curve"/>
    </contour>
  </outline>
</glyph>
<glyph name="Lje-cy" format="1">
  <advance width="1051"/>
  <unicode hex="0409"/>
  <outline>
    <contour>
      <point x="666" y="407" type="line"/>
      <point x="666" y="547" type="line" smooth="yes"/>
      <point x="666" y="628"/>
      <point x="692" y="632"/>
      <point x="737" y="634" type="curve"/>
      <point x="737" y="700" type="line"/>
      <point x="161" y="700" type="line"/>
      <point x="161" y="623" type="line"/>
      <point x="297" y="626" type="line"/>
      <point x="257" y="221"/>
      <point x="235" y="55"/>
      <point x="177" y="55" type="curve" smooth="yes"/>
      <point x="169" y="55"/>
      <point x="165" y="56"/>
      <point x="162" y="59" type="curve"/>
      <point x="167" y="70"/>
      <point x="171" y="84"/>
      <point x="170" y="96" type="curve" smooth="yes"/>
      <point x="169" y="129"/>
      <point x="148" y="163"/>
      <point x="102" y="161" type="curve" smooth="yes"/>
      <point x="54" y="158"/>
      <point x="29" y="120"/>
      <point x="29" y="73" type="curve" smooth="yes"/>
      <point x="29" y="16"/>
      <point x="68" y="-16"/>
      <point x="152" y="-16" type="curve" smooth="yes"/>
      <point x="271" y="-16"/>
      <point x="316" y="45"/>
      <point x="374" y="563" type="curve" smooth="yes"/>
      <point x="379" y="610"/>
      <point x="396" y="621"/>
      <point x="441" y="622" type="curve" smooth="yes"/>
      <point x="521" y="625" type="line"/>
      <point x="521" y="153" type="line" smooth="yes"/>
      <point x="521" y="72"/>
      <point x="495" y="68"/>
      <point x="450" y="66" type="curve"/>
      <point x="450" y="0" type="line"/>
      <point x="766" y="0" type="line" smooth="yes"/>
      <point x="906" y="0"/>
      <point x="1009" y="69"/>
      <point x="1009" y="199" type="curve" smooth="yes"/>
      <point x="1009" y="305"/>
      <point x="940" y="418"/>
      <point x="702" y="409" type="curve" smooth="yes"/>
    </contour>
    <contour>
      <point x="666" y="336" type="line"/>
      <point x="723" y="337" type="line" smooth="yes"/>
      <point x="797" y="339"/>
      <point x="852" y="306"/>
      <point x="852" y="207" type="curve" smooth="yes"/>
      <point x="852" y="128"/>
      <point x="816" y="76"/>
      <point x="735" y="72" type="curve" smooth="yes"/>
      <point x="711" y="71"/>
      <point x="686" y="71"/>
      <point x="662" y="71" type="curve"/>
      <point x="665" y="88"/>
      <point x="666" y="123"/>
      <point x="666" y="159" type="curve" smooth="yes"/>
    </contour>
  </outline>
</glyph>
<glyph name="Nje-cy" format="1">
  <advance width="1070"/>
  <unicode hex="040A"/>
  <outline>
    <contour>
      <point x="686" y="407" type="line"/>
      <point x="686" y="547" type="line" smooth="yes"/>
      <point x="686" y="628"/>
      <point x="712" y="632"/>
      <point x="757" y="634" type="curve"/>
      <point x="757" y="700" type="line"/>
      <point x="470" y="700" type="line"/>
      <point x="470" y="623" type="line"/>
      <point x="484" y="624"/>
      <point x="523" y="625"/>
      <point x="545" y="626" type="curve"/>
      <point x="542" y="609"/>
      <point x="541" y="572"/>
      <point x="541" y="536" type="curve" smooth="yes"/>
      <point x="541" y="407" type="line"/>
      <point x="266" y="407" type="line"/>
      <point x="266" y="547" type="line" smooth="yes"/>
      <point x="266" y="628"/>
      <point x="292" y="632"/>
      <point x="337" y="634" type="curve"/>
      <point x="337" y="700" type="line"/>
      <point x="50" y="700" type="line"/>
      <point x="50" y="623" type="line"/>
      <point x="64" y="624"/>
      <point x="104" y="625"/>
      <point x="125" y="626" type="curve"/>
      <point x="123" y="609"/>
      <point x="121" y="572"/>
      <point x="121" y="536" type="curve" smooth="yes"/>
      <point x="121" y="153" type="line" smooth="yes"/>
      <point x="121" y="72"/>
      <point x="95" y="68"/>
      <point x="50" y="66" type="curve"/>
      <point x="50" y="0" type="line"/>
      <point x="337" y="0" type="line"/>
      <point x="337" y="77" type="line"/>
      <point x="323" y="77"/>
      <point x="283" y="76"/>
      <point x="262" y="74" type="curve"/>
      <point x="264" y="91"/>
      <point x="266" y="128"/>
      <point x="266" y="164" type="curve" smooth="yes"/>
      <point x="266" y="328" type="line"/>
      <point x="541" y="332" type="line"/>
      <point x="541" y="153" type="line" smooth="yes"/>
      <point x="541" y="72"/>
      <point x="515" y="68"/>
      <point x="470" y="66" type="curve"/>
      <point x="470" y="0" type="line"/>
      <point x="786" y="0" type="line" smooth="yes"/>
      <point x="926" y="0"/>
      <point x="1029" y="69"/>
      <point x="1029" y="199" type="curve" smooth="yes"/>
      <point x="1029" y="305"/>
      <point x="960" y="418"/>
      <point x="721" y="409" type="curve" smooth="yes"/>
    </contour>
    <contour>
      <point x="686" y="336" type="line"/>
      <point x="742" y="337" type="line" smooth="yes"/>
      <point x="817" y="339"/>
      <point x="871" y="306"/>
      <point x="871" y="207" type="curve" smooth="yes"/>
      <point x="871" y="128"/>
      <point x="836" y="76"/>
      <point x="755" y="72" type="curve" smooth="yes"/>
      <point x="731" y="71"/>
      <point x="706" y="71"/>
      <point x="682" y="71" type="curve"/>
      <point x="684" y="88"/>
      <point x="686" y="123"/>
      <point x="686" y="159" type="curve" smooth="yes"/>
    </contour>
  </outline>
</glyph>
<glyph name="Tshe-cy" format="1">
  <advance width="894"/>
  <unicode hex="040B"/>
  <outline>
    <contour>
      <point x="646" y="210" type="line"/>
      <point x="646" y="153" type="line" smooth="yes"/>
      <point x="646" y="72"/>
      <point x="620" y="68"/>
      <point x="575" y="66" type="curve"/>
      <point x="575" y="0" type="line"/>
      <point x="862" y="0" type="line"/>
      <point x="862" y="77" type="line"/>
      <point x="848" y="77"/>
      <point x="809" y="76"/>
      <point x="787" y="74" type="curve"/>
      <point x="790" y="91"/>
      <point x="791" y="128"/>
      <point x="791" y="164" type="curve" smooth="yes"/>
      <point x="791" y="208" type="line"/>
    </contour>
    <contour>
      <point x="515" y="422"/>
      <point x="444" y="396"/>
      <point x="396" y="366" type="curve"/>
      <point x="396" y="293" type="line"/>
      <point x="421" y="313"/>
      <point x="477" y="330"/>
      <point x="529" y="330" type="curve" smooth="yes"/>
      <point x="608" y="330"/>
      <point x="646" y="292"/>
      <point x="646" y="210" type="curve"/>
      <point x="791" y="208" type="line"/>
      <point x="791" y="357"/>
      <point x="718" y="422"/>
      <point x="593" y="422" type="curve" smooth="yes"/>
    </contour>
    <contour>
      <point x="21" y="700" type="line"/>
      <point x="16" y="474" type="line"/>
      <point x="82" y="474" type="line"/>
      <point x="82" y="582"/>
      <point x="129" y="631"/>
      <point x="205" y="632" type="curve" smooth="yes"/>
      <point x="251" y="632" type="line"/>
      <point x="251" y="153" type="line" smooth="yes"/>
      <point x="251" y="72"/>
      <point x="225" y="68"/>
      <point x="180" y="66" type="curve"/>
      <point x="180" y="0" type="line"/>
      <point x="472" y="0" type="line"/>
      <point x="472" y="77" type="line"/>
      <point x="458" y="77"/>
      <point x="414" y="76"/>
      <point x="392" y="74" type="curve"/>
      <point x="395" y="91"/>
      <point x="396" y="128"/>
      <point x="396" y="164" type="curve" smooth="yes"/>
      <point x="396" y="633" type="line"/>
      <point x="444" y="633" type="line" smooth="yes"/>
      <point x="520" y="634"/>
      <point x="567" y="590"/>
      <point x="567" y="500" type="curve"/>
      <point x="633" y="500" type="line"/>
      <point x="627" y="700" type="line"/>
    </contour>
  </outline>
</glyph>
<glyph name="Ushort-cy" format="1">
  <advance width="658"/>
  <unicode hex="040E"/>
  <outline>
    <contour>
      <point x="445" y="928"/>
      <point x="433" y="885"/>
      <point x="433" y="870" type="curve" smooth="yes"/>
      <point x="433" y="858"/>
      <point x="436" y="844"/>
      <point x="442" y="830" type="curve"/>
      <point x="423" y="817"/>
      <point x="392" y="810"/>
      <point x="361" y="810" type="curve" smooth="yes"/>
      <point x="330" y="810"/>
      <point x="299" y="817"/>
      <point x="279" y="830" type="curve"/>
      <point x="286" y="844"/>
      <point x="289" y="858"/>
      <point x="289" y="870" type="curve" smooth="yes"/>
      <point x="289" y="885"/>
      <point x="277" y="928"/>
      <point x="230" y="926" type="curve" smooth="yes"/>
      <point x="191" y="926"/>
      <point x="175" y="895"/>
      <point x="175" y="863" type="curve" smooth="yes"/>
      <point x="175" y="795"/>
      <point x="262" y="760"/>
      <point x="361" y="760" type="curve" smooth="yes"/>
      <point x="460" y="760"/>
      <point x="547" y="795"/>
      <point x="547" y="863" type="curve" smooth="yes"/>
      <point x="547" y="895"/>
      <point x="530" y="926"/>
      <point x="492" y="926" type="curve" smooth="yes"/>
    </contour>
    <component base="U-cy"/>
  </outline>
</glyph>
<glyph name="Be-cy" format="1">
  <advance width="661"/>
  <unicode hex="0411"/>
  <outline>
    <contour>
      <point x="266" y="407" type="line"/>
      <point x="266" y="547" type="line" smooth="yes"/>
      <point x="266" y="625"/>
      <point x="291" y="634"/>
      <point x="333" y="634" type="curve" smooth="yes"/>
      <point x="398" y="635" type="line" smooth="yes"/>
      <point x="452" y="636"/>
      <point x="520" y="615"/>
      <point x="520" y="506" type="curve"/>
      <point x="585" y="506" type="line"/>
      <point x="580" y="700" type="line"/>
      <point x="50" y="700" type="line"/>
      <point x="50" y="623" type="line"/>
      <point x="64" y="624"/>
      <point x="104" y="625"/>
      <point x="125" y="626" type="curve"/>
      <point x="123" y="609"/>
      <point x="121" y="572"/>
      <point x="121" y="536" type="curve" smooth="yes"/>
      <point x="121" y="153" type="line" smooth="yes"/>
      <point x="121" y="72"/>
      <point x="95" y="68"/>
      <point x="50" y="66" type="curve"/>
      <point x="50" y="0" type="line"/>
      <point x="390" y="0" type="line" smooth="yes"/>
      <point x="530" y="0"/>
      <point x="633" y="70"/>
      <point x="633" y="203" type="curve" smooth="yes"/>
      <point x="633" y="315"/>
      <point x="587" y="416"/>
      <point x="326" y="409" type="curve" smooth="yes"/>
    </contour>
    <contour>
      <point x="266" y="336" type="line"/>
      <point x="292" y="338"/>
      <point x="313" y="337"/>
      <point x="347" y="337" type="curve" smooth="yes"/>
      <point x="411" y="337"/>
      <point x="476" y="310"/>
      <point x="476" y="207" type="curve" smooth="yes"/>
      <point x="476" y="130"/>
      <point x="440" y="76"/>
      <point x="359" y="72" type="curve" smooth="yes"/>
      <point x="328" y="71"/>
      <point x="297" y="71"/>
      <point x="262" y="71" type="curve"/>
      <point x="264" y="88"/>
      <point x="266" y="123"/>
      <point x="266" y="159" type="curve" smooth="yes"/>
    </contour>
  </outline>
</glyph>
<glyph name="De-cy" format="1">
  <advance width="745"/>
  <unicode hex="0414"/>
  <outline>
    <contour>
      <point x="611" y="547" type="line" smooth="yes"/>
      <point x="611" y="628"/>
      <point x="638" y="632"/>
      <point x="683" y="634" type="curve"/>
      <point x="683" y="700" type="line"/>
      <point x="122" y="700" type="line"/>
      <point x="122" y="623" type="line"/>
      <point x="226" y="626" type="line"/>
      <point x="226" y="558" type="line" smooth="yes"/>
      <point x="229" y="248"/>
      <point x="162" y="74"/>
      <point x="64" y="74" type="curve"/>
      <point x="119" y="8" type="line"/>
      <point x="203" y="47"/>
      <point x="297" y="206"/>
      <point x="302" y="563" type="curve" smooth="yes"/>
      <point x="302" y="610"/>
      <point x="325" y="621"/>
      <point x="369" y="622" type="curve" smooth="yes"/>
      <point x="467" y="625" type="line"/>
      <point x="467" y="161" type="line" smooth="yes"/>
      <point x="467" y="81"/>
      <point x="423" y="77"/>
      <point x="378" y="74" type="curve"/>
      <point x="378" y="0" type="line"/>
      <point x="683" y="0" type="line"/>
      <point x="683" y="77" type="line"/>
      <point x="668" y="77"/>
      <point x="629" y="76"/>
      <point x="607" y="74" type="curve"/>
      <point x="610" y="91"/>
      <point x="611" y="128"/>
      <point x="611" y="164" type="curve" smooth="yes"/>
    </contour>
    <contour>
      <point x="605" y="74" type="line"/>
      <point x="27" y="74" type="line"/>
      <point x="27" y="-178" type="line"/>
      <point x="99" y="-178" type="line"/>
      <point x="98" y="-73"/>
      <point x="113" y="0"/>
      <point x="165" y="0" type="curve" smooth="yes"/>
      <point x="575" y="0" type="line" smooth="yes"/>
      <point x="627" y="0"/>
      <point x="642" y="-73"/>
      <point x="641" y="-178" type="curve"/>
      <point x="713" y="-178" type="line"/>
      <point x="713" y="78" type="line"/>
    </contour>
  </outline>
</glyph>
<glyph name="Ze-cy" format="1">
  <advance width="661"/>
  <unicode hex="0417"/>
  <outline>
    <contour>
      <point x="234" y="394" type="line"/>
      <point x="234" y="323" type="line"/>
      <point x="361" y="323" type="line"/>
      <point x="418" y="323"/>
      <point x="475" y="283"/>
      <point x="475" y="201" type="curve" smooth="yes"/>
      <point x="475" y="105"/>
      <point x="396" y="65"/>
      <point x="316" y="65" type="curve"/>
      <point x="228" y="65"/>
      <point x="136" y="111"/>
      <point x="80" y="188" type="curve"/>
      <point x="32" y="144" type="line"/>
      <point x="124" y="9"/>
      <point x="236" y="-16"/>
      <point x="333" y="-16" type="curve"/>
      <point x="498" y="-19"/>
      <point x="633" y="56"/>
      <point x="633" y="190" type="curve" smooth="yes"/>
      <point x="633" y="278"/>
      <point x="576" y="352"/>
      <point x="454" y="371" type="curve"/>
      <point x="454" y="394" type="line"/>
    </contour>
    <contour>
      <point x="423" y="361" type="line"/>
      <point x="541" y="386"/>
      <point x="595" y="456"/>
      <point x="595" y="543" type="curve" smooth="yes"/>
      <point x="595" y="653"/>
      <point x="504" y="720"/>
      <point x="352" y="716" type="curve"/>
      <point x="273" y="716"/>
      <point x="225" y="699"/>
      <point x="156" y="667" type="curve"/>
      <point x="155" y="667" type="line"/>
      <point x="159" y="709" type="line"/>
      <point x="82" y="709" type="line"/>
      <point x="82" y="476" type="line"/>
      <point x="147" y="476" type="line"/>
      <point x="176" y="587"/>
      <point x="224" y="644"/>
      <point x="322" y="644" type="curve" smooth="yes"/>
      <point x="402" y="644"/>
      <point x="447" y="604"/>
      <point x="447" y="522" type="curve" smooth="yes"/>
      <point x="447" y="453"/>
      <point x="415" y="394"/>
      <point x="324" y="394" type="curve"/>
    </contour>
  </outline>
</glyph>
<glyph name="Ii-cy" format="1">
  <advance width="807"/>
  <unicode hex="0418"/>
  <outline>
    <contour>
      <point x="266" y="547" type="line" smooth="yes"/>
      <point x="266" y="628"/>
      <point x="292" y="632"/>
      <point x="337" y="634" type="curve"/>
      <point x="337" y="700" type="line"/>
      <point x="50" y="700" type="line"/>
      <point x="50" y="623" type="line"/>
      <point x="64" y="624"/>
      <point x="104" y="625"/>
      <point x="125" y="626" type="curve"/>
      <point x="123" y="609"/>
      <point x="121" y="572"/>
      <point x="121" y="536" type="curve" smooth="yes"/>
      <point x="121" y="153" type="line" smooth="yes"/>
      <point x="121" y="72"/>
      <point x="95" y="68"/>
      <point x="50" y="66" type="curve"/>
      <point x="50" y="0" type="line"/>
      <point x="337" y="0" type="line"/>
      <point x="337" y="77" type="line"/>
      <point x="323" y="77"/>
      <point x="283" y="76"/>
      <point x="262" y="74" type="curve"/>
      <point x="264" y="91"/>
      <point x="266" y="128"/>
      <point x="266" y="164" type="curve" smooth="yes"/>
    </contour>
    <contour>
      <point x="553" y="153" type="line" smooth="yes"/>
      <point x="553" y="72"/>
      <point x="527" y="68"/>
      <point x="482" y="66" type="curve"/>
      <point x="482" y="0" type="line"/>
      <point x="769" y="0" type="line"/>
      <point x="769" y="77" type="line"/>
      <point x="755" y="77"/>
      <point x="715" y="76"/>
      <point x="694" y="74" type="curve"/>
      <point x="696" y="91"/>
      <point x="698" y="128"/>
      <point x="698" y="164" type="curve" smooth="yes"/>
      <point x="698" y="547" type="line" smooth="yes"/>
      <point x="698" y="628"/>
      <point x="724" y="632"/>
      <point x="769" y="634" type="curve"/>
      <point x="769" y="700" type="line"/>
      <point x="482" y="700" type="line"/>
      <point x="482" y="623" type="line"/>
      <point x="496" y="624"/>
      <point x="536" y="625"/>
      <point x="557" y="626" type="curve"/>
      <point x="555" y="609"/>
      <point x="553" y="572"/>
      <point x="553" y="536" type="curve" smooth="yes"/>
    </contour>
    <contour>
      <point x="630" y="670" type="line"/>
      <point x="128" y="80" type="line"/>
      <point x="179" y="29" type="line"/>
      <point x="678" y="622" type="line"/>
    </contour>
  </outline>
</glyph>
<glyph name="Iishort-cy" format="1">
  <advance width="807"/>
  <unicode hex="0419"/>
  <outline>
    <contour>
      <point x="499" y="928"/>
      <point x="486" y="885"/>
      <point x="486" y="870" type="curve" smooth="yes"/>
      <point x="486" y="858"/>
      <point x="489" y="844"/>
      <point x="496" y="830" type="curve"/>
      <point x="477" y="817"/>
      <point x="445" y="810"/>
      <point x="415" y="810" type="curve" smooth="yes"/>
      <point x="384" y="810"/>
      <point x="353" y="817"/>
      <point x="333" y="830" type="curve"/>
      <point x="340" y="844"/>
      <point x="343" y="858"/>
      <point x="343" y="870" type="curve" smooth="yes"/>
      <point x="343" y="885"/>
      <point x="331" y="928"/>
      <point x="284" y="926" type="curve" smooth="yes"/>
      <point x="245" y="926"/>
      <point x="229" y="895"/>
      <point x="229" y="863" type="curve" smooth="yes"/>
      <point x="229" y="795"/>
      <point x="315" y="760"/>
      <point x="415" y="760" type="curve" smooth="yes"/>
      <point x="514" y="760"/>
      <point x="601" y="795"/>
      <point x="601" y="863" type="curve" smooth="yes"/>
      <point x="601" y="895"/>
      <point x="584" y="926"/>
      <point x="545" y="926" type="curve" smooth="yes"/>
    </contour>
    <component base="Ii-cy"/>
  </outline>
</glyph>
<glyph name="Ef-cy" format="1">
  <advance width="857"/>
  <unicode hex="0424"/>
  <outline>
    <contour>
      <point x="160" y="645"/>
      <point x="35" y="509"/>
      <point x="35" y="343" type="curve" smooth="yes"/>
      <point x="35" y="197"/>
      <point x="139" y="70"/>
      <point x="417" y="70" type="curve" smooth="yes"/>
      <point x="690" y="70"/>
      <point x="822" y="200"/>
      <point x="822" y="350" type="curve" smooth="yes"/>
      <point x="822" y="499"/>
      <point x="701" y="645"/>
      <point x="419" y="645" type="curve" smooth="yes"/>
    </contour>
    <contour>
      <point x="593" y="581"/>
      <point x="674" y="486"/>
      <point x="674" y="333" type="curve" smooth="yes"/>
      <point x="674" y="193"/>
      <point x="599" y="134"/>
      <point x="427" y="134" type="curve" smooth="yes"/>
      <point x="263" y="134"/>
      <point x="183" y="213"/>
      <point x="183" y="355" type="curve" smooth="yes"/>
      <point x="183" y="491"/>
      <point x="254" y="581"/>
      <point x="417" y="581" type="curve" smooth="yes"/>
    </contour>
    <contour>
      <point x="286" y="769" type="line"/>
      <point x="286" y="692" type="line"/>
      <point x="361" y="695" type="line"/>
      <point x="358" y="678"/>
      <point x="357" y="641"/>
      <point x="357" y="605" type="curve" smooth="yes"/>
      <point x="357" y="99" type="line" smooth="yes"/>
      <point x="357" y="19"/>
      <point x="331" y="15"/>
      <point x="286" y="12" type="curve"/>
      <point x="286" y="-54" type="line"/>
      <point x="563" y="-54" type="line"/>
      <point x="563" y="23" type="line"/>
      <point x="488" y="21" type="line"/>
      <point x="490" y="38"/>
      <point x="492" y="74"/>
      <point x="492" y="110" type="curve" smooth="yes"/>
      <point x="492" y="616" type="line" smooth="yes"/>
      <point x="492" y="697"/>
      <point x="518" y="701"/>
      <point x="563" y="703" type="curve"/>
      <point x="563" y="769" type="line"/>
    </contour>
  </outline>
</glyph>
<glyph name="Tse-cy" format="1">
  <advance width="813"/>
  <unicode hex="0426"/>
  <outline>
    <contour>
      <point x="752" y="77" type="line"/>
      <point x="644" y="72" type="line"/>
      <point x="644" y="0" type="line"/>
      <point x="696" y="0"/>
      <point x="711" y="-73"/>
      <point x="709" y="-177" type="curve"/>
      <point x="782" y="-177" type="line"/>
      <point x="782" y="78" type="line"/>
    </contour>
    <component base="Pe-cy" xOffset="802" yOffset="700" xScale="-1" yScale="-1"/>
  </outline>
</glyph>
<glyph name="Che-cy" format="1">
  <advance width="779"/>
  <unicode hex="0427"/>
  <outline>
    <contour>
      <point x="513" y="153" type="line"/>
      <point x="513" y="72"/>
      <point x="487" y="68"/>
      <point x="442" y="66" type="curve"/>
      <point x="442" y="0" type="line"/>
      <point x="729" y="0" type="line"/>
      <point x="729" y="77" type="line"/>
      <point x="715" y="77"/>
      <point x="675" y="76"/>
      <point x="654" y="74" type="curve"/>
      <point x="656" y="91"/>
      <point x="658" y="128"/>
      <point x="658" y="164" type="curve" smooth="yes"/>
      <point x="658" y="547" type="line" smooth="yes"/>
      <point x="658" y="628"/>
      <point x="684" y="632"/>
      <point x="729" y="634" type="curve"/>
      <point x="729" y="700" type="line"/>
      <point x="442" y="700" type="line"/>
      <point x="442" y="623" type="line"/>
      <point x="456" y="624"/>
      <point x="496" y="625"/>
      <point x="517" y="626" type="curve"/>
      <point x="515" y="609"/>
      <point x="513" y="572"/>
      <point x="513" y="536" type="curve"/>
    </contour>
    <contour>
      <point x="248" y="466" type="line"/>
      <point x="248" y="547" type="line" smooth="yes"/>
      <point x="248" y="628"/>
      <point x="274" y="632"/>
      <point x="319" y="634" type="curve"/>
      <point x="319" y="700" type="line"/>
      <point x="32" y="700" type="line"/>
      <point x="32" y="623" type="line"/>
      <point x="46" y="624"/>
      <point x="85" y="625"/>
      <point x="107" y="626" type="curve"/>
      <point x="104" y="609"/>
      <point x="103" y="572"/>
      <point x="103" y="536" type="curve" smooth="yes"/>
      <point x="103" y="467" type="line"/>
    </contour>
    <contour>
      <point x="370" y="254"/>
      <point x="461" y="279"/>
      <point x="513" y="310" type="curve"/>
      <point x="513" y="383" type="line"/>
      <point x="484" y="363"/>
      <point x="423" y="346"/>
      <point x="365" y="346" type="curve" smooth="yes"/>
      <point x="286" y="346"/>
      <point x="249" y="384"/>
      <point x="248" y="466" type="curve"/>
      <point x="103" y="467" type="line"/>
      <point x="104" y="318"/>
      <point x="176" y="254"/>
      <point x="301" y="254" type="curve" smooth="yes"/>
    </contour>
  </outline>
</glyph>
<glyph name="Shcha-cy" format="1">
  <advance width="1111"/>
  <unicode hex="0429"/>
  <outline>
    <contour>
      <point x="1050" y="77" type="line"/>
      <point x="941" y="72" type="line"/>
      <point x="941" y="0" type="line"/>
      <point x="994" y="0"/>
      <point x="1009" y="-73"/>
      <point x="1007" y="-177" type="curve"/>
      <point x="1080" y="-177" type="line"/>
      <point x="1080" y="78" type="line"/>
    </contour>
    <component base="Sha-cy"/>
  </outline>
</glyph>
<glyph name="Hardsign-cy" format="1">
  <advance width="781"/>
  <unicode hex="042A"/>
  <outline>
    <contour>
      <point x="396" y="407" type="line"/>
      <point x="396" y="547" type="line" smooth="yes"/>
      <point x="396" y="628"/>
      <point x="422" y="632"/>
      <point x="467" y="634" type="curve"/>
      <point x="467" y="700" type="line"/>
      <point x="21" y="700" type="line"/>
      <point x="16" y="474" type="line"/>
      <point x="82" y="474" type="line"/>
      <point x="82" y="582"/>
      <point x="129" y="631"/>
      <point x="205" y="632" type="curve" smooth="yes"/>
      <point x="251" y="632" type="line"/>
      <point x="251" y="153" type="line" smooth="yes"/>
      <point x="251" y="72"/>
      <point x="225" y="68"/>
      <point x="180" y="66" type="curve"/>
      <point x="180" y="0" type="line"/>
      <point x="496" y="0" type="line" smooth="yes"/>
      <point x="636" y="0"/>
      <point x="739" y="69"/>
      <point x="739" y="199" type="curve" smooth="yes"/>
      <point x="739" y="305"/>
      <point x="670" y="418"/>
      <point x="432" y="409" type="curve" smooth="yes"/>
    </contour>
    <contour>
      <point x="396" y="336" type="line"/>
      <point x="453" y="337" type="line" smooth="yes"/>
      <point x="527" y="339"/>
      <point x="582" y="306"/>
      <point x="582" y="207" type="curve" smooth="yes"/>
      <point x="582" y="128"/>
      <point x="546" y="76"/>
      <point x="465" y="72" type="curve" smooth="yes"/>
      <point x="441" y="71"/>
      <point x="416" y="71"/>
      <point x="392" y="71" type="curve"/>
      <point x="395" y="88"/>
      <point x="396" y="123"/>
      <point x="396" y="159" type="curve" smooth="yes"/>
    </contour>
  </outline>
</glyph>
<glyph name="Ereversed-cy" format="1">
  <advance width="705"/>
  <unicode hex="042D"/>
  <outline>
    <contour>
      <point x="263" y="397" type="line"/>
      <point x="267" y="459" type="line"/>
      <point x="195" y="459" type="line"/>
      <point x="195" y="241" type="line"/>
      <point x="256" y="241" type="line"/>
      <point x="256" y="325"/>
      <point x="300" y="329"/>
      <point x="354" y="329" type="curve" smooth="yes"/>
      <point x="532" y="328" type="line"/>
      <point x="532" y="397" type="line"/>
    </contour>
    <contour>
      <point x="269" y="716"/>
      <point x="202" y="699"/>
      <point x="149" y="667" type="curve"/>
      <point x="148" y="667" type="line"/>
      <point x="151" y="709" type="line"/>
      <point x="74" y="709" type="line"/>
      <point x="74" y="490" type="line"/>
      <point x="140" y="490" type="line"/>
      <point x="158" y="592"/>
      <point x="214" y="643"/>
      <point x="308" y="644" type="curve" smooth="yes"/>
      <point x="447" y="644"/>
      <point x="513" y="504"/>
      <point x="513" y="360" type="curve" smooth="yes"/>
      <point x="513" y="188"/>
      <point x="438" y="65"/>
      <point x="303" y="65" type="curve" smooth="yes"/>
      <point x="220" y="65"/>
      <point x="130" y="111"/>
      <point x="75" y="188" type="curve"/>
      <point x="27" y="144" type="line"/>
      <point x="125" y="9"/>
      <point x="245" y="-16"/>
      <point x="328" y="-16" type="curve" smooth="yes"/>
      <point x="534" y="-16"/>
      <point x="670" y="141"/>
      <point x="670" y="340" type="curve" smooth="yes"/>
      <point x="670" y="522"/>
      <point x="554" y="716"/>
      <point x="321" y="716" type="curve" smooth="yes"/>
    </contour>
  </outline>
</glyph>
<glyph name="Iu-cy" format="1">
  <advance width="1119"/>
  <unicode hex="042E"/>
  <outline>
    <contour>
      <point x="536" y="391" type="line"/>
      <point x="266" y="391" type="line"/>
      <point x="266" y="547" type="line" smooth="yes"/>
      <point x="266" y="628"/>
      <point x="292" y="632"/>
      <point x="337" y="634" type="curve"/>
      <point x="337" y="700" type="line"/>
      <point x="50" y="700" type="line"/>
      <point x="50" y="623" type="line"/>
      <point x="64" y="624"/>
      <point x="104" y="625"/>
      <point x="125" y="626" type="curve"/>
      <point x="123" y="609"/>
      <point x="121" y="572"/>
      <point x="121" y="536" type="curve" smooth="yes"/>
      <point x="121" y="153" type="line" smooth="yes"/>
      <point x="121" y="72"/>
      <point x="95" y="68"/>
      <point x="50" y="66" type="curve"/>
      <point x="50" y="0" type="line"/>
      <point x="337" y="0" type="line"/>
      <point x="337" y="77" type="line"/>
      <point x="323" y="77"/>
      <point x="283" y="76"/>
      <point x="262" y="74" type="curve"/>
      <point x="264" y="91"/>
      <point x="266" y="128"/>
      <point x="266" y="164" type="curve" smooth="yes"/>
      <point x="266" y="312" type="line"/>
      <point x="536" y="315" type="line"/>
    </contour>
    <contour>
      <point x="510" y="716"/>
      <point x="400" y="518"/>
      <point x="400" y="350" type="curve" smooth="yes"/>
      <point x="400" y="176"/>
      <point x="491" y="-16"/>
      <point x="734" y="-16" type="curve" smooth="yes"/>
      <point x="970" y="-16"/>
      <point x="1084" y="185"/>
      <point x="1084" y="350" type="curve" smooth="yes"/>
      <point x="1084" y="517"/>
      <point x="980" y="716"/>
      <point x="737" y="716" type="curve" smooth="yes"/>
    </contour>
    <contour>
      <point x="863" y="646"/>
      <point x="927" y="516"/>
      <point x="927" y="333" type="curve" smooth="yes"/>
      <point x="927" y="210"/>
      <point x="882" y="58"/>
      <point x="744" y="57" type="curve" smooth="yes"/>
      <point x="604" y="56"/>
      <point x="558" y="237"/>
      <point x="558" y="362" type="curve" smooth="yes"/>
      <point x="558" y="485"/>
      <point x="598" y="640"/>
      <point x="724" y="643" type="curve" smooth="yes"/>
    </contour>
  </outline>
</glyph>
<glyph name="Ia-cy" format="1">
  <advance width="736"/>
  <unicode hex="042F"/>
  <outline>
    <contour>
      <point x="227" y="703"/>
      <point x="110" y="625"/>
      <point x="115" y="494" type="curve" smooth="yes"/>
      <point x="118" y="377"/>
      <point x="209" y="310"/>
      <point x="398" y="283" type="curve"/>
      <point x="471" y="272" type="line"/>
      <point x="471" y="165" type="line" smooth="yes"/>
      <point x="471" y="128"/>
      <point x="472" y="91"/>
      <point x="475" y="74" type="curve"/>
      <point x="453" y="76"/>
      <point x="404" y="77"/>
      <point x="390" y="77" type="curve"/>
      <point x="390" y="0" type="line"/>
      <point x="687" y="0" type="line"/>
      <point x="687" y="66" type="line"/>
      <point x="642" y="68"/>
      <point x="615" y="72"/>
      <point x="615" y="153" type="curve" smooth="yes"/>
      <point x="615" y="536" type="line" smooth="yes"/>
      <point x="615" y="572"/>
      <point x="614" y="609"/>
      <point x="611" y="626" type="curve"/>
      <point x="633" y="625"/>
      <point x="672" y="624"/>
      <point x="687" y="623" type="curve"/>
      <point x="687" y="700" type="line"/>
      <point x="402" y="702" type="line" smooth="yes"/>
    </contour>
    <contour>
      <point x="471" y="632" type="line"/>
      <point x="471" y="347" type="line"/>
      <point x="457" y="346"/>
      <point x="442" y="344"/>
      <point x="426" y="344" type="curve" smooth="yes"/>
      <point x="319" y="344"/>
      <point x="269" y="400"/>
      <point x="269" y="497" type="curve" smooth="yes"/>
      <point x="269" y="603"/>
      <point x="324" y="631"/>
      <point x="403" y="632" type="curve" smooth="yes"/>
    </contour>
    <contour>
      <point x="355" y="320" type="line"/>
      <point x="283" y="307"/>
      <point x="242" y="301"/>
      <point x="201" y="232" type="curve" smooth="yes"/>
      <point x="163" y="174" type="line" smooth="yes"/>
      <point x="125" y="115"/>
      <point x="77" y="68"/>
      <point x="32" y="66" type="curve"/>
      <point x="32" y="0" type="line"/>
      <point x="179" y="0" type="line"/>
      <point x="195" y="1"/>
      <point x="251" y="62"/>
      <point x="276" y="102" type="curve" smooth="yes"/>
      <point x="340" y="202" type="line" smooth="yes"/>
      <point x="381" y="267"/>
      <point x="412" y="271"/>
      <point x="471" y="272" type="curve"/>
      <point x="445" y="320" type="line"/>
    </contour>
  </outline>
</glyph>
<glyph name="ve-cy" format="1">
  <advance width="579"/>
  <unicode hex="0432"/>
  <outline>
    <contour>
      <point x="290" y="244" type="line"/>
      <point x="456" y="250"/>
      <point x="514" y="301"/>
      <point x="514" y="382" type="curve" smooth="yes"/>
      <point x="514" y="462"/>
      <point x="457" y="501"/>
      <point x="343" y="501" type="curve" smooth="yes"/>
      <point x="43" y="500" type="line"/>
      <point x="42" y="435" type="line"/>
      <point x="53" y="435"/>
      <point x="88" y="436"/>
      <point x="104" y="437" type="curve"/>
      <point x="103" y="424"/>
      <point x="102" y="398"/>
      <point x="102" y="373" type="curve" smooth="yes"/>
      <point x="102" y="126" type="line" smooth="yes"/>
      <point x="102" y="69"/>
      <point x="78" y="66"/>
      <point x="42" y="65" type="curve"/>
      <point x="42" y="0" type="line"/>
      <point x="357" y="0" type="line" smooth="yes"/>
      <point x="467" y="0"/>
      <point x="547" y="49"/>
      <point x="547" y="141" type="curve" smooth="yes"/>
      <point x="547" y="214"/>
      <point x="493" y="266"/>
      <point x="363" y="273" type="curve"/>
      <point x="290" y="284" type="line"/>
      <point x="243" y="283" type="line"/>
      <point x="243" y="389" type="line" smooth="yes"/>
      <point x="243" y="434"/>
      <point x="263" y="438"/>
      <point x="289" y="438" type="curve" smooth="yes"/>
      <point x="353" y="439"/>
      <point x="384" y="425"/>
      <point x="384" y="371" type="curve" smooth="yes"/>
      <point x="384" y="321"/>
      <point x="370" y="288"/>
      <point x="290" y="284" type="curve"/>
    </contour>
    <contour>
      <point x="366" y="222"/>
      <point x="409" y="204"/>
      <point x="409" y="144" type="curve" smooth="yes"/>
      <point x="409" y="101"/>
      <point x="385" y="71"/>
      <point x="331" y="69" type="curve" smooth="yes"/>
      <point x="310" y="68"/>
      <point x="267" y="68"/>
      <point x="237" y="68" type="curve"/>
      <point x="239" y="84"/>
      <point x="243" y="104"/>
      <point x="243" y="128" type="curve" smooth="yes"/>
      <point x="243" y="221" type="line"/>
      <point x="264" y="222"/>
      <point x="294" y="222"/>
      <point x="323" y="222" type="curve" smooth="yes"/>
    </contour>
    <contour>
      <point x="412" y="254" type="line"/>
      <point x="427" y="254" type="line"/>
      <point x="427" y="280" type="line"/>
      <point x="412" y="280" type="line"/>
    </contour>
  </outline>
</glyph>
